/* XPM */
static char * jetpacicon_xpm[] = {
"20 20 24 1",
" 	c None",
".	c #000000",
"+	c #8E8E8E",
"@	c #9E9E9E",
"#	c #767676",
"$	c #5AAAC2",
"%	c #76BED2",
"&	c #5E9EB2",
"*	c #FAFAFA",
"=	c #616264",
"-	c #9A9A9A",
";	c #6E7272",
">	c #7E7E7E",
",	c #5AA6BE",
"'	c #2EB2DA",
")	c #61D6F6",
"!	c #47BADB",
"~	c #3F6A76",
"{	c #329ABA",
"]	c #3E869D",
"^	c #B12A2C",
"/	c #7A222A",
"(	c #E23232",
"_	c #7A2226",
"       ....         ",
"     ..+@@@.        ",
"    .++####@.       ",
"   .+@#$$%%#@.      ",
"   .+@&$$*%%#@.     ",
"  .+@@&$$$*%@@.     ",
"  .+@&&&$$$%@+.     ",
"  .=@@&&&&&$@+.     ",
"  .-=@@@@@@@+.      ",
" .;>-===++++.       ",
" .;>>>,,'').        ",
" .;>>!''!!)'..      ",
" .;>~!))######.     ",
" .;>~,,'##{...      ",
"  .;;.]]{{{.        ",
"   ...]{{{^.        ",
"     ./(_(^.        ",
"     ./(^_(^.       ",
"     ./(^_(^.       ",
"      ......        "};
