/* XPM */
static char * digits_xpm[] = {
"200 23 9 1",
".	c #FE00FE",
"q	c #00C000",
"@      c #323232",
"#      c #0080FF",
"$      c #000000",
"%      c #FFE000",
"e      c #808080",
"+      c #FFFFFF",
"&      c #800000",
"...+++++++.................................+++++++.............+++++++.................................+++++++.............+++++++.............+++++++.............+++++++.............+++++++..........",
"..+++++++++...............................+++++++++...........+++++++++...............................+++++++++...........+++++++++...........+++++++++...........+++++++++...........+++++++++.........",
".+.+++++++.+...................+...........+++++++.+...........+++++++.+.........+.........+.........+.+++++++...........+.+++++++.............+++++++.+.........+.+++++++.+.........+.+++++++.+........",
"+++.......+++.................+++.................+++.................+++.......+++.......+++.......+++.................+++...........................+++.......+++.......+++.......+++.......+++.......",
"+++.......+++.................+++.................+++.................+++.......+++.......+++.......+++.................+++...........................+++.......+++.......+++.......+++.......+++.......",
"+++.......+++.................+++.................+++.................+++.......+++.......+++.......+++.................+++...........................+++.......+++.......+++.......+++.......+++.......",
"+++.......+++.................+++.................+++.................+++.......+++.......+++.......+++.................+++...........................+++.......+++.......+++.......+++.......+++.......",
"+++.......+++.................+++.................+++.................+++.......+++.......+++.......+++.................+++...........................+++.......+++.......+++.......+++.......+++.......",
"+++.......+++.................+++.................+++.................+++.......+++.......+++.......+++.................+++...........................+++.......+++.......+++.......+++.......+++.......",
"+++.......+++.................+++.................+++.................+++.......+++.......+++.......+++.................+++...........................+++.......+++.......+++.......+++.......+++.......",
".+.........+...................+...........+++++++.+...........+++++++.+.........+.+++++++.+.........+.+++++++...........+.+++++++.....................+.........+.+++++++.+.........+.+++++++.+........",
"..........................................+++++++++...........+++++++++...........+++++++++...........+++++++++...........+++++++++...............................+++++++++...........+++++++++.........",
".+.........+...................+.........+.+++++++.............+++++++.+...........+++++++.+...........+++++++.+.........+.+++++++.+...................+.........+.+++++++.+...........+++++++.+........",
"+++.......+++.................+++.......+++...........................+++.................+++.................+++.......+++.......+++.................+++.......+++.......+++.................+++.......",
"+++.......+++.................+++.......+++...........................+++.................+++.................+++.......+++.......+++.................+++.......+++.......+++.................+++.......",
"+++.......+++.................+++.......+++...........................+++.................+++.................+++.......+++.......+++.................+++.......+++.......+++.................+++.......",
"+++.......+++.................+++.......+++...........................+++.................+++.................+++.......+++.......+++.................+++.......+++.......+++.................+++.......",
"+++.......+++.................+++.......+++...........................+++.................+++.................+++.......+++.......+++.................+++.......+++.......+++.................+++.......",
"+++.......+++.................+++.......+++...........................+++.................+++.................+++.......+++.......+++.................+++.......+++.......+++.................+++.......",
"+++.......+++.................+++.......+++...........................+++.................+++.................+++.......+++.......+++.................+++.......+++.......+++.................+++.......",
".+.+++++++.+...................+.........+.+++++++.............+++++++.+...................+...........+++++++.+.........+.+++++++.+...................+.........+.+++++++.+...........+++++++.+........",
"..+++++++++...............................+++++++++...........+++++++++...............................+++++++++...........+++++++++...............................+++++++++...........+++++++++.........",
"...+++++++.................................+++++++.............+++++++.................................+++++++.............+++++++.................................+++++++.............+++++++.........."};
