/* XPM */
static char * enemy1_xpm[] = {
"81 40 9 1",
".	c #FE00FE",
"+	c #00C000",
"@	c #323232",
"#	c #0080FF",
"$	c #000000",
"%	c #FFE000",
"*	c #808080",
"q      c #FFFFFF",
"&	c #800000",
".................................................................................",
"+................................................................................",
"@...........................+.....................+++.....................+......",
"#..........................+++++.................++.++.................+++++.....",
"$....++++++++++++..........+...+++..............++...++..............+++...+.....",
"%....+..........+..........+......++...........++.....++...........++......+.....",
"&....+....++....+.........+.....+...+++.......++.+...+.++.......+++...+.....+....",
"*....+....++....+.........+....++.....+......++.+++.+++.++......+.....++....+....",
".....+....++....+........+.++++++....+......++...+++++...++......+....++++++.+...",
".....+.++++++++.+........+..+++++....+.....++.....+++.....++.....+....+++++..+...",
".....+.++++++++.+.......++....+++++.+......++....+++++....++......+.+++++....++..",
".....+....++....+.......+....+++.++.+.......++..+++.+++..++.......+.++.+++....+..",
".....+....++....+.......+....++.....+........++..+...+..++........+.....++....+..",
".....+....++....+.......+++...+....+..........++.......++..........+....+...+++..",
".....+..........+..........++......+...........++.....++...........+......++.....",
".....++++++++++++............+++..+.............++...++.............+..+++.......",
"................................+++..............++.++..............+++..........",
"..................................................+++............................",
".................................................................................",
".................................................................................",
".................................................................................",
"+................................................................................",
"#...........................@.....................@@@.....................@......",
"$..........................@@@@@.................@@@@@.................@@@@@.....",
"%....@@@@@@@@@@@@..........@@@@@@@..............@@@@@@@..............@@@@@@@.....",
"&....@@@@@@@@@@@@..........@@@@@@@@@...........@@@@@@@@@...........@@@@@@@@@.....",
"*....@@@@@@@@@@@@.........@@@@@@@@@@@@@.......@@@@@@@@@@@.......@@@@@@@@@@@@@....",
".....@@@@@@@@@@@@.........@@@@@@@@@@@@@......@@@@@@@@@@@@@......@@@@@@@@@@@@@....",
".....@@@@@@@@@@@@........@@@@@@@@@@@@@......@@@@@@@@@@@@@@@......@@@@@@@@@@@@@...",
".....@@@@@@@@@@@@........@@@@@@@@@@@@@.....@@@@@@@@@@@@@@@@@.....@@@@@@@@@@@@@...",
".....@@@@@@@@@@@@.......@@@@@@@@@@@@@......@@@@@@@@@@@@@@@@@......@@@@@@@@@@@@@..",
".....@@@@@@@@@@@@.......@@@@@@@@@@@@@.......@@@@@@@@@@@@@@@.......@@@@@@@@@@@@@..",
".....@@@@@@@@@@@@.......@@@@@@@@@@@@@........@@@@@@@@@@@@@........@@@@@@@@@@@@@..",
".....@@@@@@@@@@@@.......@@@@@@@@@@@@..........@@@@@@@@@@@..........@@@@@@@@@@@@..",
".....@@@@@@@@@@@@..........@@@@@@@@@...........@@@@@@@@@...........@@@@@@@@@.....",
".....@@@@@@@@@@@@............@@@@@@.............@@@@@@@.............@@@@@@.......",
"................................@@@..............@@@@@..............@@@..........",
"..................................................@@@............................",
".................................................................................",
"................................................................................."};
