/* XPM */
static char * enemy4_xpm[] = {
"90 60 53 1",
".	c #363636",
"k      c #00D000",
"l      c #323232",
"m      c #0080FF",
"h	c #000000",
"o      c #FFF000",
"p      c #808080",
"x      c #FFFFFF",
"s      c #800000",
"+	c #ECB297",
"@	c #F8B297",
"#	c #EFB08D",
"$	c #D7A08E",
"%	c #9D7666",
"&	c #D59F7F",
"*	c #BE8E7E",
"=	c #B88765",
"-	c #F8A792",
";	c #E09484",
">	c #AD766A",
",	c #A5795A",
"'	c #F5A689",
")	c #EC9E8A",
"!	c #79513F",
"~	c #9E795E",
"{	c #E19D81",
"]	c #EB9B7F",
"^	c #ED9684",
"/	c #87694D",
"(	c #AE7D66",
"_	c #BA8B72",
":	c #CE836F",
"<	c #BB6954",
"[	c #C66B57",
"}	c #DB7F6F",
"|	c #D78C7C",
"1	c #916852",
"2	c #A17059",
"3	c #C2846F",
"4	c #CD8D77",
"5	c #D88371",
"6	c #C67361",
"7	c #B25D49",
"8	c #B56C58",
"9	c #925340",
"0	c #C07664",
"a	c #976752",
"b	c #A4624F",
"c	c #DB9A87",
"d	c #D98D77",
"e	c #D68C6F",
"f	c #B07762",
"g	c #E0937D",
"..........................................................................................",
"..........................................................................................",
"..........................................................................................",
".........++@#+@++$+$%..................++@#+@++$+$%..................++@#+@++$+$%.........",
"........&&#+#@@++$$$$*................&&#+#@@++$$$$*................&&#+#@@++$$$$*........",
".......=&###@#@---;;;;>..............=&###@#@---;;;;>..............=&###@#@---;;;;>.......",
"......,=&&##''@---));;**............,=&&##''@---));;**............,=&&##''@---));;**......",
".....!~=&&{'']'^-^^^^;>*%..........!~=&&{'']'^-^^^^;>*%..........!~=&&{'']'^-^^^^;>*%.....",
"....!/(_$+{{:<[[}^^};|>!!!........!/(_$+{{:<[[}^^};|>!!!........!/(_$+{{:<[[}^^};|>!!!....",
"....12344::::5678};|669>%/........12344::::5678};|669>%/........12344::::5678};|669>%/....",
"....9(44;30<86660};}>99>!!........9(44;30<86660};}>99>!!........9(44;30<86660};}>99>!!....",
"....a3|;;||060|0|;;;b>9>a1........a3|;;||060|0|;;;b>9>a1........a3|;;||060|0|;;;b>9>a1....",
"....33;;;^));;};|;;;>6>(_%........33;;;^));;};|;;;>6>(_%........33;;;^));;};|;;;>6>(_%....",
"....3cc|;)-^-;;;;;;;08>2%/........3cc|;)-^-;;;;;;;08>2%/........3cc|;)-^-;;;;;;;08>2%/....",
"....3ddd)))^----^;^)064_,~........3ddd)))^----^;^)064_,~........3ddd)))^----^;^)064_,~....",
"....0{e{]''----^^^^-58f_~~........0{e{]''----^^^^-58f_~~........0{e{]''----^^^^-58f_~~....",
"....34e{])'---^^^^--504__~........34e{])'---^^^^--504__~........34e{])'---^^^^--504__~....",
"....334{{{-@^^5^56|-:b4_~~........334{{{-@^^5^56|-:b4_~~........334{{{-@^^5^56|-:b4_~~....",
"....f34_cc)-gd5d:8b>b9>*(~........f34_cc)-gd5d:8b>b9>*(~........f34_cc)-gd5d:8b>b9>*(~....",
"....f_3444dd6[8606bb9b93%/........f_3444dd6[hhhhhhhb93%/........f_3444dd6[hhhhhhhb93%/....",
"....2(f3:4:e87<786889b9,~/........2(f3:4:e8hhhhhhhhh9,~/........2(f3:4:e8hhhhhhhhh9,~/....",
"....%a(f344:66<<860b9921//........%a(f344:6hhhhhhhhh21//........%a(f344:6hhhhhhhhh21//....",
".....aa2f334ed:::d089b(1/..........aa2f334edhhhhhhhb(1/..........aa2f334edhhhhhhhb(1/.....",
"......2a2,33|{g)gd03b((/............2a2,33|{g)gd03b((/............2a2,33|{g)gd03b((/......",
".......aa2f_344c|400b2/..............aa2f_344c|400b2/..............aa2f_344c|400b2/.......",
"........11a(*34$$4*3b>................11a(*34$$4*3b>................11a(*34$$4*3b>........",
".........%%a1**3*$**2..................%%a1**3*$**2..................%%a1**3*$**2.........",
"..........................................................................................",
"..........................................................................................",
"..........................................................................................",
"..........................................................................................",
"..........................................................................................",
"..........................................................................................",
".........llllllllllll..................llllllllllll..................llllllllllll.........",
"........llllllllllllll................llllllllllllll................llllllllllllll........",
".......llllllllllllllll..............llllllllllllllll..............llllllllllllllll.......",
"......llllllllllllllllll............llllllllllllllllll............llllllllllllllllll......",
".....llllllllllllllllllll..........llllllllllllllllllll..........llllllllllllllllllll.....",
"....llllllllllllllllllllll........llllllllllllllllllllll........llllllllllllllllllllll....",
"....llllllllllllllllllllll........llllllllllllllllllllll........llllllllllllllllllllll....",
"....llllllllllllllllllllll........llllllllllllllllllllll........llllllllllllllllllllll....",
"....llllllllllllllllllllll........llllllllllllllllllllll........llllllllllllllllllllll....",
"....llllllllllllllllllllll........llllllllllllllllllllll........llllllllllllllllllllll....",
"....llllllllllllllllllllll........llllllllllllllllllllll........llllllllllllllllllllll....",
"....llllllllllllllllllllll........llllllllllllllllllllll........llllllllllllllllllllll....",
"....llllllllllllllllllllll........llllllllllllllllllllll........llllllllllllllllllllll....",
"....llllllllllllllllllllll........llllllllllllllllllllll........llllllllllllllllllllll....",
"....llllllllllllllllllllll........llllllllllllllllllllll........llllllllllllllllllllll....",
"....llllllllllllllllllllll........llllllllllllllllllllll........llllllllllllllllllllll....",
"....llllllllllllllllllllll........llllllllllllllllllllll........llllllllllllllllllllll....",
"....llllllllllllllllllllll........llllllllllllllllllllll........llllllllllllllllllllll....",
"....llllllllllllllllllllll........llllllllllllllllllllll........llllllllllllllllllllll....",
".....llllllllllllllllllll..........llllllllllllllllllll..........llllllllllllllllllll.....",
"......llllllllllllllllll............llllllllllllllllll............llllllllllllllllll......",
".......llllllllllllllll..............llllllllllllllll..............llllllllllllllll.......",
"........llllllllllllll................llllllllllllll................llllllllllllll........",
".........llllllllllll..................llllllllllll..................llllllllllll.........",
"..........................................................................................",
"..........................................................................................",
".........................................................................................."};
