/* XPM */
static char * enemy2_xpm[] = {
"241 60 8 1",
".	c #FE00FE",
"+	c #00C000",
"$	c #323232",
"%	c #0080FF",
"&	c #000000",
"*	c #FFE000",
"#	c #808080",
"@	c #FFFFFF",
".................................................................................................................................................................................................................................................",
"+.............................................@........................................................##.............................................................@@@@.......................................................................",
"$............................................@#..@....................................................####@..........................................................@#@@#@...................................................@@.@@#.@...........",
"%........@######@....@@....................@@###@@#.....................@#####@......................########....................@@####..........................@.#####@###..................................................@#####@@@..........",
"&.....@..@#######@@@###...................#@#@######.................@##@###@#####@...................@#@@####@@................@@###@#@@@@..####...............@@@#@###@####................@@####@@@@@@.....................##########.........",
"*.....@####@@####@#####@#..............@.####@###@###...............@#############@@@@@............@.###@@####@##..............@@#@##@#######@###..............@@###@@#####@#..............#@@#######@##@#...................@###########........",
"@.....@#####@####@######@#............############@###...........########@#########@##............@@####@#########.............@##@######@#######.............@@@###########@@............#@###############@@@............@@@######@######.......",
"#.....@@#################@...........############@####@..........###@########@####@###...........@@#@##@#####@#####............@##############@@#@...........#@#####@########@@...........@######@@@@####@###@@..........####@#####@##@##@@......",
".....@@#@################@@.........#######@#@########@..........###@@#######@@@######@@.......##@########@########@...........#############@@@###@.........####@@##@@########@@........@#####@##########@####@@........###########@##@@##@@.....",
".....########@#@######@###@........@#####@@@##########@..........#@##@##@#######@#######......##@########@@########...........##@@####@@###########........####@@#######@@###@#.........@######@#######@####@@#@.......############@###@@#@@@....",
".....#####@#@##@@####@#####........@@#####@###@######@#@..........###@##@############@##.....@#########@@######@####.........@@#########@@#########.......@###@@###@#####@######.#.......#######@@##@##@########......###@##############@###@@...",
".....####@#####@####@######........###@##########@#######@@.......#########@####@###@@##....@#######@@@#######@@#####........@####@@######@#@@####@@.....@@##########@###@######@##......@#########@############.....@@#@#@###@@@###########@....",
"....@####@##########@##@###.......##############@@########@......@######@########@######....@@@@####@######@###@@###@@.......@#########@########@###......@########@###@##@##@######.....@#########@#@#######@@#......@########@####@#@#######...",
"....####@@####@########@###.......#########@#@@##@########.......@#@###@#####@##########....@@#########@#############@.......@@######@@#############.....####@@@@#########@###@@@###.....@@@#########@###@######......##################@@#@@#...",
"....#@############@@###@##@......@#####@@#################@......@#####@#######@@@######....@##############@####@##@@#@......@##@##@#######@########.....@#################@###@@##.....@######@######@##@####@.....@########@##@####@##@##@##@..",
"....########@#######@##@##@......##@@###@#################@......@####@##@######@######@.....@##@##@##@####@##@########@.....@##@###@@############@#.....@#################@@#####@.....######@@@#######@#####@......@#@@##@####@##############@.",
"....#############@@######@@.....###@@@###@#########@@@@####.....######@###@#########@@@.......#@@#@@##################.......###@########@####@@####......########@##@@#@#########......##########@#####@###@#@.......@#############@#########@@.",
"....###@########@#########@.....######@##@##@###@########@......#@@#######@#@#########@.......#######@#@####@########@.......###@##@##########@####@.....@########@@##############......######@########@######@.......@@###@@###@######@####@@@@.",
"....@@####@@#@######@@####@......##@######@###@##########@@.....############@#########@........@###########@@@###@#@#@@......######@####@#####@####......@@#######@##########@###.......##@@###@####@#########.........#####@@#######@@@#######@.",
".....#########@@#########@@.......#.######@#####@###@@###@......########@##@##@@#######.......@@###@##############@###.......#####@####@@##@#@#####.........@#@######@###@#####@@.......##@############@##@###..........####@######@@#########@..",
".....###########@@####@@##...........#@###@@#######@@####.......@#@@####@#######@######@.......@@@#@@###@############........@###@######@#@########..........@##########@@@#####@.......#######@#######@##@##@#..........########@@########@##...",
".....@###@@@#############...........@@########@@##@@####........@@####@##########@#####@........@@##@@##@###########.........@@################@#@@..........@########@#@#######........@@######@@@#######@@###.........@########@########@##....",
"......@#@@##############@............@@########@#####@#..........@@###@####@@@@######@...........@@##@##@#####@####...........@#################@@...........@####@############...........###@####@########@###..........#####@#####@##@#@@......",
".......#######@######@##@.............@@###########@@@............@@@###############@#............######@######@@@............#@######@####@#####@............###@############............##@#########@########...........#########@####@@.......",
".......###@#######@##@#@@..............#@#####@@###@@.................#@##@#######@@#..............###########@................#@#####@####@@####@.............###@###@####.@............@@@@@#############@...............##@####@@###.@........",
".......####..@@@@#@###@@...............####@###@#@@@...................@@@@@@####@@.................##########...................###@@@#######@..@..............######@#@#...................@#####@###@##@.................@@####@@#@...........",
".................####@@.................###@#####.@..................................................@@@#####@...................@@....@######@..................#@@###@@........................@#####@.......................########..........",
".........................................@#@@#@.......................................................@.#@@.@@....................................................@..#@..........................................................@####...........",
"..........................................@@@@.......................................................................................................................@.............................................................##............",
".................................................................................................................................................................................................................................................",
".................................................................................................................................................................................................................................................",
"+.............................................$........................................................$$.............................................................$$$$.......................................................................",
"$............................................$$..$....................................................$$$$$..........................................................$$$$$$...................................................$$.$$$.$...........",
"%........$$$$$$$$....$$....................$$$$$$$$.....................$$$$$$$......................$$$$$$$$....................$$$$$$..........................$.$$$$$$$$$..................................................$$$$$$$$$..........",
"&.....$..$$$$$$$$$$$$$$...................$$$$$$$$$$.................$$$$$$$$$$$$$$...................$$$$$$$$$$................$$$$$$$$$$$..$$$$...............$$$$$$$$$$$$$................$$$$$$$$$$$$.....................$$$$$$$$$$.........",
"*.....$$$$$$$$$$$$$$$$$$$..............$.$$$$$$$$$$$$...............$$$$$$$$$$$$$$$$$$$............$.$$$$$$$$$$$$..............$$$$$$$$$$$$$$$$$$..............$$$$$$$$$$$$$$..............$$$$$$$$$$$$$$$...................$$$$$$$$$$$$........",
"@.....$$$$$$$$$$$$$$$$$$$$............$$$$$$$$$$$$$$$$...........$$$$$$$$$$$$$$$$$$$$$............$$$$$$$$$$$$$$$$.............$$$$$$$$$$$$$$$$$$.............$$$$$$$$$$$$$$$$............$$$$$$$$$$$$$$$$$$$$............$$$$$$$$$$$$$$$$.......",
"#.....$$$$$$$$$$$$$$$$$$$$...........$$$$$$$$$$$$$$$$$$..........$$$$$$$$$$$$$$$$$$$$$...........$$$$$$$$$$$$$$$$$$............$$$$$$$$$$$$$$$$$$$...........$$$$$$$$$$$$$$$$$$...........$$$$$$$$$$$$$$$$$$$$$..........$$$$$$$$$$$$$$$$$$......",
".....$$$$$$$$$$$$$$$$$$$$$$.........$$$$$$$$$$$$$$$$$$$..........$$$$$$$$$$$$$$$$$$$$$$$.......$$$$$$$$$$$$$$$$$$$$$...........$$$$$$$$$$$$$$$$$$$$.........$$$$$$$$$$$$$$$$$$$$........$$$$$$$$$$$$$$$$$$$$$$$$........$$$$$$$$$$$$$$$$$$$$.....",
".....$$$$$$$$$$$$$$$$$$$$$$........$$$$$$$$$$$$$$$$$$$$..........$$$$$$$$$$$$$$$$$$$$$$$......$$$$$$$$$$$$$$$$$$$$$...........$$$$$$$$$$$$$$$$$$$$$........$$$$$$$$$$$$$$$$$$$$.........$$$$$$$$$$$$$$$$$$$$$$$$.......$$$$$$$$$$$$$$$$$$$$$$....",
".....$$$$$$$$$$$$$$$$$$$$$$........$$$$$$$$$$$$$$$$$$$$$..........$$$$$$$$$$$$$$$$$$$$$$.....$$$$$$$$$$$$$$$$$$$$$$$.........$$$$$$$$$$$$$$$$$$$$$$.......$$$$$$$$$$$$$$$$$$$$$$.$.......$$$$$$$$$$$$$$$$$$$$$$$......$$$$$$$$$$$$$$$$$$$$$$$$...",
".....$$$$$$$$$$$$$$$$$$$$$$........$$$$$$$$$$$$$$$$$$$$$$$$.......$$$$$$$$$$$$$$$$$$$$$$....$$$$$$$$$$$$$$$$$$$$$$$$$........$$$$$$$$$$$$$$$$$$$$$$$.....$$$$$$$$$$$$$$$$$$$$$$$$$$......$$$$$$$$$$$$$$$$$$$$$$$.....$$$$$$$$$$$$$$$$$$$$$$$$....",
"....$$$$$$$$$$$$$$$$$$$$$$$.......$$$$$$$$$$$$$$$$$$$$$$$$$......$$$$$$$$$$$$$$$$$$$$$$$....$$$$$$$$$$$$$$$$$$$$$$$$$$.......$$$$$$$$$$$$$$$$$$$$$$$......$$$$$$$$$$$$$$$$$$$$$$$$$$.....$$$$$$$$$$$$$$$$$$$$$$$......$$$$$$$$$$$$$$$$$$$$$$$$...",
"....$$$$$$$$$$$$$$$$$$$$$$$.......$$$$$$$$$$$$$$$$$$$$$$$$.......$$$$$$$$$$$$$$$$$$$$$$$....$$$$$$$$$$$$$$$$$$$$$$$$$$.......$$$$$$$$$$$$$$$$$$$$$$$.....$$$$$$$$$$$$$$$$$$$$$$$$$$$.....$$$$$$$$$$$$$$$$$$$$$$$......$$$$$$$$$$$$$$$$$$$$$$$$...",
"....$$$$$$$$$$$$$$$$$$$$$$$......$$$$$$$$$$$$$$$$$$$$$$$$$$......$$$$$$$$$$$$$$$$$$$$$$$....$$$$$$$$$$$$$$$$$$$$$$$$$$$......$$$$$$$$$$$$$$$$$$$$$$$.....$$$$$$$$$$$$$$$$$$$$$$$$$$.....$$$$$$$$$$$$$$$$$$$$$$$.....$$$$$$$$$$$$$$$$$$$$$$$$$$$..",
"....$$$$$$$$$$$$$$$$$$$$$$$......$$$$$$$$$$$$$$$$$$$$$$$$$$......$$$$$$$$$$$$$$$$$$$$$$$.....$$$$$$$$$$$$$$$$$$$$$$$$$$$.....$$$$$$$$$$$$$$$$$$$$$$$.....$$$$$$$$$$$$$$$$$$$$$$$$$$.....$$$$$$$$$$$$$$$$$$$$$$$......$$$$$$$$$$$$$$$$$$$$$$$$$$$.",
"....$$$$$$$$$$$$$$$$$$$$$$$.....$$$$$$$$$$$$$$$$$$$$$$$$$$$.....$$$$$$$$$$$$$$$$$$$$$$$.......$$$$$$$$$$$$$$$$$$$$$$$$.......$$$$$$$$$$$$$$$$$$$$$$$......$$$$$$$$$$$$$$$$$$$$$$$$......$$$$$$$$$$$$$$$$$$$$$$$.......$$$$$$$$$$$$$$$$$$$$$$$$$$.",
"....$$$$$$$$$$$$$$$$$$$$$$$.....$$$$$$$$$$$$$$$$$$$$$$$$$$......$$$$$$$$$$$$$$$$$$$$$$$.......$$$$$$$$$$$$$$$$$$$$$$$$.......$$$$$$$$$$$$$$$$$$$$$$$.....$$$$$$$$$$$$$$$$$$$$$$$$$......$$$$$$$$$$$$$$$$$$$$$$$.......$$$$$$$$$$$$$$$$$$$$$$$$$$.",
"....$$$$$$$$$$$$$$$$$$$$$$$......$$$$$$$$$$$$$$$$$$$$$$$$$$.....$$$$$$$$$$$$$$$$$$$$$$$........$$$$$$$$$$$$$$$$$$$$$$$$......$$$$$$$$$$$$$$$$$$$$$$......$$$$$$$$$$$$$$$$$$$$$$$$.......$$$$$$$$$$$$$$$$$$$$$$.........$$$$$$$$$$$$$$$$$$$$$$$$$.",
".....$$$$$$$$$$$$$$$$$$$$$$.......$.$$$$$$$$$$$$$$$$$$$$$$......$$$$$$$$$$$$$$$$$$$$$$$.......$$$$$$$$$$$$$$$$$$$$$$$$.......$$$$$$$$$$$$$$$$$$$$$$.........$$$$$$$$$$$$$$$$$$$$$.......$$$$$$$$$$$$$$$$$$$$$$..........$$$$$$$$$$$$$$$$$$$$$$$..",
".....$$$$$$$$$$$$$$$$$$$$$...........$$$$$$$$$$$$$$$$$$$$.......$$$$$$$$$$$$$$$$$$$$$$$$.......$$$$$$$$$$$$$$$$$$$$$$........$$$$$$$$$$$$$$$$$$$$$$..........$$$$$$$$$$$$$$$$$$$$.......$$$$$$$$$$$$$$$$$$$$$$$..........$$$$$$$$$$$$$$$$$$$$$...",
".....$$$$$$$$$$$$$$$$$$$$...........$$$$$$$$$$$$$$$$$$$$........$$$$$$$$$$$$$$$$$$$$$$$$........$$$$$$$$$$$$$$$$$$$$.........$$$$$$$$$$$$$$$$$$$$$$..........$$$$$$$$$$$$$$$$$$$........$$$$$$$$$$$$$$$$$$$$$$$.........$$$$$$$$$$$$$$$$$$$$$....",
"......$$$$$$$$$$$$$$$$$$$............$$$$$$$$$$$$$$$$$$..........$$$$$$$$$$$$$$$$$$$$$...........$$$$$$$$$$$$$$$$$$...........$$$$$$$$$$$$$$$$$$$$...........$$$$$$$$$$$$$$$$$$...........$$$$$$$$$$$$$$$$$$$$$..........$$$$$$$$$$$$$$$$$$......",
".......$$$$$$$$$$$$$$$$$$.............$$$$$$$$$$$$$$$$............$$$$$$$$$$$$$$$$$$$$............$$$$$$$$$$$$$$$$............$$$$$$$$$$$$$$$$$$$$............$$$$$$$$$$$$$$$$............$$$$$$$$$$$$$$$$$$$$$...........$$$$$$$$$$$$$$$$.......",
".......$$$$$$$$$$$$$$$$$$..............$$$$$$$$$$$$$$.................$$$$$$$$$$$$$$$..............$$$$$$$$$$$$................$$$$$$$$$$$$$$$$$$$.............$$$$$$$$$$$$.$............$$$$$$$$$$$$$$$$$$$...............$$$$$$$$$$$$.$........",
".......$$$$..$$$$$$$$$$$...............$$$$$$$$$$$$$...................$$$$$$$$$$$$.................$$$$$$$$$$...................$$$$$$$$$$$$$$..$..............$$$$$$$$$$...................$$$$$$$$$$$$$$.................$$$$$$$$$$...........",
".................$$$$$$.................$$$$$$$$$.$..................................................$$$$$$$$$...................$$....$$$$$$$$..................$$$$$$$$........................$$$$$$$.......................$$$$$$$$..........",
".........................................$$$$$$.......................................................$.$$$.$$....................................................$..$$..........................................................$$$$$...........",
"..........................................$$$$.......................................................................................................................$.............................................................$$............",
"................................................................................................................................................................................................................................................."};
