/* XPM */
static char * explode_xpm[] = {
"90 80 9 1",
"+	c #FE00FE",
"q 	c #00C000",
"@	c #323232",
"w      c #0080FF",
"e      c #000000",
".      c #FFE000",
"y      c #808080",
"g	c #FFFFFF",
"t      c #800000",
".++++.........++++++++++++.........++++.+++++++++++++++++++++++......+.+++++.+++++.++++++.",
"++++...........++++++++++...........+++++++++...+++++++++++++++.....+++.++++.+++++.+++++.+",
"++...............++++++...............++++++.....+++++++++++++++....++++.+++.+++++.++++.++",
"++...............++++++...............+++++++.....++++++++++++++....+++++.++++++++++++.+++",
"+.................++++.................++++++.....++++++++++++++++++++++++++.......+++++++",
"...................++...................++++++....++++....+++++++++++++++++.........++++++",
"...................++...................++++++.....++.....++++++++++++++++...........+++++",
"...................++...................++++++.....++....+++++++++++++..+....+++++....+...",
"...................++...................+++++++....+.....+......+++++++++...+++++++...++++",
"...................++...................+++++++.........+.......+++++++++...++...++...++++",
"...................++...................+++++++++++....++.......+++++++++...++...++...++++",
"...................++...................+++....+.......++......+++..+++++...++...++...++++",
"...................++...................+++....+......+++++++++++....++++...+++++++...++++",
"...................++...................++.....+....+++++++...+++....+..+....+++++....+...",
"+.................++++.................+++....++...............++....+++++...........+++++",
"++...............++++++...............++++....+++..............++....++++++.........++++++",
"++...............++++++...............++++...++++..............++....++++.++.......+++.+++",
"++++...........++.++++.++...........++++++...+++++...........+++++...+++.++++++++++++++.++",
"+++++.........++++++++++++.........+++++++..+++...+++++++++++++++++..++.++++.+++++.+++++.+",
"+++++++++++++++++++..++++++++++++++++++++++++++.....++++++++++++++++++.+++++.+++++.++++++.",
"+++++++++++++++++++..++++++++++++++++++++++++++......+++++++++++++++++++++++++++++++++++++",
"+++++.........++++++++++++.........+++++++++++++.......+....++++++++++++++++++++++++++++++",
"++++...........++.++++.++...........+++++++++++++...........++++++++++++++++++++++++++++++",
"++...............++++++...............+++++++++++...........++++++++++++++++++++++++++++++",
"++...............++++++...............+++..++++............++++......+++++++++++++++++++++",
"+.................++++.................+...++..............+++.......+++++++++++++++++++++",
"...................++.....................+++........++....+++......++++++++++++++++++++++",
"...................++...................+++++.....+++++....+++......++++++++++++++++++++++",
"...................++...................++++++..+++++++....+++....++++++++++++++++++++++++",
"...................++...................++++++.++++++++++++++++....+++++++++++++++++++++++",
"...................++...................++++++++++++++++++++++++++++++++++++++++.+.+++++++",
"...................++...................+++++++++++++++++++++++++++++++++++++++++.++++++++",
"...................++...................++++++++++++++++++++++++++++++++++++++++.+.+++++++",
"...................++...................++++++++++++++++++++++++++++++++++++++++++++++++++",
"...................++...................++++++++++++++++++++++++++++++++++++++++++++++++++",
"+.................++++..................++++++++++++++++++++++++++++++++++++++++++++++++++",
"++...............++++++...............++++++++++++++++++++++++++++++++++++++++++++++++++++",
"++...............++++++...............++++++++++++++++++++++++++++++++++++++++++++++++++++",
"++++...........++++++++++...........++++++++++++++++++++++++++++++++++++++++++++++++++++++",
".++++.........++++++++++++.........++++.++++++++++++++++++++++++++++++++++++++++++++++++++",
"@++++@@@@@@@@@++++++++++++@@@@@@@@@++++@+++++++++++++++++++++++@@@@@@+@+++++@+++++@++++++@",
"++++@@@@@@@@@@@++++++++++@@@@@@@@@@@+++++++++@@@+++++++++++++++@@@@@+++@++++@+++++@+++++@+",
"++@@@@@@@@@@@@@@@++++++@@@@@@@@@@@@@@@++++++@@@@@+++++++++++++++@@@@++++@+++@+++++@++++@++",
"++@@@@@@@@@@@@@@@++++++@@@@@@@@@@@@@@@+++++++@@@@@++++++++++++++@@@@+++++@++++++++++++@+++",
"+@@@@@@@@@@@@@@@@@++++@@@@@@@@@@@@@@@@@++++++@@@@@++++++++++++++++++++++++++@@@@@@@+++++++",
"@@@@@@@@@@@@@@@@@@@++@@@@@@@@@@@@@@@@@@@++++++@@@@++++@@@@+++++++++++++++++@@@@@@@@@++++++",
"@@@@@@@@@@@@@@@@@@@++@@@@@@@@@@@@@@@@@@@++++++@@@@@++@@@@@++++++++++++++++@@@@@@@@@@@+++++",
"@@@@@@@@@@@@@@@@@@@++@@@@@@@@@@@@@@@@@@@++++++@@@@@++@@@@+++++++++++++@@+@@@@+++++@@@@+@@@",
"@@@@@@@@@@@@@@@@@@@++@@@@@@@@@@@@@@@@@@@+++++++@@@@+@@@@@+@@@@@@+++++++++@@@+++++++@@@++++",
"@@@@@@@@@@@@@@@@@@@++@@@@@@@@@@@@@@@@@@@+++++++@@@@@@@@@+@@@@@@@+++++++++@@@++@@@++@@@++++",
"@@@@@@@@@@@@@@@@@@@++@@@@@@@@@@@@@@@@@@@+++++++++++@@@@++@@@@@@@+++++++++@@@++@@@++@@@++++",
"@@@@@@@@@@@@@@@@@@@++@@@@@@@@@@@@@@@@@@@+++@@@@+@@@@@@@++@@@@@@+++@@+++++@@@++@@@++@@@++++",
"@@@@@@@@@@@@@@@@@@@++@@@@@@@@@@@@@@@@@@@+++@@@@+@@@@@@+++++++++++@@@@++++@@@+++++++@@@++++",
"@@@@@@@@@@@@@@@@@@@++@@@@@@@@@@@@@@@@@@@++@@@@@+@@@@+++++++@@@+++@@@@+@@+@@@@+++++@@@@+@@@",
"+@@@@@@@@@@@@@@@@@++++@@@@@@@@@@@@@@@@@+++@@@@++@@@@@@@@@@@@@@@++@@@@+++++@@@@@@@@@@@+++++",
"++@@@@@@@@@@@@@@@++++++@@@@@@@@@@@@@@@++++@@@@+++@@@@@@@@@@@@@@++@@@@++++++@@@@@@@@@++++++",
"++@@@@@@@@@@@@@@@++++++@@@@@@@@@@@@@@@++++@@@++++@@@@@@@@@@@@@@++@@@@++++@++@@@@@@@+++@+++",
"++++@@@@@@@@@@@++@++++@++@@@@@@@@@@@++++++@@@+++++@@@@@@@@@@@+++++@@@+++@++++++++++++++@++",
"+++++@@@@@@@@@++++++++++++@@@@@@@@@+++++++@@+++@@@+++++++++++++++++@@++@++++@+++++@+++++@+",
"+++++++++++++++++++@@++++++++++++++++++++++++++@@@@@++++++++++++++++++@+++++@+++++@++++++@",
"+++++++++++++++++++@@++++++++++++++++++++++++++@@@@@@+++++++++++++++++++++++++++++++++++++",
"+++++@@@@@@@@@++++++++++++@@@@@@@@@+++++++++++++@@@@@@@+@@@@++++++++++++++++++++++++++++++",
"++++@@@@@@@@@@@++@++++@++@@@@@@@@@@@+++++++++++++@@@@@@@@@@@++++++++++++++++++++++++++++++",
"++@@@@@@@@@@@@@@@++++++@@@@@@@@@@@@@@@+++++++++++@@@@@@@@@@@++++++++++++++++++++++++++++++",
"++@@@@@@@@@@@@@@@++++++@@@@@@@@@@@@@@@+++@@++++@@@@@@@@@@@@++++@@@@@@+++++++++++++++++++++",
"+@@@@@@@@@@@@@@@@@++++@@@@@@@@@@@@@@@@@+@@@++@@@@@@@@@@@@@@+++@@@@@@@+++++++++++++++++++++",
"@@@@@@@@@@@@@@@@@@@++@@@@@@@@@@@@@@@@@@@@@+++@@@@@@@@++@@@@+++@@@@@@++++++++++++++++++++++",
"@@@@@@@@@@@@@@@@@@@++@@@@@@@@@@@@@@@@@@@+++++@@@@@+++++@@@@+++@@@@@@++++++++++++++++++++++",
"@@@@@@@@@@@@@@@@@@@++@@@@@@@@@@@@@@@@@@@++++++@@+++++++@@@@+++@@@@++++++++++++++++++++++++",
"@@@@@@@@@@@@@@@@@@@++@@@@@@@@@@@@@@@@@@@++++++@++++++++++++++++@@@@+++++++++++++++++++++++",
"@@@@@@@@@@@@@@@@@@@++@@@@@@@@@@@@@@@@@@@++++++++++++++++++++++++++++++++++++++++@+@+++++++",
"@@@@@@@@@@@@@@@@@@@++@@@@@@@@@@@@@@@@@@@+++++++++++++++++++++++++++++++++++++++++@++++++++",
"@@@@@@@@@@@@@@@@@@@++@@@@@@@@@@@@@@@@@@@++++++++++++++++++++++++++++++++++++++++@+@+++++++",
"@@@@@@@@@@@@@@@@@@@++@@@@@@@@@@@@@@@@@@@++++++++++++++++++++++++++++++++++++++++++++++++++",
"@@@@@@@@@@@@@@@@@@@++@@@@@@@@@@@@@@@@@@@++++++++++++++++++++++++++++++++++++++++++++++++++",
"+@@@@@@@@@@@@@@@@@++++@@@@@@@@@@@@@@@@@@++++++++++++++++++++++++++++++++++++++++++++++++++",
"++@@@@@@@@@@@@@@@++++++@@@@@@@@@@@@@@@++++++++++++++++++++++++++++++++++++++++++++++++++++",
"++@@@@@@@@@@@@@@@++++++@@@@@@@@@@@@@@@++++++++++++++++++++++++++++++++++++++++++++++++++++",
"++++@@@@@@@@@@@++++++++++@@@@@@@@@@@++++++++++++++++++++++++++++++++++++++++++++++++++++++",
"@++++@@@@@@@@@++++++++++++@@@@@@@@@++++@++++++++++++++++++++++++++++++++++++++++++++++++++"};
