/* XPM */
static char * letters_xpm[] = {
"370 12 8 1",
".	c #FE00FE",
"q      c #00C000",
"@      c #323232",
"#      c #0080FF",
"$      c #000000",
"%      c #FFE000",
"&      c #800000",
"+	c #808080",
"...+......++++++.....+++++....++++++....+++++++...+++++++....+++++....+.....+...+++++........++++...+.....+...+.........+.....+...+.....+....+++++....++++++.....+++++....++++++.....+++++....+++++++...+.....+...+.....+...+.....+...+.....+...+.....+...+++++++...............+++........+.......+++++....+++++++........+....+++++++.....++++....+++++++.....+++......+++++....",
"..+.+......+....+...+.....+....+....+....+.........+........+.....+...+.....+.....+............+....+....+....+.........+.....+...+.....+...+.....+...+.....+...+.....+...+.....+...+.....+......+......+.....+...+.....+...+.....+...+.....+...+.....+.........+..............+...+......++......+.....+.........+.......++....+..........+..............+....+...+....+.....+...",
".+...+.....+....+...+..........+....+....+.........+........+.........+.....+.....+............+....+...+.....+.........++...++...++....+...+.....+...+.....+...+.....+...+.....+...+.....+......+......+.....+...+.....+...+.....+....+...+.....+...+.........+..............+.....+....+.+......+.....+........+.......+.+....+.........+...............+...+.....+...+.....+...",
"+.....+....+....+...+..........+....+....+.........+........+.........+.....+.....+............+....+..+......+.........+.+.+.+...+.+...+...+.....+...+.....+...+.....+...+.....+...+............+......+.....+....+...+....+.....+.....+.+.......+.+.........+...............+.....+...+..+............+.......+.......+..+....+.++++....+..............+.....+...+....+.....+...",
"+.....+....+++++....+..........+....+....++++......++++.....+.........+++++++.....+............+....+++.......+.........+.+.+.+...+..+..+...+.....+...++++++....+.....+...++++++.....+++.........+......+.....+....+...+....+..+..+......+.........+.........+................+.....+......+...........+.......+++.....+...+....++....+...+.++++........+.......+++.....+....++...",
"+.....+....+....+...+..........+....+....+.........+........+...+++...+.....+.....+............+....+.+.......+.........+..+..+...+...+.+...+.....+...+.........+.....+...+..+..........++.......+......+.....+....+...+....+..+..+......+.........+........+.................+.....+......+..........+...........+...+....+..........+...++....+......+.......+...+.....++++.+...",
"+++++++....+....+...+..........+....+....+.........+........+.....+...+.....+.....+............+....+..+......+.........+..+..+...+....++...+.....+...+.........+.....+...+...+...........+......+......+.....+.....+.+.....+..+..+.....+.+........+.......+..................+.....+......+........++............+...+++++++.........+...+.....+.....+.......+.....+.........+...",
"+.....+....+....+...+..........+....+....+.........+........+.....+...+.....+.....+............+....+...+.....+.........+.....+...+.....+...+.....+...+.........+.+...+...+....+....+.....+......+......+.....+.....+.+.....+..+..+....+...+.......+......+...................+.....+......+.......+..............+........+..........+...+.....+.....+.......+.....+.........+...",
"+.....+....+....+...+.....+....+....+....+.........+........+.....+...+.....+.....+.......+....+....+....+....+.........+.....+...+.....+...+.....+...+.........+..+..+...+.....+...+.....+......+......+.....+.....+.+.....+.+.+.+...+.....+......+......+....................+...+.......+......+.........+.....+........+....+.....+...+.....+....+.........+...+.........+....",
"+.....+...++++++.....+++++....++++++....+++++++....+.........+++++....+.....+...+++++......++++.....+.....+...+++++++...+.....+...+.....+....+++++....+..........+++++....+.....+....+++++.......+.......+++++.......+.......+...+....+.....+......+......+++++++...............+++.....+++++++...+++++++....+++++.........+.....+++++.....+++++.....+..........+++......++++.....",
"....................................................................................................................................................................+.............................................................................................................................................................................................................",
".....................................................................................................................................................................++..........................................................................................................................................................................................................."};
