/* XPM */
static char * Logo_xpm[] = {
"120 60 9 1",
".      c #FE00FE",
"q      c #00C000",
">      c #323232",
"w      c #0080FF",
"g	c #000000",
"r      c #FFE000",
"e      c #800000",
"+	c #FFFFFF",
"t      c #808080",
"........................................................................................................................",
"........................................................................................................................",
"........................................................................................................................",
"........................................................................................................................",
"........................................................................................................................",
"........................................................................................................................",
"........................................................................................................................",
"........................................................................................................................",
"...............................................++....................................++.................................",
"................+++++++++++++..................++...............++...................++.................................",
"................++....++....+...................................++......................................................",
"................+.....++....+...................................++......................................................",
"................+.....++........................................++......................................................",
"......................++........................................++......................................................",
"......................++....++++..+++++..+++...++......++++++++.+....++++++..........++...+++.++++......................",
"......................++.....++....++.....+..++++.....++..+++.......++...++........++++....+++...++.....................",
"......................++.....++.....+.....+....++....++....++.......++....+..........++....++....++.....................",
"......................++......++....++...+.....++....++....++.......+++..............++....++....++.....................",
"......................++......++...+++...+.....++....++....++........++++............++....++....++.....................",
"......................++.......++..+.++..+.....++....++....++.........++++...........++....++....++.....................",
"......................++.......++.+..++.+......++.....++..++............+++..........++....++....++.....................",
"......................++.......++++...+++......++......++++.........+....++..........++....++....++.....................",
"......................++........+++...+++......++....++.............+....++..........++....++....++.....................",
"......................++........++.....+.......++....++++++++.......++...++..........++....++....++.....................",
"...................+++++++.......+.....+.....+++++....+++++++++.....++++++.........+++++.+++++.+++++....................",
"......................................................+......++.........................................................",
".....................................................+........+.........................................................",
"....................................................++.......+..........................................................",
"....................................................+++.....+...........................................................",
"......................................................++++++............................................................",
"........................................................................................................................",
"........................................................................................................................",
"........................................................................................................................",
"........................................................................................................................",
"........................................................................................................................",
"........................................................................................................................",
"........................................................................................................................",
"........................................................................................................................",
"........................................................................................................................",
".................................+++++..................................................................................",
"................................++....++................................................................................",
"...............................++......+................................................................................",
"...............................++......+................................................................................",
"...............................+++......................................................................................",
"...............................++++.........++.++++......+++++.......+++++......++++....................................",
"................................++++.......++++...++...++...+++.....+...+++...++...++...................................",
".................................+++++......++....+++..++....++....+.....++...+.....++..................................",
"...................................++++.....++.....++..++....++...++.........+++++++++..................................",
"....................................++++....++.....++.......+++...++.........++.........................................",
"......................................+++...++.....++....+++.++...++.........++.........................................",
"...............................+.......++...++.....++...++...++...++......+..++.........................................",
"...............................+.......++...++.....++..++....++...+++.....+..+++.....+..................................",
"...............................++......++...++....++...++....++....+++...++...+++...+...................................",
"...............................+++....++....+++...++...+++..+++.+..+++++++....+++++++...................................",
"...............................+..+++++.....++.+++......++++.+++.....++++.......++++....................................",
"............................................++..........................................................................",
"............................................++..........................................................................",
"............................................++..........................................................................",
"............................................++..........................................................................",
"..........................................++++++........................................................................"};
