/* XPM */
static char * crater_xpm[] = {
"60 30 3 1",
" 	c #FE00FE",
".	c #E8FF00",
"+	c #000000",
"                                                            ",
"                                                            ",
"                                                            ",
"                                                            ",
"     .                                                .     ",
"    ...                                              ...    ",
"    ...                                              ...    ",
"    ...                                              ...    ",
"   .....                                            .....   ",
"   .....                                            .....   ",
"   .....                                            .....   ",
"   .....                                            .....   ",
"  .......                                          .......  ",
"  .......                                          .......  ",
"  .......                                          .......  ",
" .........                                        ......... ",
" .........                                        ......... ",
" .........                                        ......... ",
"...........                                      ...........",
"...........                                      ...........",
"............++++++++++++++++++++++++++++++++++++............",
"............++++++++++++++++++++++++++++++++++++............",
".............++++++++++++++++++++++++++++++++++.............",
"..............++++++++++++++++++++++++++++++++..............",
"................++++++++++++++++++++++++++++................",
"..................++++++++++++++++++++++++..................",
" ....................++++++++++++++++++.................... ",
" .......................++++++++++++....................... ",
"  ..........................++++..........................  ",
"    ....................................................    "};
