/* XPM */
static char * dino2_xpm[] = {
"94 59 167 2",
". 	c #FE00FE",
"+ 	c #BBBBBB",
"@ 	c #A4A4A4",
"# 	c #5D5D5D",
"$ 	c #B4B4B4",
"% 	c #9E9E9E",
"& 	c #A8A8A8",
"* 	c #B3B3B3",
"= 	c #AFAFAF",
"- 	c #434343",
"; 	c #909090",
"> 	c #9A9A9A",
", 	c #ACACAC",
"' 	c #A7A7A7",
") 	c #B9B9B9",
"! 	c #BFBFBF",
"~ 	c #B5B5B5",
"{ 	c #636363",
"] 	c #737373",
"^ 	c #717171",
"/ 	c #ADADAD",
"( 	c #B0B0B0",
"_ 	c #B8B8B8",
": 	c #AEAEAE",
"< 	c #A9A9A9",
"[ 	c #808080",
"} 	c #565656",
"| 	c #818181",
"1 	c #B6B6B6",
"2 	c #ABABAB",
"3 	c #B7B7B7",
"4 	c #BDBDBD",
"5 	c #4B4B4B",
"6 	c #8A8A8A",
"7 	c #B2B2B2",
"8 	c #BCBCBC",
"9 	c #A6A6A6",
"0 	c #949494",
"a 	c #A1A1A1",
"b 	c #979797",
"c 	c #959595",
"d 	c #7B7B7B",
"e 	c #939393",
"f 	c #B1B1B1",
"g 	c #828282",
"h 	c #7F7F7F",
"i 	c #989898",
"j 	c #A2A2A2",
"k 	c #A0A0A0",
"l 	c #A5A5A5",
"m 	c #BEBEBE",
"n 	c #9B9B9B",
"o 	c #AAAAAA",
"p 	c #A3A3A3",
"q 	c #C6C6C6",
"r 	c #868686",
"s 	c #919191",
"t 	c #6C6C6C",
"u 	c #797979",
"v 	c #767676",
"w 	c #8F8F8F",
"x 	c #999999",
"y 	c #888888",
"z 	c #8E8E8E",
"A 	c #858585",
"B 	c #838383",
"C 	c #525252",
"D 	c #696969",
"E 	c #BABABA",
"F 	c #727272",
"G 	c #616161",
"H 	c #9D9D9D",
"I 	c #555555",
"J 	c #4D4D4D",
"K 	c #646464",
"L 	c #7A7A7A",
"M 	c #898989",
"N 	c #404040",
"O 	c #C2C2C2",
"P 	c #090909",
"Q 	c #5A5A5A",
"R 	c #C8C8C8",
"S 	c #C3C3C3",
"T 	c #9C9C9C",
"U 	c #7C7C7C",
"V 	c #787878",
"W 	c #595959",
"X 	c #4E4E4E",
"Y 	c #3E3E3E",
"Z 	c #303030",
"` 	c #2A2A2A",
" .	c #2D2D2D",
"..	c #343434",
"+.	c #3A3A3A",
"@.	c #474747",
"#.	c #4C4C4C",
"$.	c #515151",
"%.	c #575757",
"&.	c #5C5C5C",
"*.	c #5B5B5B",
"=.	c #676767",
"-.	c #4A4A4A",
";.	c #414141",
">.	c #2E2E2E",
",.	c #3B3B3B",
"'.	c #969696",
").	c #8D8D8D",
"!.	c #C1C1C1",
"~.	c #6B6B6B",
"{.	c #777777",
"].	c #484848",
"^.	c #686868",
"/.	c #757575",
"(.	c #535353",
"_.	c #8B8B8B",
":.	c #747474",
"<.	c #666666",
"[.	c #494949",
"}.	c #9F9F9F",
"|.	c #878787",
"1.	c #8C8C8C",
"2.	c #707070",
"3.	c #929292",
"4.	c #363636",
"5.	c #252525",
"6.	c #656565",
"7.	c #7E7E7E",
"8.	c #6D6D6D",
"9.	c #7D7D7D",
"0.	c #848484",
"a.	c #C0C0C0",
"b.	c #545454",
"c.	c #383838",
"d.	c #C9C9C9",
"e.	c #5E5E5E",
"f.	c #6A6A6A",
"g.	c #444444",
"h.	c #131313",
"i.	c #626262",
"j.	c #3F3F3F",
"k.	c #606060",
"l.	c #262626",
"m.	c #424242",
"n.	c #282828",
"o.	c #3C3C3C",
"p.	c #454545",
"q.	c #505050",
"r.	c #C4C4C4",
"s.	c #CBCBCB",
"t.	c #242424",
"u.	c #2F2F2F",
"v.	c #323232",
"w.	c #6F6F6F",
"x.	c #5F5F5F",
"y.	c #2B2B2B",
"z.	c #353535",
"A.	c #121212",
"B.	c #6E6E6E",
"C.	c #202020",
"D.	c #222222",
"E.	c #010101",
"F.	c #373737",
"G.	c #585858",
"H.	c #292929",
"I.	c #0F0F0F",
"J.	c #C5C5C5",
"K.	c #333333",
". . . . . . . . . . . . . . . . . . . . . . . . . . . . . . . . . . . . . . . . . . . . . . . . . . . . . . . . . . . . . . . . . . . . . . . . . . . . . . . . . . . . . . . . . . . . . . ",
". . . . . . . . . . . . . . . . . . . . . . . . . . . . . . . . . . . . . . . . . . . . . . . . . . . . . . . . . . . . + @ # . . . . . . . . . . . . . . . . . . . . . . . . . . . . . . . ",
". . . . . . . . . . . . . . . . . . . . . . . . . . . . . . . . . . . . . . . . . . . . . . . . . . . . . . . . . $ % & * = - . . . . . . . . . . . . . . . . . . . . . . . . . . . . . . . ",
". . . . . . . . . . . . . . . . . . . . . . . . . . . . . . . . . . . . . . . . . . . . . . . . . . . . . . ; > , ' ) ! , ~ { . . . . . . . . . . . . . . . . . . . . . . . . . . . . . . . ",
". . . . . . . . . . . . . . . . . . . . . . . . . . . . . . . . . . . . . . . . . . . . . . . . . . . . ] ^ ' / ( _ : < ~ : [ . . . . . . . . . . . . . . . . . . . . . . . . . . . . . . . ",
". . . . . . . . . . . . . . . . . . . . . . . . . . . . . . . . . . . . . . . . . . . . . . . . . . . } | , = 1 _ 2 , 3 * > 4 . . . . . . . . . . . . . . . . . . . . . . . . . . . . . . . ",
". . . . . . . . . . . . . . . . . . . . . . . . . . . . . . . . . . . . . . . . . . . . . . . . . . 5 6 ( 7 8 2 * * 3 * 9 0 . . . . . . . . . . . . . . . . . . . . . . . . . . . . . . . . ",
". . . . . . . . . . . . . . . . . . . . . . . . . . . . . . . . . . a b c : . . . . . . . . . . . d e : _ = 7 7 * f * ( ( ( . . . . . . . . . . . . . . . . . . . . . . . . . . . . . . . . ",
". . . . . . . . . . . . . . . . . . . . . . . . . . . . . . c g h i j k c d h & . . . . . . . . . ; l 7 * = * * * : * 7 / m . . . . . . . . . . . . . . . . . . . . . . . . . . . . . . . . ",
". . . . . . . . . . . . . . . . . . . . . . . . . . . & n o ~ ( 7 / ( 3 $ = ( * p . . . . . . . = j * 3 : f * 7 $ / * 7 2 q . . . . . . . . . . . . . . . . . . . . . . . . . . . . . . . . ",
". . . . . . . . . . . . . . . . . . . . . . . . . ( p / _ 1 $ 3 ! ( * 1 , f 3 , + , o . . . . . r < $ 3 : ~ 7 ( * f * = / 4 . . . . . . . . . . . . . . . . . . . . . . . . . . . . . . . . ",
". . . . . . . . . . . . . . . . . . . . . . . 0 @ o * : s ^ t u v w x k = , p , k : f 7 = . . r y f ( $ = 1 ( f ( 1 7 / * / . . . . . . . . . . . . . . . . . . . . . . . . . . . . . . . . ",
". . . . . . . . . . . . . . . . . . . . . 0 z 2 1 $ % A z = 8 f 7 * = : $ ~ f = @ B = / , 7 C D 9 E ( 7 : $ = 7 = 3 f ( 1 9 . . . . . . . . . . . . . . . . . . . . . . . . . . . . . . . . ",
". . . . . . . . . . . . . . . . . . . . # j + 7 7 / 2 7 _ 3 $ * 3 / 1 _ ' , + ~ 7 / ( 7 + 7 g F ) 3 * 7 / $ f f 7 $ = ~ f 2 . . . . . . . . . . . . . . . . . . . . . . . . . . . . . . . . ",
". . . . . . . . . . . . . . . . . . . G : ~ : $ 7 ~ ~ 7 ( f 7 7 7 ~ : = ) ~ / f 1 : 3 , * 3 H I 3 , ~ $ = 1 7 = 1 ( : E o ( l . . . . . . . . . . . . . . . . . . . . . . . . . . . . . . . ",
". . . . . . . . . . . . . . . . . . ^ $ f ( ~ f ( 7 * o _ $ 7 ( 7 7 7 7 7 7 7 7 : $ : = ) _ , J _ 7 / $ 7 7 ) = ~ < ( 7 : * f o . . . . . . . . . . . . . . . . . . . . . . . . . . . . . . ",
". . . . . . . . . . . . . . . . K D L 2 p @ ( ~ $ , 4 $ 7 < ( _ 7 7 7 7 7 7 7 7 $ ) f ~ ( / p J / m ~ f * 2 / 7 1 E _ _ 1 ~ , ; @ . . . . . . . . . . . . . . . . . . . . . . . . . . . . . ",
". . . . . . . . . . . . . . . M @ 3 ~ _ 1 7 p z : 7 o : 3 1 f : 7 7 7 7 7 7 7 7 o 7 / 7 f + b N O 2 9 3 $ f m ) = * 2 $ 8 1 < 6 P Q @ R S T U V W X Y Z `  ...+.- @.#.X X $.%.&.*.V . . . . ",
". . . . . . . . . . . . . . + / f * / < 7 ~ 7 2 A * ( / * * / 1 7 7 7 7 7 7 7 7 $ f 7 * 1 _ v #.& + ! f < 3 ' =.-.;...>. .,.# h 7 / $ $ = * 9 y L B s H p k > 0 > '.; ).0 l + . . . . . . . ",
". . . . . . . . . . . . . . o _ $ / ~ _ ~ ( f $ A B !., $ * / ~ 7 7 7 7 7 7 7 7 ) 2 ~ * _ , ~.).r 1 f < 8 $ / m * < 3 ) _ ) f E $ + _ f p 0 n 2 3 $ ( , , : 7 ~ , = $ * 2 n 6 h u ] {.{.g . ",
". . . . . . . . . . . . . | : : _ : f $ ( ~ ( ~ : ].8 = _ 3 f / 7 7 7 7 7 7 7 7 / / ) < ~ _ A n ^.2 E / 7 * 7 $ E ( _ ~ * + 9 A /.{ (.{.z 6 j 7 f f f f f ( = : 7 = / , / ( ( ( ( . . . . . ",
". . . . . . . . . . . . _.~ 8 , , 1 7 ( o f j 4 _ $.x + ( < 7 3 7 7 7 7 7 7 7 7 * E + 2 * ) j d s > ( m : : 8 : / ~ , H :.<.F [.^.}.}.= E , l U |.s a $ . . . . . . . . . . . . . . . . . . ",
". . . . . . . . . . . . V & = ~ ( 4 , * ) = {.1.) h I 3 7 $ 3 = 7 7 7 7 7 7 7 7 3 / o E 1 < !.s /.i $ _ f _ * y b x g i [ 2.3.W 4.% | y . . . . . . . . . . . . . . . . . . . . . . . . . . ",
". . . . . . . . . . . . h & f 1 7 7 7 7 7 7 7 7 + 7 5.o @ 1 f f $ ~ = i ; ' $ 7 / ) = 7 * = _ $ ; #.t /.> e 6.[ z ( , 3 ) 2 7.8.5.] / e . . . . . . . . . . . . . . . . . . . . . . . . . . ",
". . . . . . . . . . . 5 w o / 1 7 7 7 7 7 7 7 7 & 3 ;.2 '.; s ' 9 w r ' * ' ( $ * f E 3 f : + * E a | u h A %.r f f m ( = f + / <.9.f T . . . . . . . . . . . . . . . . . . . . . . . . . . ",
". . . . . . . . . . . ^.0 & 2 3 7 7 7 7 7 7 7 7 ) ~ /.U 1 2 ~ $ / 8 8 0.U 7 + , ( _ ( < + ( = 7 f 2.@._.2.].D 3 _ a.a f 8 7 = a.8 o m = q . . . . . . . . . . . . . . . . . . . . . . . . . ",
". . . . . . . . . . v *.U a b p 7 7 7 7 7 7 7 7 3 7 : b.1 * 1 l $ A ^.H E < $ ~ O < 3 1 & ~ 7 $ 7 $ c.B ~.< [.3 , o 4 3 < + ( : $ : , 7 2 d.. . . . . . . . . . . . . . . . . . . . . . . . ",
". . . . . . . . . ^ 9 7 &.A ! & 7 7 7 7 7 7 7 7 2 _ * F 1 = ' b B i S _ o 1 : $ ' $ <.H ) , a.( E f o (.b q 2.) ~ E 6 e.e V _ 1 f 1 * 1 / l 1 m . . . . . . . . . . . . . . . . . . . . . . ",
". . . . . . . . ; , E + f.; & ' 7 7 7 7 7 7 7 7 = + x ; ) b 3 ( ( w d < !.f $ , + [ {.0 > 3 & ~ 2 E d.l g.= @ % / 7 ~ |...h.f = 7 : ~ : + 1 % ' u . m $ . . . . . . . . . . . . . . . . . . ",
". . . . . . . T ~ j ~ _ ^ ~ M 3 7 7 7 7 7 7 7 7 : 1 B V /.{.7 ) 1 ' = : / ~ f 3 & {.f./._.A L a ) , ' !.> 1.) _ _ & 8 a.= # Z * * 1 $ / f ( '.H D g.< . . . . . . . . . . . . . . . . . . . ",
". . . . . . 3.& , 8 * 2 = {.: * 7 7 7 7 7 7 7 7 3 $ i.*.j.( 3 ( ( 7 $ 1 = : ~ f _ k.l.i.4 ( + '.& m ( : + o H 1 ( _.i = 8 8 n m.w ~ : ! 7 / $ ~ ^.n.. . . . . . . . . . . . . . . . . . . . ",
". . . . . w a $ , + , 7 1 ^._ 9 : E * , ~ / 7 ~ * = f.5.{ E 3 _ $ < _ / 1 / 7 _ V X h L o.~.~ E * 7 * 1 : E ' E = * ^ 0 ' 3 f ) =.- / _ ~ ( l @ e > . . . . . . . . . . . . . . . . . . . . ",
". . . . y & E , 7 ( 7 $ $ _.|.H f $ : 7 7 _ * < 3 * t p.&.& ) ' 7 E / * * * a.q.^ ~ ! @ r.6 4.y ) ( f _ , 7 s., E , b :.D /.3 : 3 k t.B * 7 @ ; / . . . . . . . . . . . . . . . . . . . . . ",
". . . 7.j & + = f = 1 f f O # / 7./ $ + / < * 3 ) : L _./.w d S f / 7 _ : _ %.6._ 8 / 8 ~ * a.A L , $ ( j 6.5 5 i.k * u.~.. . o f 2 * v.- a.3 = w . . . . . . . . . . . . . . . . . . . . . ",
". . B i ' _ ~ f ( 7 * : f ! 0.T k.f O 2 ~ E _ n & 4 > y 3.; c q.L 7 a.= 8 6.o.$ f $ $ = ( / 2 ~ = 9 3 * 2 1 $ 8 8 9.I |.^.. . . 9 4 ( _ v X 7 < p . . . . . . . . . . . . . . . . . . . . . ",
". . ^ = ! o , + $ = = f ( 9 7 e.|.i.= ( 7 e s ) _ 3 A |.M |.] 8 8 1 , ( W <.a.: $ < ~ f f E * m ( x _ : ~ ~ l U p.=.0 b % . . . . U f ~ 0 l k D . . . . . . . . . . . . . . . . . . . . . . ",
". q.f _ : : 1 ( 7 7 $ ~ / S A - E 4.m ~ 1 1 U =.l j ~.*.w.|.s ^.V 3.6 W ( * ~ 7 2 4 * * 1 * 7 }.|.u o z x.y.B 1.e 0.% < = & . . . . |.l . . 8.. . . . . . . . . . . . . . . . . . . . . . . ",
". |.= f 1 f $ : = ~ _ * 7 o k.c.$ z.3 * , + : ( a O . . . & :.r 6 B A ; ~ f ~ ~ _ , ( * ~ ).b.&.U | r e . 0.A z r $ ) _ = z . . . . . . . . . . . . . . . . . . . . . . . . . . . . . . . . ",
"t ~ _ f 7 = ) f $ / $ = + +.M A.0.&.$ ) $ : $ < = ~ . . . . . . ).8.D t $ _ ( 7 3 = $ < - j.. . . . . . . . 9 {.w ~ : f 7 2 = . . . . . . . . . . . . . . . . . . . . . . . . . . . . . . . ",
"B.f * f ~ = 3 ( * 2 + < >.#.i . ^.> E = * ~ , $ = . . . . . . . . . x.^ 1 8 ( : ( f w d . . . . . . . . . . . N 7 ~ ~ ~ : ~ w . . . . . . . . . . . . . . . . . . . . . . . . . . . . . . . ",
"<.4 1 ~ = 7 = ~ ) f E G 4.. . . ] 2 < ) 3 = f $ o . . . . . . . . . h d 1 = & H | z . . . . . . . . . . . . . =.: 8 2 / / f i . . . . . . . . . . . . . . . . . . . . . . . . . . . . . . . ",
"2.1 2 = E ~ ~ 2 * , ) u.. . . . x._ ~ ~ o 8 3 & ( . . . . . . . . . b g ~ ' a _.A < . . . . . . . . . . . . . < 0.$ = ! ~ f ' . . . . . . . . . . . . . . . . . . . . . . . . . . . . . . . ",
"i.~ & ! : 9 ~ 1 7 + l } . . . . |./ $ * / 3 j $ . . . . . . . . . . n _.1 = 9 w a . . . . . . . . . . . . . . .  .$ o < 1 7 7 . . . . . . . . . . . . . . . . . . . . . . . . . . . . . . . ",
"<.4 _./ / ! = : ~ = 8 N . . . l * f ( , 2 k 3.j . . . . . . . . . . a k 3 3 ( & 3 ! . . . . . . . . . . . . . . C.f !.E o = _ a . . . . . . . . . . . . . . . . . . . . . . . . . . . . . . ",
"] = 2 ).7 f / _ , 1 ( N . . . ' 7 1 '.9.=.i.3.H . . . . . . . . . . = f 7 7 7 ) = W . . . . . . . . . . . . . . [.& * ( p : > p.. . . . . . . . . . . . . . . . . . . . . . . . . . . . . . ",
". /.1 r f ~ 3 2 * ) ( { . . . b & $ f _ 1.d p = '.. . . . . . . . . E 7 * / * 1 n D./.. . . . . . . . . . . . . { a._ : 4 i Y E.. . . . . . . . . . . . . . . . . . . . . . . . . . . . . . ",
". p.~ ~ 6 _ ~ ( 7 ( ~ ).F.. . 1.$ _ 1 a /.9 E $ 6 }.. . . . . . . . 4 / E ( _ / 3 A ^.n . . . . . . . . . . . . c o ~ 9 7.B e |.b . . . . . . . . . . . . . . . . . . . . . . . . . . . . . ",
". . g 3 c , * * f $ $ T B.. . X * $ , * 7 _ = 1 ' f.. . . . . . . . , 1 = 9 f f 7 k.#.% . . . . . . . . . . . . 4 < $ $ / * ) ( : . . . . . . . . . . . . . . . . . . . . . . . . . . . . . ",
". . f.& f ; $ , ~ 1 / l V T . . G.7 + _ : 3 9 * t m.a . . . . . . . @ 7 M =.!.|.n 3 {.. . . . . . . . . . . . . . C : ( 4 _ : p f.A . . . . . . . . . . . . . . . . . . . . . . . . . . . . ",
". . . F 2 2 p 7 o ) : = * _ b 0.. . 1.{.D 3.*.1.n #.. . . . . . . . . H.!.` p % I.L ) . . . . . . . . . . . . . . . v ~.9.> & H [.<.. . . . . . . . . . . . . . . . . . . . . . . . . . . . ",
". . . . b @ : : $ f $ ~ : / f ( w . . . . . ' 2 . . . . . . . . . . . . . . . . . . . . . . . . . . . . . . . . . . . . . . . . . . . . . . . . . . . . . . . . . . . . . . . . . . . . . . ",
". . . . . < l : + @ , _ _ $ ) = : 1 o * . . . . . . . . . . . . . . . . . . . . . . . . . . . . . . . . . . . . . . . . . . . . . . . . . . . . . . . . . . . . . . . . . . . . . . . . . . ",
". . . . . . J.3 ' ~ _ , 2 ( * : ~ & 3 f ~ , _ . . . . . . . . . . . . . . . . . . . . . . . . . . . . . . . . . . . . . . . . . . . . . . . . . . . . . . . . . . . . . . . . . . . . . . . ",
". . . . . . . . + 7 o $ ) $ : 1 $ 1 < E , a R o k 7.| ; . . . . . . . . . . . . . . . . . . . . . . . . . . . . . . . . . . . . . . . . . . . . . . . . . . . . . . . . . . . . . . . . . . ",
". . . . . . . . . . = = @ ( $ = = * = f f E / ( 7 ( _ l v t D . . . . . . . . . . . . . . . . . . . . . . . . . . . . . . . . . . . . . . . . . . . . . . . . . . . . . . . . . . . . . . . ",
". . . . . . . . . . . . 2 0 H ( o , f * / ' , 3 ~ _ $ / 7 _ 2 c =.z . . . . . . . . . . . . . . . . . . . . . . . . . . . . . . . . . . . . . . . . . . . . . . . . . . . . . . . . . . . . ",
". . . . . . . . . . . . . . . . R m : b :.J K.H.X ~.e = 1 f , , * & b A f . . . . . . . . . . . . . . . . . . . . . . . . . . . . . . . . . . . . . . . . . . . . . . . . . . . . . . . . . ",
". . . . . . . . . . . . . . . . . . . . . . . . 4 1 < x _.r 1.'.o _ , / > 6 . . . . . . . . . . . . . . . . . . . . . . . . . . . . . . . . . . . . . . . . . . . . . . . . . . . . . . . . ",
". . . . . . . . . . . . . . . . . . . . . . . . . . . . . . . . f > x 3.w U t > . . . . . . . . . . . . . . . . . . . . . . . . . . . . . . . . . . . . . . . . . . . . . . . . . . . . . . "};
