/* XPM */
static char * house_xpm[] = {
"150 75 10 1",
".	c #000000",
"+	c #FFFFFF",
"@	c #C6681E",
"#	c #780000",
"$	c #2B2B2B",
"%	c #E0E60B",
"&	c #C2C2C2",
"*	c #D1D60A",
"=	c #ABABAB",
"-	c #B5A642",
"......................................................................................................................................................",
"......................................................................+++++++++.......................................................................",
"......................................................................+++++++++.......................................................................",
".......................................................................@@@@@@@........................................................................",
".......................................................................@@@@@@@........................................................................",
".......................................................................@@@@@@@........................................................................",
".......................................................................@@@@@@@........................................................................",
".......................................................................@@@@@@@........................................................................",
".......................................................................@@@@@@@........................................................................",
".......................................................................@@@@@@@........................................................................",
".......................................................................@@@@@@@........................................................................",
"................#$#####$#####$#####$#####$#####$#####$#####$#####$#####$#####$#####$#####$#######.....................................................",
"...............##$#####$#####$#####$#####$#####$#####$#####$#####$#####$#####$#####$#####$########....................................................",
"..............$$$$$$$$$$$$$$$$$$$$$$$$$$$$$$$$$$$$$$$$$$$$$$$$$$$$$$$$$$$$$$$$$$$$$$$$$$$$$$$$$$$$$...................................................",
".............#$#####$#####$#####$#####$#####$#####$#####$#####$#####$#####$#####$#####$#####$#####$#..................................................",
"............##$#####$#####$#####$#####$#####$#####$#####$#####$#####$#####$#####$#####$#####$#####$##.................................................",
"...........$$$$$$$$$$$$$$$$$$$$$$$$$$$$$$$$$$$$$$$$$$$$$$$$$$$$$$$$$$$$$$$$$$$$$$$$$$$$$$$$$$$$$$$$$$$................................................",
"..........#$#####$#####$#####$#####$#####$#####$#####$#####$#####$#####$#####$#####$#####$#####$#####$#...............................................",
".........##$#####$#####$#####$#####$#####$#####$#####$#####$#####$#####$#####$#####$#####$#####$#####$##..............................................",
"........$$$$$$$$$$$$$$$$$$$$$$$$$$$$$$$$$$$$$$$$$$$$$$$$$$$$$$$$$$$$$$$$$$$$$$$$$$$$$$$$$$$$$$$$$$$$$$$$$.............................................",
".......#$#####$#####$#####$#####$#####$#####$#####$#####$#####$#####$#####$#####$#####$#####$#####$#####$#............................................",
"......##$#####$#####$#####$#####$#####$#####$#####$#####$#####$#####$#####$#####$#####$#####$#####$#####$##...........................................",
".....$$$$$$$$$$$$$$$$$$$$$$$$$$$$$$$$$$$$$$$$$$$$$$$$$$$$$$$$$$$$$$$$$$$$$$$$$$$$$$$$$$$$$$$$$$$$$$$$$$$$$$$..........................................",
"....#$#####$#####$#####$#####$#####$#####$#####$#####$#####$#####$#####$#####$#####$#####$#####$#####$#####$#.........................................",
"...##$#####$#####$#####$#####$#####$#####$#####$#####$#####$#####$#####$#####$#####$#####$#####$#####$#####$##........................................",
"..$$$$$$$$$$$$$$$$$$$$$$$$$$$$$$$$$$$$$$$$$$$$$$$$$$$$$$$$$$$$$$$$$$$$$$$$$$$$$$$$$$$$$$$$$$$$$$$$$$$$$$$$$$$$$.......................................",
".#$#####$#####$#####$#####$#####$#####$#####$#####$#####$#####$#####$#####$#####$#####$#####$#####$#####$#####$#......................................",
"##$#####$#####$#####$#####$#####$#####$#####$#####$#####$#####$#####$#####$#####$#####$#####$#####$#####$#####$##.....................................",
"...%%%%%%%%%%%%%%%%%%%%%%%%%%%%%%%%%%%%%%%%%%%%%%%%%%%%%%%%%%%%%%%%%%%%%%%%%%%%%%%%%%%%%%%%%%%%%%%%%%%%%%%%%%%........................................",
"...%%%%%%%%%%%%%%%%%%%%%%%%%%%%%%%%%%%%%%%%%%%%%%%%%%%%%%%%%%%%%%%%%%%%%%%%%%%%%%%%%%%%%%%%%%%%%%%%%%%%%%%%%%%........................................",
"...%%%%%%%%%%%%%%%%%%%%%%%%%%%%%%%%%%%%%%%%%%%%%%%%%%%%%%%%%%%%%%%%%%%%%%%%%%%%%%%%%%%%%%%%%%%%%%%%%%%%%%%%%%%........................................",
"...%%%%%%%%%%%%%%%%++++++++++++%%%%%%%%%++++++++++++%%%%%%%%%++++++++++++%%%%%%%%%++++++++++++%%%%%%%%%%%%%%%%........................................",
"...%%%%%%%%%%%%%%%%+&&&&&&&&&&+%%%%%%%%%+&&&&&&&&&&+%%%%%%%%%+&&&&&&&&&&+%%%%%%%%%+&&&&&&&&&&+%%%%%%%%%%%%%%%%........................................",
"...****************+&&&&&&&&&&+*********+&&&&&&&&&&+*********+&&&&&&&&&&+*********+&&&&&&&&&&+****************........................................",
"...%%%%%%%%%%%%%%%%+&&&&&&&&&&+%%%%%%%%%+&&&&&&&&&&+%%%%%%%%%+&&&&&&&&&&+%%%%%%%%%+&&&&&&&&&&+%%%%%%%%%%%%%%%%........................................",
"...%%%%%%%%%%%%%%%%+&&&&&&&&&&+%%%%%%%%%+&&&&&&&&&&+%%%%%%%%%+&&&&&&&&&&+%%%%%%%%%+&&&&&&&&&&+%%%%%%%%%%%%%%%%........................................",
"...%%%%%%%%%%%%%%%%+&&&&&&&&&&+%%%%%%%%%+&&&&&&&&&&+%%%%%%%%%+&&&&&&&&&&+%%%%%%%%%+&&&&&&&&&&+%%%%%%%%%%%%%%%%........................................",
"...%%%%%%%%%%%%%%%%+&&&&&&&&&&+%%%%%%%%%+&&&&&&&&&&+%%%%%%%%%+&&&&&&&&&&+%%%%%%%%%+&&&&&&&&&&+%%%%%%%%%%%%%%%%........................................",
"...%%%%%%%%%%%%%%%%+&&&&&&&&&&+%%%%%%%%%+&&&&&&&&&&+%%%%%%%%%+&&&&&&&&&&+%%%%%%%%%+&&&&&&&&&&+%%%%%%%%%%%%%%%%####$#####$#####$#####$#####$#..........",
"...****************++++++++++++*********++++++++++++*********++++++++++++*********++++++++++++****************####$#####$#####$#####$#####$##.........",
"...%%%%%%%%%%%%%%%%+&&&&&&&&&&+%%%%%%%%%+&&&&&&&&&&+%%%%%%%%%+&&&&&&&&&&+%%%%%%%%%+&&&&&&&&&&+%%%%%%%%%%%%%%%%$$$$$$$$$$$$$$$$$$$$$$$$$$$$$$$$........",
"...%%%%%%%%%%%%%%%%+&&&&&&&&&&+%%%%%%%%%+&&&&&&&&&&+%%%%%%%%%+&&&&&&&&&&+%%%%%%%%%+&&&&&&&&&&+%%%%%%%%%%%%%%%%#$#####$#####$#####$#####$#####$#.......",
"...%%%%%%%%%%%%%%%%+&&&&&&&&&&+%%%%%%%%%+&&&&&&&&&&+%%%%%%%%%+&&&&&&&&&&+%%%%%%%%%+&&&&&&&&&&+%%%%%%%%%%%%%%%%#$#####$#####$#####$#####$#####$##......",
"...%%%%%%%%%%%%%%%%+&&&&&&&&&&+%%%%%%%%%+&&&&&&&&&&+%%%%%%%%%+&&&&&&&&&&+%%%%%%%%%+&&&&&&&&&&+%%%%%%%%%%%%%%%%$$$$$$$$$$$$$$$$$$$$$$$$$$$$$$$$$$$.....",
"...%%%%%%%%%%%%%%%%+&&&&&&&&&&+%%%%%%%%%+&&&&&&&&&&+%%%%%%%%%+&&&&&&&&&&+%%%%%%%%%+&&&&&&&&&&+%%%%%%%%%%%%%%%%####$#####$#####$#####$#####$#####$#....",
"...****************+&&&&&&&&&&+*********+&&&&&&&&&&+*********+&&&&&&&&&&+*********+&&&&&&&&&&+****************####$#####$#####$#####$#####$#####$##...",
"...%%%%%%%%%%%%%%%%+&&&&&&&&&&+%%%%%%%%%+&&&&&&&&&&+%%%%%%%%%+&&&&&&&&&&+%%%%%%%%%+&&&&&&&&&&+%%%%%%%%%%%%%%%%$$$$$$$$$$$$$$$$$$$$$$$$$$$$$$$$$$$$$$..",
"...%%%%%%%%%%%%%%%%++++++++++++%%%%%%%%%++++++++++++%%%%%%%%%++++++++++++%%%%%%%%%++++++++++++%%%%%%%%%%%%%%%%#$#####$#####$#####$#####$#####$#####$#.",
"...%%%%%%%%%%%%%%%%%%%%%%%%%%%%%%%%%%%%%%%%%%%%%%%%%%%%%%%%%%%%%%%%%%%%%%%%%%%%%%%%%%%%%%%%%%%%%%%%%%%%%%%%%%%#$#####$#####$#####$#####$#####$#####$##",
"...%%%%%%%%%%%%%%%%%%%%%%%%%%%%%%%%%%%%%%%%%%%%%%%%%%%%%%%%%%%%%%%%%%%%%%%%%%%%%%%%%%%%%%%%%%%%%%%%%%%%%%%%%%%*%%%%%%%%%%%%%%%%%%%%%%%%%%%%%%%%%%%%...",
"...%%%%%%%%%%%%%%%%%%%%%%%%%%%%%%%%%%%%%%%%%%%%%%%%%%%%%%%%%%%%%%%%%%%%%%%%%%%%%%%%%%%%%%%%%%%%%%%%%%%%%%%%%%%*%%%%%%%%%%%%%%%%%%%%%%%%%%%%%%%%%%%%...",
"...************************************************************************************************************%%%%%%%%%%%%%%%%%%%%%%%%%%%%%%%%%%%%...",
"...%%%%%%%%%%%%%%%%%%%%%%%%%%%%%%%%%%%%%%%%%%%................%%%%%%%%%%%%%%%%%%%%%%%%%%%%%%%%%%%%%%%%%%%%%%%%*%%%%%%%%%%%%%%%%%%%%%%%%%%%%%%%%%%%%...",
"...%%%%%%%%%%%%%%%%%%%%%%%%%%%%%%%%%%%%%%%%%%%.++++++++++++++.%%%%%%%%%%%%%%%%%%%%%%%%%%%%%%%%%%%%%%%%%%%%%%%%*%%%%%%%%%%%%%%%%%%%%%%%%%%%%%%%%%%%%...",
"...%%%%%++++++++++++++%%%%%++++++++++++++%%%%%.++++++++++++++.%%%%%%%+++++++++++++++++++++++++++++++++++%%%%%%*%%%%............................%%%%...",
"...%%%%%+&&&&&&&&&&&&+%%%%%+&&&&&&&&&&&&+%%%%%.++&&&&&&&&&&++.%%%%%%%+&&&&&&&&&&&&&&&&&&&&&&&&&&&&&&&&&+%%%%%%*%%%%.++++++++++++++++++++++++++.%%%%...",
"...%%%%%+&&&&&&&&&&&&+%%%%%+&&&&&&&&&&&&+%%%%%.++&&&&&&&&&&++.%%%%%%%+&&&&&&&&&&&&&&&&&&&&&&&&&&&&&&&&&+%%%%%%*%%%%.++++++++++++++++++++++++++.%%%%...",
"...*****+&&&&&&&&&&&&+*****+&&&&&&&&&&&&+*****.++&&&&&&&&&&++.*******+&&&&&&&&&&&&&&&&&&&&&&&&&&&&&&&&&+*******%%%%.++++++++++++++++++++++++++.%%%%...",
"...%%%%%+&&&&&&&&&&&&+%%%%%+&&&&&&&&&&&&+%%%%%.++&&&&&&&&&&++.%%%%%%%+&&&&&&&&&&&&&&&&&&&&&&&&&&&&&&&&&+%%%%%%*%%%%.++++++++++++++++++++++++++.%%%%...",
"...%%%%%+&&&&&&&&&&&&+%%%%%+&&&&&&&&&&&&+%%%%%.++&&&&&&&&&&++.%%%%%%%+&&&&&&&&&&&&&&&&&&&&&&&&&&&&&&&&&+%%%%%%*%%%%.==========================.%%%%...",
"...%%%%%+&&&&&&&&&&&&+%%%%%+&&&&&&&&&&&&+%%%%%.++&&&&&&&&&&++.%%%%%%%+&&&&&&&&&&&&&&&&&&&&&&&&&&&&&&&&&+%%%%%%*%%%%.++++++++++++++++++++++++++.%%%%...",
"...%%%%%+&&&&&&&&&&&&+%%%%%+&&&&&&&&&&&&+%%%%%.++&&&&&&&&&&++.%%%%%%%+&&&&&&&&&&&&&&&&&&&&&&&&&&&&&&&&&+%%%%%%*%%%%.++++++++++++++++++++++++++.%%%%...",
"...%%%%%+&&&&&&&&&&&&+%%%%%+&&&&&&&&&&&&+%%%%%.++&&&&&&&&&&++.%%%%%%%+&&&&&&&&&&&&&&&&&&&&&&&&&&&&&&&&&+%%%%%%*%%%%.++++++++++++++++++++++++++.%%%%...",
"...*****+&&&&&&&&&&&&+*****+&&&&&&&&&&&&+*****.++&&&&&&&&&&++.*******+&&&&&&&&&&&&&&&&&&&&&&&&&&&&&&&&&+*******%%%%.++++++++++++++++++++++++++.%%%%...",
"...%%%%%+&&&&&&&&&&&&+%%%%%+&&&&&&&&&&&&+%%%%%.++++++++++++++.%%%%%%%+&&&&&&&&&&&&&&&&&&&&&&&&&&&&&&&&&+%%%%%%*%%%%.==========================.%%%%...",
"...%%%%%+&&&&&&&&&&&&+%%%%%+&&&&&&&&&&&&+%%%%%.++++++++++++++.%%%%%%%+&&&&&&&&&&&&&&&&&&&&&&&&&&&&&&&&&+%%%%%%*%%%%.++++++++++++++++++++++++++.%%%%...",
"...%%%%%+&&&&&&&&&&&&+%%%%%+&&&&&&&&&&&&+%%%%%.++++++++----++.%%%%%%%+&&&&&&&&&&&&&&&&&&&&&&&&&&&&&&&&&+%%%%%%*%%%%.++++++++++++++++++++++++++.%%%%...",
"...%%%%%+&&&&&&&&&&&&+%%%%%+&&&&&&&&&&&&+%%%%%.++++++++++--++.%%%%%%%+&&&&&&&&&&&&&&&&&&&&&&&&&&&&&&&&&+%%%%%%*%%%%.++++++++++++..++++++++++++.%%%%...",
"...%%%%%+&&&&&&&&&&&&+%%%%%+&&&&&&&&&&&&+%%%%%.++++++++++++++.%%%%%%%+&&&&&&&&&&&&&&&&&&&&&&&&&&&&&&&&&+%%%%%%*%%%%.++++++++++++++++++++++++++.%%%%...",
"...*****++++++++++++++*****++++++++++++++*****.++++++++++++++.*******+++++++++++++++++++++++++++++++++++*******%%%%.==========================.%%%%...",
"...%%%%%%%%%%%%%%%%%%%%%%%%%%%%%%%%%%%%%%%%%%%.++++++++++++++.%%%%%%%%%%%%%%%%%%%%%%%%%%%%%%%%%%%%%%%%%%%%%%%%*%%%%.++++++++++++++++++++++++++.%%%%...",
"...%%%%%%%%%%%%%%%%%%%%%%%%%%%%%%%%%%%%%%%%%%%.++++++++++++++.%%%%%%%%%%%%%%%%%%%%%%%%%%%%%%%%%%%%%%%%%%%%%%%%*%%%%.++++++++++++++++++++++++++.%%%%...",
"...%%%%%%%%%%%%%%%%%%%%%%%%%%%%%%%%%%%%%%%%%%%.++++++++++++++.%%%%%%%%%%%%%%%%%%%%%%%%%%%%%%%%%%%%%%%%%%%%%%%%*%%%%.++++++++++++++++++++++++++.%%%%...",
"...%%%%%%%%%%%%%%%%%%%%%%%%%%%%%%%%%%%%%%%%%%%.++++++++++++++.%%%%%%%%%%%%%%%%%%%%%%%%%%%%%%%%%%%%%%%%%%%%%%%%*%%%%.++++++++++++++++++++++++++.%%%%...",
"...%%%%%%%%%%%%%%%%%%%%%%%%%%%%%%%%%%%%%%%%%%%.++++++++++++++.%%%%%%%%%%%%%%%%%%%%%%%%%%%%%%%%%%%%%%%%%%%%%%%%*%%%%.==========================.%%%%..."};
