/* XPM */
static char * misc_xpm[] = {
"110 132 16 1",
" 	c None",
".	c #FE00FE",
"+	c #F8D442",
"@	c #F0FB3E",
"#	c #FFFFFF",
"$	c #46CD00",
"%	c #A25F1E",
"&	c #000000",
"*	c #0000FF",
"=	c #0056FD",
"-	c #46FF00",
";	c #BCBCBC",
">	c #FF0000",
",	c #2F4F4F",
"'	c #B07E10",
")	c #D6D6B5",
".......................................+......................................................................",
".....+++..............................++++....................................................................",
"....+@@@+............................+++++....................................................................",
".....+@@@+...........................+++++...........................++++.....................................",
".....+@@@+...........................+++++..........................+++++.....................................",
"......+@@+....++++..................++++++..........................+++++.....................................",
"......+@@@+..+@@@+..................+++++..........................++++++...........................+.........",
"......+@@@+..+@@+...................+++++..........................+++++...........................++++.......",
".......+@@+.+@@@+.++++++............+++++.........................++++++..........................++++++......",
".......+++++@@@+.+@@@@@+...........++++++........................++++++..........................+++++++......",
"...........+@@+..+@@@@@+...........+++++.........................++++++.........................++++++++......",
"...++++.+++@@@+..++++++...++.......+++++........................++++++.........................++++++++.......",
"...+@@+.+@@@++...........+@@+......+++++........................+++++.........................++++++++........",
"..+@@@+.+@@+.......+++...+@@+.....+++++........................++++++........................++++++++.........",
"..+@@+..+@@@+++++++@@@+..+@@+.....+++++.......................++++++........................++++++++..........",
"..+@@+...+@@@@@@@@@@@@+..+@@+.....+++++.......................++++++.......................++++++++...........",
"..+@+....+@@@@@@@@@@@++..+@@+.....+++++......................++++++.......................++++++++............",
"..+@+.....+++++++++++.....+@+....+++++.......................++++++......................++++++++.............",
"..++...+++.................++....+++++......................++++++......................++++++++..............",
".......+@@++......................++++.......................++++......................++++++++...............",
".......+@@@@+....................#+++.......................+++++.......................++++++................",
"........+@@@@++.++++.............###........................##+........................#+++++.................",
".........+@@@@@+@@@+.............###.......................###........................###+++..................",
"........+@@@@@@@@@@+.............###......................####.......................####.....................",
".......+@@@@@@@@@@+.............####......................###.......................####......................",
".....++@@@@@@++@@@+.............###......................####....................+.####.......................",
".....+@@@@+++..+@@+.............+##.....................+++#....................++++##........................",
".....+@@++.....+@@+............++++....................+++++.....................++++.........................",
"......++.......++++...........+++++.....................++++......................+++.........................",
".................................++.......................++.......................++.........................",
"$$$$$$$$$$$$$$$.....%%......................................................................###############...",
"$#############$.....%%......................................................................#&&&&&&&&&&&&&#...",
"$#&&&&###&&&##$.............................................................................#&&&&&&&&&&&&&#...",
"$#&###&#&###&#$.............................................................................#&&&&&&&&&&&&&#...",
"$#&&&&##&#####$.............................................................................#&&&&&&&&&&&&&#...",
"$#&#####&###&#$.............................................................................#&&&&&&&&&&&&&#...",
"$#&######&&&##$.............................................................................#&&&&&&&&&&&&&#...",
"$#############$.............................................................................#&&&&&&&&&&&&&#...",
"$###*******###$...............................................................===...........#&&&&&&&&&&&&&#...",
"$###*&&&&&*###$...............................................................===...........#&&&&&&&&&&&&&#...",
"$###*&*&&&*###$...............................................................===...........###############...",
"$###*&&&*&*###$................................................................$..................###.........",
"$###*&**&&*###$..............................................................$$$$$..........###############...",
"$###*&&&&&*###$..............................................................$$$$$..........#-#-#;;;>;;;;;#...",
"$###***$***###$..............................................................$$$$$..........#####;;;;;;;;;#...",
"$######$######$..............................................................$$$$$..........#####;&&&;&&&;#...",
"$####$#$#$####$..............................................................$$$$$..........#;;##;;;;;;;;;#...",
"$#####$$$#####$..............................................................$$$$$..........#;;############...",
"$######$######$..............................................................$$$$$..........###############...",
"$$$$$$$$$$$$$$$...........................................===................$$$$$..............$.$$$.$.......",
"..........................................................===.............$...$$$...$............$$$$$........",
"..........................................................===..............$..$$$..$..........$...$$$...$.....",
"...........................................................$................$.$$$.$...........$...$$$...$.....",
"......................................===..................$.................$$$$$.............$$$$$$$$$......",
"......................................===.................$$$.................$$$.................$$$.........",
"......................................===...............$.$$$.$...............$$$............$....$$$....$....",
".......................................$.................$$$$$................$$$.............$...$$$...$.....",
"......................................$$$.................$$$.................$$$..............$$$$$$$$$......",
"......................................$$$.................$$$.................$$$...........$$$.$$$$$$$.$$$...",
"......................................$$$.................$$$.................$$$.................$$$.........",
"...........................................................................................................,,,",
"........................................................................................................,,,,,,",
"....................................................................................................,,,,,,,,,,",
".........................''''''',,,,,,,,,,,,,,,,,,,,,,,,,,,,,,,,,,,,,,,,,,,,,,,,,,,,,,,,,,,,,,,,,,,,,,,,,,,,,,",
"''''''''''''''''''''''''''''''''))),,),,),),)),,))),))),,,)),,,),,),),,)),),),),),,,)),,))),))),))),,,,,,,,,,,",
"'''''''''''''''''''''''''''''''',,),),),))),),),,),,),,,,,),),),),),),),,,),),))),,,,,),),),),),),),,,,,,,,,,,",
"'''''''''''''''''''''''''''''''',),,),),),),)),,,),,)),,,,)),,))),,),,))),),),))),,,,),,),),),),),),,,,,,,,,,,",
"''''''''''''''''''''''''''''''''),,,),),),),),),,),,),,,,,),),),),,),,),),),),))),,,),,,),),),),),),,,,,,,,,,,",
"''''''''''''''''''''''''''''''''))),,),,),),)),,))),))),,,),),),),,),,,),,))),),),,,))),))),))),))),,,,,,,,,,,",
"'''**''>>''>>''>>''''''''''''''',,,,,,,,,,,,,,,,,,,,,,,,,,,,,,,,,,,,,,,,,,,,,,,,,,,,,,,,,,,,,,,,,,,,,,,,,,,,,,",
"'''**''>>''>>''>>'''''''''''''''''''''''&&&&&&&&&&''''''''''''''''''''''''..........................,,,,,,,,,,",
"''''''''''''''''''''''''''''''''''''''''&&&&&&&&&&'''''''''''''''''''''''...............................,,,,,,",
"''''''''''''''''''''''''''''''''''''''''&&&&&&&&&&''''''''''''''''''''''...................................,,,",
"'''''''''''''''''''''....'''''''&..&...&......................................................................",
"'''''''''''''''''.........'''''.&..&...&......................................................................",
"'''''''''''''..............'''..&...&..&......................................................................",
"'''''''''...................'....&....&.......................................................................",
"'''''.............................&&&&........................................................................",
"...........................................................................................................,,,",
"........................................................................................................,,,,,,",
"....................................................................................................,,,,,,,,,,",
".........................''''''',,,,,,,,,,,,,,,,,,,,,,,,,,,,,,,,,,,,,,,,,,,,,,,,,,,,,,,,,,,,,,,,,,,,,,,,,,,,,,",
"''''''''''''''''''''''''''''''''))),,),,),),)),,))),))),,,)),,,),,),),,)),),),),),,,)),,))),))),))),,,,,,,,,,,",
"'''''''''''''''''''''''''''''''',,),),),))),),),,),,),,,,,),),),),),),),,,),),))),,,,,),),),),),),),,,,,,,,,,,",
"'''''''''''''''''''''''''''''''',),,),),),),)),,,),,)),,,,)),,))),,),,))),),),))),,,,),,),),),),),),,,,,,,,,,,",
"''''''''''''''''''''''''''''''''),,,),),),),),),,),,),,,,,),),),),,),,),),),),))),,,),,,),),),),),),,,,,,,,,,,",
"''''''''''''''''''''''''''''''''))),,),,),),)),,))),))),,,),),),),,),,,),,))),),),,,))),))),))),))),,,,,,,,,,,",
"'''>>''**''>>''>>''''''''''''''',,,,,,,,,,,,,,,,,,,,,,,,,,,,,,,,,,,,,,,,,,,,,,,,,,,,,,,,,,,,,,,,,,,,,,,,,,,,,,",
"'''>>''**''>>''>>'''''''''''''''''''''''&&&&&&&&&&''''''''''''''''''''''''..........................,,,,,,,,,,",
"''''''''''''''''''''''''''''''''''''''''&&&&&&&&&&'''''''''''''''''''''''...............................,,,,,,",
"''''''''''''''''''''''''''''''''''''''''&&&&&&&&&&''''''''''''''''''''''...................................,,,",
"'''''''''''''''''''''....'''''''&..&...&......................................................................",
"'''''''''''''''''.........'''''.&..&...&......................................................................",
"'''''''''''''..............'''..&...&..&......................................................................",
"'''''''''...................'....&....&.......................................................................",
"'''''.............................&&&&........................................................................",
"...........................................................................................................,,,",
"........................................................................................................,,,,,,",
"....................................................................................................,,,,,,,,,,",
".........................''''''',,,,,,,,,,,,,,,,,,,,,,,,,,,,,,,,,,,,,,,,,,,,,,,,,,,,,,,,,,,,,,,,,,,,,,,,,,,,,,",
"''''''''''''''''''''''''''''''''))),,),,),),)),,))),))),,,)),,,),,),),,)),),),),),,,)),,))),))),))),,,,,,,,,,,",
"'''''''''''''''''''''''''''''''',,),),),))),),),,),,),,,,,),),),),),),),,,),),))),,,,,),),),),),),),,,,,,,,,,,",
"'''''''''''''''''''''''''''''''',),,),),),),)),,,),,)),,,,)),,))),,),,))),),),))),,,,),,),),),),),),,,,,,,,,,,",
"''''''''''''''''''''''''''''''''),,,),),),),),),,),,),,,,,),),),),,),,),),),),))),,,),,,),),),),),),,,,,,,,,,,",
"''''''''''''''''''''''''''''''''))),,),,),),)),,))),))),,,),),),),,),,,),,))),),),,,))),))),))),))),,,,,,,,,,,",
"'''>>''>>''**''>>''''''''''''''',,,,,,,,,,,,,,,,,,,,,,,,,,,,,,,,,,,,,,,,,,,,,,,,,,,,,,,,,,,,,,,,,,,,,,,,,,,,,,",
"'''>>''>>''**''>>'''''''''''''''''''''''&&&&&&&&&&''''''''''''''''''''''''..........................,,,,,,,,,,",
"''''''''''''''''''''''''''''''''''''''''&&&&&&&&&&'''''''''''''''''''''''...............................,,,,,,",
"''''''''''''''''''''''''''''''''''''''''&&&&&&&&&&''''''''''''''''''''''...................................,,,",
"'''''''''''''''''''''....'''''''&..&...&......................................................................",
"'''''''''''''''''.........'''''.&..&...&......................................................................",
"'''''''''''''..............'''..&...&..&......................................................................",
"'''''''''...................'....&....&.......................................................................",
"'''''.............................&&&&........................................................................",
"...........................................................................................................,,,",
"........................................................................................................,,,,,,",
"....................................................................................................,,,,,,,,,,",
".........................''''''',,,,,,,,,,,,,,,,,,,,,,,,,,,,,,,,,,,,,,,,,,,,,,,,,,,,,,,,,,,,,,,,,,,,,,,,,,,,,,",
"''''''''''''''''''''''''''''''''))),,),,),),)),,))),))),,,)),,,),,),),,)),),),),),,,)),,))),))),))),,,,,,,,,,,",
"'''''''''''''''''''''''''''''''',,),),),))),),),,),,),,,,,),),),),),),),,,),),))),,,,,),),),),),),),,,,,,,,,,,",
"'''''''''''''''''''''''''''''''',),,),),),),)),,,),,)),,,,)),,))),,),,))),),),))),,,,),,),),),),),),,,,,,,,,,,",
"''''''''''''''''''''''''''''''''),,,),),),),),),,),,),,,,,),),),),,),,),),),),))),,,),,,),),),),),),,,,,,,,,,,",
"''''''''''''''''''''''''''''''''))),,),,),),)),,))),))),,,),),),),,),,,),,))),),),,,))),))),))),))),,,,,,,,,,,",
"'''>>''>>''>>''**''''''''''''''',,,,,,,,,,,,,,,,,,,,,,,,,,,,,,,,,,,,,,,,,,,,,,,,,,,,,,,,,,,,,,,,,,,,,,,,,,,,,,",
"'''>>''>>''>>''**'''''''''''''''''''''''&&&&&&&&&&''''''''''''''''''''''''..........................,,,,,,,,,,",
"''''''''''''''''''''''''''''''''''''''''&&&&&&&&&&'''''''''''''''''''''''...............................,,,,,,",
"''''''''''''''''''''''''''''''''''''''''&&&&&&&&&&''''''''''''''''''''''...................................,,,",
"'''''''''''''''''''''....'''''''&..&...&......................................................................",
"'''''''''''''''''.........'''''.&..&...&......................................................................",
"'''''''''''''..............'''..&...&..&......................................................................",
"'''''''''...................'....&....&.......................................................................",
"'''''.............................&&&&........................................................................"};
