/* XPM */
static char * mover_xpm[] = {
"240 80 6 1",
".	c #FE00FE",
"+	c #000000",
"@	c #0056FD",
"#	c #FFFF00",
"$	c #BCBCBC",
"%	c #7C7C7C",
".................................+++++++++...+++++++++++++++++++++++++++++++++++++++++++++++++++++++++++++++++++++++++++++++++++++++++++++++++++++++++++++++++++++++++++++++++++++++++++++++++++++++++++++++++++++++++++++++++++++++++++++++++++",
".............................++++@@@@@@@@+...+@@@@@@@@@@@@@@@@@@@@@@@@@@@@@@@@@@@@@@@@@@@@@@@@@@@@@@@@@@@@@@@@@@@@@@@@@@@@@@@@@@@@@@@@@@@@@@@@@@@@@@@@@@@@@@@@@@@@@@@@@@@@@@@@@@@@@@@@@@@@@@@@@@@@@@@@@@@@@@@@@@@@@@@@@@@@@@@@@@@@@@@@@@@@@@@@@+",
"..........................+++@@@@@@@@@@@@+...+@@@@@@@@@@@@@@@@@@@@@@@@@@@@@@@@@@@@@@@@@@@@@@@@@@@@@@@@@@@@@@@@@@@@@@@@@@@@@@@@@@@@@@@@@@@@@@@@@@@@@@@@@@@@@@@@@@@@@@@@@@@@@@@@@@@@@@@@@@@@@@@@@@@@@@@@@@@@@@@@@@@@@@@@@@@@@@@@@@@@@@@@@@@@@@@@@+",
".......................+++@@@@@@@@@@@@@@@+...+@@@@@@@@@@@@@@@@@@@@@@@@@@@@@@@@@@@@@@@@@@@@@@@@@@@@@@@@@@@@@@@@@@@@@@@@@@@@@@@@@@@@@@@@@@@@@@@@@@@@@@@@@@@@@@@@@@@@@@@@@@@@@@@@@@@@@@@@@@@@@@@@@@@@@@@@@@@@@@@@@@@@@@@@@@@@@@@@@@@@@@@@@@@@@@@@@+",
".....................++@@@@@@@@@@@@@@@@@@+...+@@@@@@@@@@@@@@@@@@@@@@@@@@@@@@@@@@@@@@@@@@@@@@@@@@@@@@@@@@@@@@@@@@@@@@@@@@@@@@@@@@@@@@@@@@@@@@@@@@@@@@@@@@@@@@@@@@@@@@@@@@@@@@@@@@@@@@@@@@@@@@@@@@@@@@@@@@@@@@@@@@@@@@@@@@@@@@@@@@@@@@@@@@@@@@@@@+",
"...................++@@@@@@@@@@@@@@@@@@@@+...+@@@@@@@@@@@@@@@@@@@@@@@@@@@@@@@@@@@@@@@@@@@@@@@@@@@@@@@@@@@@@@@@@@@@@@@@@@@@@@@@@@@@@@@@@@@@@@@@@@@@@@@@@@@@@@@@@@@@@@@@@@@@@@@@@@@@@@@@@@@@@@@@@@@@@@@@@@@@@@@@@@@@@@@@@@@@@@@@@@@@@@@@@@@@@@@@@+",
"..................+@@@@@@@@@@@@@@@@@@@@@@+...+@@@@@@@@@@@@@@@@@@@@@@@@@@@@@@@@@@@@@@@@@@@@@@@@@@@@@@@@@@@@@@@@@@@@@@@@@@@@@@@@@@@@@@@@@@@@@@@@@@@@@@@@@@@@@@@@@@@@@@@@@@@@@@@@@@@@@@@@@@@@@@@@@@@@@@@@@@@@@@@@@@@@@@@@@@@@@@@@@@@@@@@@@@@@@@@@@+",
".................+@@@@@@@@@@@@@@@@@@@@@@@+...+@@@@@@@@@@@@@@@@@@@@@@@@@@@@@@@@@@@@@@@@@@@@@@@@@@@@@@@@@@@@@@@@@@@@@@@@@@@@@@@@@@@@@@@@@@@@@@@@@@@@@@@@@@@@@@@@@@@@@@@@@@@@@@@@@@@@@@@@@@@@@@@@@@@@@@@@@@@@@@@@@@@@@@@@@@@@@@@@@@@@@@@@@@@@@@@@@+",
"................+@@@@@@@@@@@@@@@@@@@@@@@@+...+@@@@@@@@@@@@@@@@@@@@@@@@@@@@@@@@@@@@@@@@@@@@@@@@@@@@@@@@@@@@@@@@@@@@@@@@@@@@@@@@@@@@@@@@@####@@@@@@@@@####@@@@@@@@@@@@@@@@@@@@@@@@@@@@@@@@@@@@@@@@@@@@@@@@@@@@@@@@@@@@@@@@@@@@@@@@@@@@@@@@@@@@@@@+",
"................+@@@@@@@@@@@@@@@@@@@@@@@@+...+@@@@@@@@###########@@@@@@@@@@@@@@@@@@@@@@@@@@@@@@@@@@@@@@@@@@@@@@@@@@@@@@@@@@@@@@@@@@@@@@@###@@@@@@@@@@###@@@@@@@@@@@@@@@@@@@@@@@@@#######@@@@@@@###@@@@@@@@@@@@@@@@@@@@@@@@@@@@@@@@@@@@@@@@@@@@@+",
"...............+@@@@@@@@@@@@@@@@@@@@@@@@@+...+@@@@@@@@@@###@@@####@@@@@@@@@@@@@@@@@@@@@@@@@@@@@@@@@@@@@@@@@@@@@@@@@@@@@@@@@@@@@@@@@@@@@@###@@@@@@@@@@###@@@@@@@@@@@@@@@@@@@@@@@@@@@###@@@@@@@@@###@@@@@@@@@@@@@@@@@@@@@@@@@@@@@@@@@@@@@@@@@@@@@+",
"...............+@@@@@@@@@@@@@@@@@@@@@@@@@+...+@@@@@@@@@@###@@@@@###@@@@@@@@@@@@@@@@@@@@@@@@@@@@@@@@@@@@@@@@@@@@@@@@@@@@@@@@@@@@@@@@@@@@@###@@@@@@@@@@###@@@@@@@@@@@@@@@@@@@@@@@@@@@###@@@@@@@@@###@@@@@@@@@@@@@@@@@@@@@@@@@@@@@@@@@@@@@@@@@@@@@+",
"..............+@@@@@@@@@@@@@@@@@@@@@@@@@@+...+@@@@@@@@@@###@@@@@###@@@@@@@@@@@@@@@@@@@@@@@@@@@@@@@@@@@@@@@@@@@@@@@@@@@@@@@@@@@@@@@@@@@@@###@@@@@@@@@@###@@@@@@@@@@@@@@@@@@@@@@@@@@@###@@@@@@@@@@@@@@@@@@@@@@@@@@@@@@@@@@@@@@@@@@@@@@@@@@@@@@@@@+",
"..............+@@@@@@@@@@@@@@@@@@@@@@@@@@+...+@@@@@@@@@@###@@@@@###@@@######@@@#####@@@##@@@###@@@######@@@@####@####@@######@@@@@@####@###@@@@@@@@@@###@####@@@#####@@@###@@@@@@@@###@@@@@@@@####@@@####@####@@@@####@@####@@######@####@@@@@@+",
"..............+@@@@@@@@@@@@@@@@@@@@@@@@@@+...+@@@@@@@@@@###@@@@@###@@###@@###@@@###@@@###@@@@#@@@###@@###@@@@####@@@#@###@@###@@@@###@@####@@@@@@@@@@####@@###@@@###@@@@@#@@@@@@@@@###@@@@@@@@@###@@@@####@@###@@@@###@@@###@@@@###@@@#@@@@@@@@+",
".............+@@@@@@@@@@@@@@@@@@@@@@@@@@@+...+@@@@@@@@@@###@@@####@@###@@@@###@@####@@####@@#@@@###@@@@##@@@@###@@@@@###@@@@##@@@###@@@@###@@@@@@@@@@###@@@@###@@@###@@@#@@@@@@@@@@###@@@@@@@@@###@@@@###@@@###@@@@###@@@###@@@@####@#@@@@@@@@@+",
".............+++++++++++++++++++++++++++++...+@@@@@@@@@@########@@@@###@@@@###@@@###@@####@@#@@@###@@@@###@@@###@@@@@###@@@@###@@###@@@@###@@@@@@@@@@###@@@@###@@@###@@@#@@@@@@@@@@###@@@@@@@@@###@@@@###@@@###@@@@###@@@###@@@@@####@@@@@@@@@@+",
".............+@@@@@@@@@@@@@@@@+@@@@@@@@@@+...+@@@@@@@@@@###@@@@@@@@@###@@@@###@@@###@#@###@@#@@@##########@@@###@@@@@##########@@###@@@@###@@@@@@@@@@###@@@@###@@@####@#@@@@@@@@@@@###@@@@@@@@@###@@@@###@@@###@@@@###@@@###@@@@@@###@@@@@@@@@@+",
"............+@$$$$$$$$$$$$$$$@+@@@@@@@@@@+...+@@@@@@@@@@###@@@@@@@@@###@@@@###@@@#####@@####@@@@###@@@@@@@@@@###@@@@@###@@@@@@@@@###@@@@###@@@@@@@@@@###@@@@###@@@@###@#@@@@@@@@@@@###@@@@@@@@@###@@@@###@@@###@@@@###@@@###@@@@@#####@@@@@@@@@+",
"............+@$$$$$$$$$$$$$$$@+@@@#@@@#@@+...+@@@@@@@@@@###@@@@@@@@@###@@@@###@@@@####@@####@@@@###@@@@@@#@@@###@@@@@###@@@@@@#@@###@@@@###@@@@@@@@@@###@@@@###@@@@#####@@@@@@@@@@@###@@@@@@#@@###@@@@###@@@###@@@@###@@@###@@@@##@####@@@@@@@@+",
"............+@$$$$$$$$$$$$$$$@+@@@##@##@@+...+@@@@@@@@@@###@@@@@@@@@@###@@###@@@@@###@@@####@@@@@###@@@@#@@@@###@@@@@@###@@@@#@@@@###@@####@@@@@@@@@@####@@###@@@@@@###@@@@@@@@@@@@###@@@@@@#@@###@@@@###@@@###@@@@###@@####@@@@#@@@###@@@@@@@@+",
"............+@$$$$$$$$$$$$$$$@+@@@#@#@#@@+...+@@@@@@@@#######@@@@@@@@@######@@@@@@@##@@@@##@@@@@@@######@@@@#####@@@@@@######@@@@@@####@####@@@@@@@@####@####@@@@@@@###@@@@@@@@@@############@#####@@#####@#####@@@@####@####@####@######@@@@@@+",
"............+@$$$$$$$$$$$$$$$@+@@@#@@@#@@+...+@@@@@@@@@@@@@@@@@@@@@@@@@@@@@@@@@@@@@@@@@@@@@@@@@@@@@@@@@@@@@@@@@@@@@@@@@@@@@@@@@@@@@@@@@@@@@@@@@@@@@@@@@@@@@@@@@@@@@@@#@@@@@@@@@@@@@@@@@@@@@@@@@@@@@@@@@@@@@@@@@@@@@@@@@@@@@@@@@@@@@@@@@@@@@@@@@+",
"............+@$$$$$$$$$$$$$$$@+@@@#@@@#@@+...+@@@@@@@@@@@@@@@@@@@@@@@@@@@@@@@@@@@@@@@@@@@@@@@@@@@@@@@@@@@@@@@@@@@@@@@@@@@@@@@@@@@@@@@@@@@@@@@@@@@@@@@@@@@@@@@@@@@@@@@#@@@@@@@@@@@@@@@@@@@@@@@@@@@@@@@@@@@@@@@@@################@@@@@@@@@@@@@@@@+",
"............+@$$$$$$$$$$$$$$$@+@@@@@@@@@@+...+@@@@@@@@#@@@#@@###@@#####@@@@@@@@###@@@@#@@@@####@@###@@#@@@@@#####@#@@@#@#####@@@@@@@@@@@@@@@@@@@@@@@@@@@@@@@@@@@@#@@@#@@@@@@@@@@@@@@@@@@@@@@@@@@@@@@@@@@@@@@######################@@@@@@@@@@@@@+",
"............+@$$$$$$$$$$$$$$$@+@@@@###@@@+...+@@@@@@@@##@@#@#@@@#@@@#@@@@@@@@@#@@@@@@#@#@@#@@@@@#@@@#@#@@@@@@@#@@@##@@#@#@@@@@@@@@@@@@@@@@@@@@@@@@@@@@@@@@@@@@@@@####@@@@@@@@@@@@@@@@@@@@@@@@@@@@@@@@@@@@############################@@@@@@@@@@+",
"............+@$$$$$$$$$$$$$$$@+@@@#@@@#@@+...+@@@@@@@@#@#@#@#@@@#@@@#@@@@@@@@@#@@##@#####@@###@@#@@@#@#@@@@@@@#@@@#@#@#@###@@@@@@@@@@@@@@@@@@@@@@@@@@@@@@@@@@@@@@@@@@@@@@@@@@@@@@@@@@@@@@@@@@@@@@@@@@@@#################################@@@@@@@+",
"............+@$$$$$$$$$$$$$$$@+@@@#@@@#@@+...+@@@@@@@@#@@##@#@@@#@@@#@@@@@@@@@#@@@#@#@@@#@@@@@#@#@@@#@#@@@@@@@#@@@#@@##@#@@@@@@@@@@@@@@@@@@@@@@@@@@@@@@@@@@@@@@@@@@@@@@@@@@@@@@@@@@@@@@@@@@@@@@@@@@@@############@@@@@@@@@@@@@@###########@@@@@+",
"............+@$$$$$$$$$$$$$$$@+@@@#@@@#@@+...+@@@@@@@@#@@@#@@###@@@@#@@@@@@@@@@###@@#@@@#@####@@@###@@#####@#####@#@@@#@#####@@@@@@@@@@@@@@@@@@@@@@@@@@@@@@@@@@@@@@@@@@@@@@@@@@@@@@@@@@@@@@@@@@@@@@############@@@@@@@@@@@@@@@@@@@#########@@@@+",
"............+@$$$$$$$$$$$$$$$@+@@@@###@@@+...+@@@@@@@@@@@@@@@@@@@@@@@@@@@@@@@@@@@@@@@@@@@@@@@@@@@@@@@@@@@@@@@@@@@@@@@@@@@@@@@@@@@@@@@@@@@@@@@@@@@@@@@@@@@@@@@@@@@@@@@@@@@@@@@@@@@@@@@@@@@@@@@@@@@###########@@@@@@@@@@@@@@@@@@@@@@@@@#######@@@+",
"............+@$$$$$$$$$$$$$$$@+@@@@@@@@@@+...+@@@@@@@@@@@@@@@@@@@@@@@@@@@@@@@@@@@@@@@@@@@@@@@@@@@@@@@@@@@@@@@@@@@@@@@@@@@@@@@@@@@@@@@@@@@@@@@@@@@@@@@@@@@@@@@@@@@@@@@@@@@@@@@@@@@@@@@@@@@@@@@@@@#########@@@@@@@@@@@@@@@@@@@@@@@@@@@@@@#####@@@+",
"............+@$$$$$$$$$$$$$$$@+@@@#@@@#@@+...+@@@@@@@@@@@@@@@@@@@@@@@@@@@@@@@@@@@@@@@@@@@@@@@@@@@@@@@@@@@@@@@@@@@@@@@@@@@@@@@@@@@@@@@@@@@@@@@@@@@@@@@@@@@@@@@@@@@@@@@@@@@@@@@@@@@@@@@@@@@@@@@@@########@@@@@@@@@@@@@@@@@@@@@@@@@@@@@@@@@####@@@+",
"............+@$$$$$$$$$$$$$$$@+@@@#@@@#@@+...+@@@@@@@@@@@@@@@@@@@@@@@@@@@@@@@@@@@@@@@@@@@@@@@@@@@@@@@@@@@@@@@@@@@@@@@@@@@@@@@@@@@@@@@@@@@@@@@@@@@@@@@@@@@@@@@@@@@@@@@@@@@@@@@@@@@@@@@@@@@@@@@@#######@@@@@@@@@@@@@@@@@@@@@@@@@@@####@@@@@###@@@+",
"............+@$$$$$$$$$$$$$$$@+@@@#@@@#@@+...+@@@@@@@@@@@@@@@@@@@@@@@@@@@@@@@@@@@@@@@@@@@@@@@@@@@@@@@@@@@@@@@@@@@@@@@@@@@@@@@@@@@@@@@@@@@@@@@@@@@@@@@@@@@@@@@@@@@@@@@@@@@@@@@@@@@@@@@@@@@@@@@######@@@@@@@@@@@@@@@@@@##@@@@@@@@@######@@@@@@@@@+",
"..........++@@@@@@@@@@@@@@@@@@+@@@@#@#@@@+...+@@@@@@@@@@@@@@@@@@@@@@@@@@@@@@@@@@@@@@@@@@@@@@@@@@@@@@@@@@@@@@@@@@@@@@@@@@@@@@@@@@@@@@@@@@@@@@@@@@@@@@@@@@@@@@@@@@@@@@@@@@@@@@@@@@@@@@@@@@@@@@@#####@@@@@@@@@@@@@#@@@@#@@#@@@@@@@@#######@@@@@@@@+",
"........++@+@@@@@@@@@@@@@@@@@@+@@@@@#@@@@+...+@@@@@@@@@@@@@@@@@@@@@@@@@@@@@@@@@@@@@@@@@@@@@@@@@@@@@@@@@@@@@@@@@@@@@@@@@@@@@@@@@@@@@@@@@@@@@@@@@@@@@@@@@@@@@@@@@@@@@@@@@@@@@@@@@@@@@@@@@@@@@@#####@@@@@@@@@@@@@@@#@#@#@@@@@@@@@@@########@@@@@@@+",
"......++@@@+@@@@@@@@@@@@@@@@@@+@@@@@@@@@@+...+@@@@@@@@@@@@@@@@@@@@@@@@@@@@@@@@@@@@@@@@@@@@@@@@@@@@@@@@@@@@@@@@@@@@@@@@@@@@@@@@@@@@@@@@@@@@@@@@@@@@@@@@@@@@@@@@@@@@@@@@@@@@@@@@@@@@@@@@@@@@@@####@@@@@@@@@@@@@@@@##@@@###@@@@@@@@@@@#####@@@@@@@+",
"..++++@@@@@+@@@@@@@@@@@@@@@@@@+@@@#####@@+...+@@@@@@@@@@@@@@@@@@@@@@@@@@@@@@@@@@@@@@@@@@@@@@@@@@@@@@@@@@@@@@@@@@@@@@@@@@@@@@@@@@@@@@@@@@@@@@@@@@@@@@@@@@@@@@@@@@@@@@@@@@@@@@@@@@@@@@@@@@@@@#####@@@@@@@@@@@@@@@#@#@@@@@@#@@@@@@@@@@@#####@@@@@@+",
".+@@@@@@@@@+@@@@@@@@@@@@@@@@@@+@@@#@@@@@@+...+@@@@@@@@@@@@@@@@@@@@@@###@@@###@@#####@@@@@@@@@@@@@@@@@@@@@@@@@@@@@@@@@@@@@@@@@@@@@@@@@@@@@@@@@@@@@@@@@@@@@@@@@@@@@@@@@@@@@@@@@@@@@@@@@@@@@@@####@@@@@@@#@@@@@##@@@##@@@@#@@@#@@@@@@@@@####@@@@@@+",
"+@@@@@@@@@@+@@@@@@@@@@@@@+++@@+@@@###@@@@+...+@@@@@@@@@@@@@@@@@@@@@#@@@@@#@@@#@@@#@@@@@@@@@@@@@@@@@@@@@@@@@@@@@@@@@@@@@@@@@@@@#@@@#@#####@####@@####@@#@@@#@@@@@@@@@@@@@@@@@@@@@@@@@@@@@@@#####@@@@@@###@@@####@@@#@@##@@@@@#@@@@##@@@####@@@@@+",
"+@@@@@@@@@@+@@@@@@@@@@@@@@@@@@+@@@#@@@@@@+...+@@@@@@@@@@@@@@@@@@@@@#@@##@#@@@#@@@#@@@@@@@@@@@@@@@@@@@@@@@@@@@@@@@@@@@@@@@@@@@@##@##@#@@@@@#@@@#@#@@@#@@#@#@@@@@@@@@@@@@@@@@@@@@@@@@@@@@@@@####@@@@@@#@@@@@@#@@#@@@@#@@@@@@@@#@@@#@@#@@####@@@@@+",
"+@@@@@@@@@@+@@@@@@@@@@@@@@@@@@+@@@#####@@+...+@@@@@@@@@@@@@@@@@@@@@#@@@#@#@@@#@@@#@@@@@@@@@@@@@@@@@@@@@@@@@@@@@@@@@@@@@@@@@@@@#@#@#@###@@@####@@####@@@@#@@@@@@@@@@@@@@@@@@@@@@@@@@@@@@@@@####@@@@@@#@@@@@@#@@@#@@@@@@@@@@@@@#@@#@@#@@@####@@@@+",
"+@@@@@@@@@@+@@@@@@@@@@@@@@@@@@+@@@@@@@@@@+...+@@@@@@@@@@@@@@@@@@@@@@###@@@###@@@@#@@@@@@@@@@@@@@@@@@@@@@@@@@@@@@@@@@@@@@@@@@@@#@@@#@#@@@@@#@@@#@#@@@#@@@#@@@@@@@@@@@@@@@@@@@@@@@@@@@@@@@@@####@@@@@@#@@@@@@#@@@@#@@@@@@@@@@@@#@@#@#@@@@####@@@@+",
"+@@@@@@@@@@+@@@@@@@@@@@@@@@@@@+@@@####@@@+...+@@@@@@@@@@@@@@@@@@@@@@@@@@@@@@@@@@@@@@@@@@@@@@@@@@@@@@@@@@@@@@@@@@@@@@@@@@@@@@@@#@@@#@#####@#@@@#@#@@@#@@@#@@@@@@@@@@@@@@@@@@@@@@@@@@@@@@@@####@@@@@@@#@@@@@@#@@##@@@@@@#@@@@@#@#@@#@@@#@####@@@@+",
"+@@@@@@@@@@+@@@@@@@@@@@@@@@@@@+@@@#@@@#@@+...+@@@@@@@@@@@@@###@@@@#@@@#@@@#@####@@####@@###@@@@@@@@@@@@@@@@@@@@@@@@@@@@@@@@@@@@@@@@@@@@@@@@@@@@@@@@@@@@@@@@@@@@@@@@@@@@@@@@@@@@@@@@@@@@@@####@@@@@@@#@@@@@@@##@@@@@@@@@@@@@#@@#@@#@@#@@####@@@@+",
"+@@@@@@@@@@+@@@@@@@@@@@@@@@@@@+@@@####@@@+...+@@@@@@@@@@@@#@@@@@@#@#@@##@##@#@@@@#@@@@@@@@@#@@@@@@@@@@@@@@@@@@@@@@@###@@#@@@#@####@@#####@@####@#####@#@@@#@@@#@@@@####@@@@@@@@@@@@@@@@@@####@@@@@@@#@@@@@@@@@@@@@@@@@@@#@@#@@@#@@##@@@####@@@@+",
"+@@@@@@@@@@+@@@@@@@@@@@@@@@@@@+@@@#@@#@@@+...+@@@@@@@@@@@@#@@##@#####@#@#@#@##@@@@###@@@@##@@@@@@@@@@@@@@@@@@@@@@@#@@@#@#@@@#@#@@@#@@@#@@@#@@@@@@@#@@@##@##@@#@#@@#@@@@@@@@@@@@@@@@@@@@@@####@@@@@@@@#@@@#@@@@@@@@@@@@@@#@@#@@@##@@@@@@####@@@@+",
"+@@@@@@@@@@+@@@@@@@@@@@@@@@@@@+@@@#@@@#@@+...+@@@@@@@@@@@@#@@@#@#@@@#@#@@@#@#@@@@@@@@#@@@@@@@@@@@@@@@@@@@@@@@@@@@@#@@@@@#####@####@@@@#@@@@###@@@@#@@@#@#@#@#####@@###@@@@@@@@@@@@@@@@@@@####@@@@@@@@####@@@@@@@@@@@##@@@#@@###@@@@@@@@####@@@@+",
"+@@@@@@@@@@+@@@@@@@@@@@@@@@@@@+@@@@@@@@@@+...+@@@@@@@@@@@@@###@@#@@@#@#@@@#@####@####@@@@#@@@@@@@@@@@@@@@@@@@@@@@@#@@@#@#@@@#@#@@@#@@@#@@@@@@@#@@@#@@@#@@@#@#@@@#@@@@@#@@@@@@@@@@@@@@@@@@####@@@@@@@@@@@@@@@@@@@@@@#@@#@@#@@@@@@@@@@@@#####@@@@+",
"+@@@@@@@@@@+@@@@@@@@@@@@@@@@@@+@@@@####@@+...+@@@@@@@@@@@@@@@@@@@@@@@@@@@@@@@@@@@@@@@@@@@@@@@@@@@@@@@@@@@@@@@@@@@@@###@@#@@@#@#@@@#@#####@####@@@@#@@@#@@@#@#@@@#@####@@@@@@@@@@@@@@@@@@@####@@@@@@@@@@@@@@@@@@@@@@#@@@@@@#@@@@@@@@@@@#####@@@@+",
"+@@@@@@@@@@+@@@@@@@@@@@@@@@@@@+@@@#@@@@@@+...+@@@@@@@@@@@@@@@@@@@@@@@@@@@@@@@@@@@@@@@@@@@@@@@@@@@@@@@@@@@@@@@@@@@@@@@@@@@@@@@@@@@@@@@@@@@@@@@@@@@@@@@@@@@@@@@@@@@@@@@@@@@@@@@@@@@@@@@@@@@@####@@@@@@@@@@##@@@@###@@@###@@@@@@@@@@@@@@@#####@@@@+",
"+@@@@@@@@@@+@@@@@@@@@@@@@@@@@@+@@@@###@@@+...+@@@@@@@@@@@@@@@@@@@@@@@@@@@@@@@@@@@@@@@@@@@@@@@@@@@@@@@@@@@@@@@@@@@@@@@@@@@@@@@@@@@@@@@@@@@@@@@@@@@@@@@@@@@@@@@@@@@@@@@@@@@@@@@@@@@@@@@@@@@@####@@@@@@@@@#@@@@@@#@#@@@@@@#@@@@@@@@@@@@@#####@@@@@+",
"+@@@@@@@@@@++++++++++++++++++++@@@@@@@#@@+...+@@@@@@@@@@@@@@@@@@@@@@@@@@@@@@@@@@@@@@@@@@@@@@@@@@@@@@@@@@@@@@@@@@@@@@@@@@@@@@@@@@@@@@@@@@@@@@@@@@@@@@@@@@@@@@@@@@@@@@@@@@@@@@@@@@@@@@@@@@@@#####@@@@@@##@#@@@###@@#@@@@#@@@@@@@@@@@@@@#####@@@@@+",
"+@@@@@@@@@@@@@@@@@@@@@@@@@@@@@@@@@####@@@+...+@@@@@@@@@@@@@@@@@@@@@@@@@@@@@@@@@@@@@@@@@@@@@@@@@@@@@@@@@@@@@@@@@@@@@@@@@@@@@@@@@@@@@@@@@@@@@@@@@@@@@@@@@@@@@@@@@@@@@@@@@@@@@@@@@@@@@@@@@@@@@####@@@@@@@@@#@@@@#@@@##@##@@@@@@@@@@@@@@#####@@@@@@+",
"+@@@@@@@@@@@@@@@@@@@@@@@@@@@@@@@@@@@@@@@@+...+@@@@@@@@@@@@@@@@@@@@@@@@@@@@@@@@@@@@@@@@@@@@@@@@@@@@@@@@@@@@@@@@@@@@@@@@@@@@@@@@@@@@@@@@@@@@@@@@@@@@@@@@@@@@@@@@@@@@@@@@@@@@@@@@@@@@@@@@@@@@@#####@@@@@@@@@#@@@##@@@#@@@@@@@@@@@@@@@@@#####@@@@@@+",
"+@@@@@@@@@@@@@@@@@@@@@@@@@@@@@@@@@@@@@@@@+...+@@@@@@@@@@@@@@@@@@@@@@@@@@@@@@@@@@@@@@@@@@@@@@@@@@@@@@@@@@@@@@@@@@@@@@@@@@@@@@@@@@@@@@@@@@@@@@@@@@@@@@@@@@@@@@@@@@@@@@@@@@@@@@@@@@@@@@@@@@@@@@####@@@@@@@@@#@@@@#@@@@@@@@@@@@@@@@@@@@#####@@@@@@@+",
"+@@@@@@@@@@@@@@@@@@@@@@@@@@@@@@@@@@@@@@@@+...+@@@@@@@@@@@@@@@@@@@@@@@@@@@@@@@@@@@@@@@@@@@@@@@@@@@@@@@@@@@@@@@@@@@@@@@@@@@@@@@@@@@@@@@@@@@@@@@@@@@@@@@@@@@@@@@@@@@@@@@@@@@@@@@@@@@@@@@@@@@@@@#####@@@@@@@@@#@@@@#@@@@@@@@@@@@@@@@@@######@@@@@@@+",
"+@@@@@@@@@@@@@@@@@@@@@@@@@@@@@@@@@@@@@@@@+...+@@@@@@@@@@@@@@@@@@@@@@@@@@@@@@@@@@@@@@@@@@@@@@@@@@@@@@@@@@@@@@@@@@@@@@@@@@@@@@@@@@@@@@@@@@@@@@@@@@@@@@@@@@@@@@@@@@@@@@@@@@@@@@@@@@@@@@@@@@@@@@@#####@@@@@@@@#@@#@@@@@@@@@@@@@@@@@@@######@@@@@@@@+",
"+@@@@@@@@@@@@@@@@@@@@@@@@@@@@@@@@@@@@@@@@+...+@@@@@@@@@@@@@@@@@@@@@@@@@@@@@@@@@@@@@@@@@@@@@@@@@@@@@@@@@@@@@@@@@@@@@@@@@@@@@@@@@@@@@@@@@@@@@@@@@@@@@@@@@@@@@@@@@@@@@@@@@@@@@@@@@@@@@@@@@@@@@@@######@@@@@@@@##@@@@@@@@@@@@@@@@@@@######@@@@@@@@@+",
"+@@@@@@@@@@@@@@@@@@@@@@@@@@@@@@@@@@@@@@@@+...+@@@@@@@@@@@@@@@@@@@@@@@@@@@@@@@@@@@@@@@@@@@@@@@@@@@@@@@@@@@@@@@@@@@@@@@@@@@@@@@@@@@@@@@@@@@@@@@@@@@@@@@@@@@@@@@@@@@@@@@@@@@@@@@@@@@@@@@@@@@@@@@@######@@@@@##@@@@@@@@@@@@@@@@@@@#######@@@@@@@@@@+",
"+@@@@@@@@@@@@@@@@@@@@@@@@@@@@@@@@@@@@@@@@+...+@@@@@@@@@@@@@@@@@@@@@@@@@@@@@@@@@@@@@@@@@@@@@@@@@@@@@@@@@@@@@@@@@@@@@@@@@@@@@@@@@@@@@@@@@@@@@@@@@@@@@@@@@@@@@@@@@@@@@@@@@@@@@@@@@@@@@@@@@@@@@@@@@#######@@@@@@@@@@@@@@@@@@@@@#########@@@@@@@@@@@+",
"+@@@@@@@@@@@@@@@@@@@@@@@@@@@@@@@@@@@@@@@@+...+@@@@@@@@@@@@@@@@@@@@@@@@@@@@@@@@@@@@@@@@#@#@###@###@##@@@@@@@@#@@@#@@#@@##@###@@@@@@#@@@#@@#@@@@@@##@@@#@@##@@@@@#@@##@@#@@@@#@@##@##@@#@@@@@@@@@@########@@@@@@@@@@@@@@@###########@@@@@@@@@@@@@+",
"%+@@@@@@@@@@@@@@@@@@@@@@@@@@@@@@@@@@@@@@@+...+@@@@@@@@@@@@@@@@@@@@@@@@@@@@@@@@@@@@@@@@#@#@@#@@@#@@#@#@@#@@@@#@@@#@@#@#@#@#@#@@@@@@#@@@#@#@#@@@@@@@#@@#@#@@@@@@@#@#@@@#@#@@@#@#@@@#@#@#@@@@@@@@@@@###############################@@@@@@@@@@@@@@@+",
"%%++++++++++++++++++++++++++++++++++++++++...++++++++++++++++++++++++++++++++++++@@@@@###@@#@@@#@@##@@@@@@@#@@@#@@@#@@##@###@@@@@@#@@@#@#@#@@@@@@#@@@#@##@@@@@@#@##@@#@#@@#@@@#@@#@#@#@@@@@@@@@@@@@###########################@@@@@@@@@@@@@@@@@+",
".%%%%%%%%%%%%%%%%%%%%%%%%%%%%%%%%%%%%%%%%%%..................%%%................+@@@@@#@#@@#@@@#@@#@@@@#@@#@@@#@@@@#@@@#@#@#@@@@@@#@@@#@#@#@@@@@#@@@@#@#@#@@@@@#@#@#@#@#@#@@@@@#@#@#@#@@@@@@@@@@@@@@@######################@@@@@@@@@@@@@@@@@@@@+",
"..%%%%%%%%%%%%%%%%%%%%%%%%%%%%%%%%%%%%%%%%%%%%%%%%%%%%%%%%%%%%%%%%%%%%%%%%%%%%%.+@@@@@#@#@@#@@@#@@#@@@@@@@#@@@#@@@@#@@@#@###@@#@@@#@@@#@@#@@@#@@###@@#@@#@@@#@@#@@#@@@#@@#@@@##@@##@@###@@@@@@@@@@@@@@@@###############@@@@@@@@@@@@@@@@@@@@@@@@+",
"...%%%%%%%%%%%%%%%%%%%%%%%%%%%%%%%%%%%%%%%%%%%%%%%%%%%%%%%%%%%%%%%%%%%%%%%%%%%%.+@@@@@@@@@@@@@@@@@@@@@@@@@@@@@@@@@@@@@@@@@@@@@@@@@@@@@@@@@@@@@@@@@@@@@@@@@@@@@@@@@@@@@@@@@@@@@@@@@@@@@@@@@@@@@@@@@@@@@@@@@@@@@@@@@@@@@@@@@@@@@@@@@@@@@@@@@@@@@@+",
"....%%%%%%%%%%%%%%%%%%%%%%%%%%%%%%%%%%%%%%%%%%%%%%%%%%%%%%%%%%%%%%%%%%%%%%%%%%%.++++++++++++++++++++++++++++++++++++++++++++++++++++++++++++++++++++++++++++++++++++++++++++++++++++++++++++++++++++++++++++++++++++++++++++++++++++++++++++++++",
".....%%%%%.........%%%%%%%%%%%%%%%%%%%%%%%%%%%%%%%.........%%%%%%%%%%..............................................................................................................................................%%%%%%%%.....................",
"......%%%..+++++++..%%%%%%%%%%%%%%%%%%%%%%%%%%%%%..+++++++..%%%%%%%%..+++++++..............................................................................................................................+++++++..%%%%%%..+++++++.............",
".......%..+++++++++..%%%%%%%%%%%%%%%%%%%%%%%%%%%..+++++++++..%%%%%%..+++++++++............................................................................................................................+++++++++..%%%%..+++++++++............",
".........+++++++++++.............................+++++++++++.%%%%%%.+++++++++++..........................................................................................................................+++++++++++.%%%%.+++++++++++...........",
".........++++%%%++++.............................++++%%%++++.%%%%%%.++++%%%++++..........................................................................................................................++++%%%++++.%%%%.++++%%%++++...........",
".........+++%%%%%+++.............................+++%%%%%+++.%%%%%%.+++%%%%%+++..........................................................................................................................+++%%%%%+++.%%%%.+++%%%%%+++...........",
".........+++%%%%%+++.............................+++%%%%%+++.%%%%%%.+++%%%%%+++..........................................................................................................................+++%%%%%+++.%%%%.+++%%%%%+++...........",
".........+++%%%%%+++.............................+++%%%%%+++........+++%%%%%+++..........................................................................................................................+++%%%%%+++......+++%%%%%+++...........",
".........++++%%%++++.............................++++%%%++++........++++%%%++++..........................................................................................................................++++%%%++++......++++%%%++++...........",
".........+++++++++++.............................+++++++++++........+++++++++++..........................................................................................................................+++++++++++......+++++++++++...........",
"..........+++++++++...............................+++++++++..........+++++++++............................................................................................................................+++++++++........+++++++++............",
"...........+++++++.................................+++++++............+++++++..............................................................................................................................+++++++..........+++++++............."};
