/* XPM */
static char * rock_xpm[] = {
"240 30 3 1",
".	c #FE00FE",
"#	c #808080",
"@	c #FFFFFF",
"................................................................................................................................................................................................................................................",
".............................................@........................................................##.............................................................@@@@.......................................................................",
"............................................@#..@....................................................####@..........................................................@#@@#@...................................................@@.@@#.@...........",
"........@######@....@@....................@@###@@#.....................@#####@......................########....................@@####..........................@.#####@###..................................................@#####@@@..........",
".....@..@#######@@@###...................#@#@######.................@##@###@#####@...................@#@@####@@................@@###@#@@@@..####...............@@@#@###@####................@@####@@@@@@.....................##########.........",
".....@####@@####@#####@#..............@.####@###@###...............@#############@@@@@............@.###@@####@##..............@@#@##@#######@###..............@@###@@#####@#..............#@@#######@##@#...................@###########........",
".....@#####@####@######@#............############@###...........########@#########@##............@@####@#########.............@##@######@#######.............@@@###########@@............#@###############@@@............@@@######@######.......",
".....@@#################@...........############@####@..........###@########@####@###...........@@#@##@#####@#####............@##############@@#@...........#@#####@########@@...........@######@@@@####@###@@..........####@#####@##@##@@......",
"....@@#@################@@.........#######@#@########@..........###@@#######@@@######@@.......##@########@########@...........#############@@@###@.........####@@##@@########@@........@#####@##########@####@@........###########@##@@##@@.....",
"....########@#@######@###@........@#####@@@##########@..........#@##@##@#######@#######......##@########@@########...........##@@####@@###########........####@@#######@@###@#.........@######@#######@####@@#@.......############@###@@#@@@....",
"....#####@#@##@@####@#####........@@#####@###@######@#@..........###@##@############@##.....@#########@@######@####.........@@#########@@#########.......@###@@###@#####@######.#.......#######@@##@##@########......###@##############@###@@...",
"....####@#####@####@######........###@##########@#######@@.......#########@####@###@@##....@#######@@@#######@@#####........@####@@######@#@@####@@.....@@##########@###@######@##......@#########@############.....@@#@#@###@@@###########@....",
"...@####@##########@##@###.......##############@@########@......@######@########@######....@@@@####@######@###@@###@@.......@#########@########@###......@########@###@##@##@######.....@#########@#@#######@@#......@########@####@#@#######...",
"...####@@####@########@###.......#########@#@@##@########.......@#@###@#####@##########....@@#########@#############@.......@@######@@#############.....####@@@@#########@###@@@###.....@@@#########@###@######......##################@@#@@#...",
"...#@############@@###@##@......@#####@@#################@......@#####@#######@@@######....@##############@####@##@@#@......@##@##@#######@########.....@#################@###@@##.....@######@######@##@####@.....@########@##@####@##@##@##@..",
"...########@#######@##@##@......##@@###@#################@......@####@##@######@######@.....@##@##@##@####@##@########@.....@##@###@@############@#.....@#################@@#####@.....######@@@#######@#####@......@#@@##@####@##############@.",
"...#############@@######@@.....###@@@###@#########@@@@####.....######@###@#########@@@.......#@@#@@##################.......###@########@####@@####......########@##@@#@#########......##########@#####@###@#@.......@#############@#########@@.",
"...###@########@#########@.....######@##@##@###@########@......#@@#######@#@#########@.......#######@#@####@########@.......###@##@##########@####@.....@########@@##############......######@########@######@.......@@###@@###@######@####@@@@.",
"...@@####@@#@######@@####@......##@######@###@##########@@.....############@#########@........@###########@@@###@#@#@@......######@####@#####@####......@@#######@##########@###.......##@@###@####@#########.........#####@@#######@@@#######@.",
"....#########@@#########@@.......#.######@#####@###@@###@......########@##@##@@#######.......@@###@##############@###.......#####@####@@##@#@#####.........@#@######@###@#####@@.......##@############@##@###..........####@######@@#########@..",
"....###########@@####@@##...........#@###@@#######@@####.......@#@@####@#######@######@.......@@@#@@###@############........@###@######@#@########..........@##########@@@#####@.......#######@#######@##@##@#..........########@@########@##...",
"....@###@@@#############...........@@########@@##@@####........@@####@##########@#####@........@@##@@##@###########.........@@################@#@@..........@########@#@#######........@@######@@@#######@@###.........@########@########@##....",
".....@#@@##############@............@@########@#####@#..........@@###@####@@@@######@...........@@##@##@#####@####...........@#################@@...........@####@############...........###@####@########@###..........#####@#####@##@#@@......",
"......#######@######@##@.............@@###########@@@............@@@###############@#............######@######@@@............#@######@####@#####@............###@############............##@#########@########...........#########@####@@.......",
"......###@#######@##@#@@..............#@#####@@###@@.................#@##@#######@@#..............###########@................#@#####@####@@####@.............###@###@####.@............@@@@@#############@...............##@####@@###.@........",
"......####..@@@@#@###@@...............####@###@#@@@...................@@@@@@####@@.................##########...................###@@@#######@..@..............######@#@#...................@#####@###@##@.................@@####@@#@...........",
"................####@@.................###@#####.@..................................................@@@#####@...................@@....@######@..................#@@###@@........................@#####@.......................########..........",
"........................................@#@@#@.......................................................@.#@@.@@....................................................@..#@..........................................................@####...........",
".........................................@@@@.......................................................................................................................@.............................................................##............",
"................................................................................................................................................................................................................................................"};
