/* XPM */
static char * signs_xpm[] = {
"200 50 9 1",
".	c #FFFFFF",
"+	c #00D000",
"@	c #E8FF00",
"#	c #D00000",
"$	c #7F7FFF",
"%	c #000000",
"&	c #0000C0",
"*	c #FE00FE",
"=	c #AE6300",
"......................................................................................................................................................++++++++++++++++++++++++++++++++++++++++++++++++++",
"......................................................................................................................................................+................................................+",
"..@@@@@@@@@@@@@@@@@@@@@@@@@@@@@@@@@@@@@@@@@@@@@@....##############################################....$$$$$$$$$$$$$$$$$$$$$$$$$$$$$$$$$$$$$$$$$$$$$$..+.++++++++++++++++++++++++++++++++++++++++++++++.+",
"..@@@@@@@@@@@@@@@@@@@@@@@@@@@@@@@@@@@@@@@@@@@@@@....##############################################....$$$$$$$$$$$$$$$$$$$$$$$$$$$$$$$$$$$$$$$$$$$$$$..+.++...............+++++++++++++++++++++++++++++.+",
"..@@@@@@@@@@@@@@@@@@@@@@@@@@@@@@@@@@@@@@@@@@@@@@....##############################################....$$$$$$$$$$$$$$$$$$$$$$$$$$$$$$$$$$$$$$$$$$$$$$..+.++.#############.+++++++++++++...+.+.+...+...+.+",
"..@@%@@@%@%%%%%@%@@@@@@%%%%@@%%%@@%@@@%@%%%%%@@@....##.###.#.....#.######....##...##.###.#.....###....$$.$$$.$.....$.$$$$$$...$$$...$$.$$$.$.....$$$..+.++.#############.+++++++++++++.++++.+++.+++.++.+",
"..@@%@@@%@%@@@@@%@@@@@%@@@@@%@@@%@%%@%%@%@@@@@@@....##.###.#.#####.#####.#####.###.#..#..#.#######....$$.$$$.$.$$$$$.$$$$$.$$$.$.$$$.$..$..$.$$$$$$$..+.++.&&&&&&&&&&&&&.+++++++++++++..+++.+++.+++.++.+",
"..@@%@@@%@%%%@@@%@@@@@%@@@@@%@@@%@%@%@%@%%%@@@@@....##.###.#...###.#####.#####.###.#.#.#.#...#####....$$.$$$.$...$$$.$$$$$.$$$$$.$$$.$.$.$.$...$$$$$..+.+++.&&...&...&&.++++++++++++++.++++.+++.+++.++.+",
"..@@%@%@%@%@@@@@%@@@@@%@@@@@%@@@%@%@@@%@%@@@@@@@....##.#.#.#.#####.#####.#####.###.#.###.#.#######....$$.$.$.$.$$$$$.$$$$$.$$$.$.$$$.$.$$$.$.$$$$$$$..+.+++.&&&&.&.&&&&.++++++++++++++...+.+.+...++.++.+",
"..@@@%@%@@%%%%%@%%%%%@@%%%%@@%%%@@%@@@%@%%%%%@@@....###.#.##.....#.....##....##...##.###.#.....###....$$$.$.$$.....$.....$$...$$$...$$.$$$.$.....$$$..+.+++.&&&.&&&.&&&.++++++++++++++++++++++++++++++.+",
"..@@@@@@@@@@@@@@@@@@@@@@@@@@@@@@@@@@@@@@@@@@@@@@....##############################################....$$$$$$$$$$$$$$$$$$$$$$$$$$$$$$$$$$$$$$$$$$$$$$..+.++++.&&.&&&&.&.+++++++++++++++++++++++++++++++.+",
"..@@@@@@@@@@@@@@@@@@@@@@@@@@@@@@@@@@@@@@@@@@@@@@....##############################################....$$$$$$$$$$$$$$$$$$$$$$$$$$$$$$$$$$$$$$$$$$$$$$..+.++++.&&.&&..&&.+++++++++++++++++..+++..+..++++.+",
"..@@@@@@@@@@@@@@@@@@@@@@@@@@@@@@@@@@@@@@@@@@@@@@....##############################################....$$$$$$$$$$$$$$$$$$$$$$$$$$$$$$$$$$$$$$$$$$$$$$..+.+++++.&&&&&&&.++++++++++++++++++++.+.+.+++.+++.+",
"..@@@@@@@@@@@@@@@@@@@@@@@@@@@@@@@@@@@@@@@@@@@@@@....#################.....##...###################....$$$$$$$$$$$$$$$$$$$$$$$$$$$$$$$$$$$$$$$$$$$$$$..+.++++++.&&&&&.++++++++++++++++++++.+++..++.++++.+",
"..@@@@@@@@@@@@@@@@@%%%%%@@%%%@@@@@@@@@@@@@@@@@@@....###################.###.###.##################....$$$$$$$$$$$$$$$$$.....$$...$$$$$$$$$$$$$$$$$$$..+.+++++++.....++++++++++++++++++++++.+++.+.+++++.+",
"..@@@@@@@@@@@@@@@@@@@%@@@%@@@%@@@@@@@@@@@@@@@@@@....###################.###.###.##################....$$$$$$$$$$$$$$$$$$$.$$$.$$$.$$$$$$$$$$$$$$$$$$..+.++++++++++++++++++++++++++++++++..++++.+...+++.+",
"..@@@@@@@@@@@@@@@@@@@%@@@%@@@%@@@@@@@@@@@@@@@@@@....###################.###.###.##################....$$$$$$$$$$$$$$$$$$$.$$$.$$$.$$$$$$$$$$$$$$$$$$..+.++++++++++++++++++++++++++++++++++++++++++++++.+",
"..@@@@@@@@@@@@@@@@@@@%@@@%@@@%@@@@@@@@@@@@@@@@@@....###################.####...###################....$$$$$$$$$$$$$$$$$$$.$$$.$$$.$$$$$$$$$$$$$$$$$$..+.++++++++++++++++++++++++++++++++++++++++++++++.+",
"..@@@@@@@@@@@@@@@@@@@%@@@@%%%@@@@@@@@@@@@@@@@@@@....##############################################....$$$$$$$$$$$$$$$$$$$.$$$$...$$$$$$$$$$$$$$$$$$$..+.+++++..++.++.+.+.+++...++++++..+...+...+++++++.+",
"..@@@@@@@@@@@@@@@@@@@@@@@@@@@@@@@@@@@@@@@@@@@@@@....##############################################....$$$$$$$$$$$$$$$$$$$$$$$$$$$$$$$$$$$$$$$$$$$$$$..+.++++.+++.+.+.+.+.++++.++++++.++++.++.+++++++++.+",
"..@@@@@@@@@@@@@@@@@@@@@@@@@@@@@@@@@@@@@@@@@@@@@@....###......####..#####..##........####......####....$$$$$$$$$$$$$$$$$$$$$$$$$$$$$$$$$$$$$$$$$$$$$$..+.+++++.++...+.+.+.++++.+++++++.+++.++..++++++++.+",
"..@@@@@@@@@@@@@@@@@@@@@@@@@@@@@@@@@@@@@@@@@@@@@@....##........###..#####..##........###........###....$$$$$$$$$$$$$$$$$$$$$$$$$$$$$$$$$$$$$$$$$$$$$$..+.++++++.+.+.+.+.+.++++.++++++++.++.++.+++++++++.+",
"..@%@@%@%%%%@%@@@%@%%%%%@%@@@%@@%%%%@%@@%@%@@@%@....#...####...##..#####..#####..#####...####...##....$$.$$$.$...$$...$$.$$.$...$$...$$$$.$$$.$$$.$$..+.++++..++.+.+...+...++.++++++..+++.++...++.++++.+",
"..@%@%@@%@@@@%%@@%@@@%@@@%@@@%@%@@@@@%@%@@@%@%@@....#..######..##..#####..#####..#####..######..##....$$..$..$$.$$.$$$.$.$$.$$.$$.$$$$$$.$.$$..$$.$$..+.++++++++++++++++++++++++++++++++++++++++++++++.+",
"..@%%@@@%%%@@%@%@%@@@%@@@%@@@%@%@@@@@%%@@@@@%@@@....#..######..##.........#####..#####..######..##....$$.$.$.$$.$$.$$$$$....$$.$$.$...$.$$$.$.$.$.$$..+.++++++++++++++++++++++++.+.++.++..++...+...+++.+",
"..@%@%@@%@@@@%@@%%@@@%@@@%@@@%@%@@@@@%@%@@@@%@@@....#..######..##.........#####..#####..######..##....$$.$$$.$$.$$.$$$.$.$$.$$.$$.$$$.$.....$.$$..$$..+.++++++++++++++++++++++++...+.+.+.+.++.++.+++++.+",
"..@%@@%@%%%%@%@@@%@@@%@@@@%%%@@@%%%%@%@@%@@@%@@@....#..######..##..#####..#####..#####..######..##....$$.$$$.$...$$...$$.$$.$...$$...$$.$$$.$.$$$.$$..+.++++++++++++++++++++++++.+.+...+..+++.++..++++.+",
"..@@@@@@@@@@@@@@@@@@@@@@@@@@@@@@@@@@@@@@@@@@@@@@....#...####...##..#####..#####..#####...####...##....$$$$$$$$$$$$$$$$$$$$$$$$$$$$$$$$$$$$$$$$$$$$$$..+.++++++++++++++++++++++++.+.+.+.+.+.++.++.+++++.+",
"..@@@@@@@@@@@@@@@@@@@@@@@@@@@@@@@@@@@@@@@@@@@@@@....##........###..#####..##........###........###....$$$$$$$$$$$$$$$$$$$$$$$$$$$$$$$$$$$$$$$$$$$$$$..+.++++++++++++++++++++++++.+.+.+.+.+.+...+...+++.+",
"..@@@@@@@@@@@@@@@@@@@@@@@@%%@@%@@@@@@@@@@@@@@@@@....###......####..#####..##........####......####....$$$$$$$$$$$$$$$$$$$$$$$$$$$$$$$$$$$$$$$$$$$$$$..+.++++++++++++++++++++++++++++++++++++++++++++++.+",
"..@@@@@@@@@@@@@@@@@@@@@@@%@@%%%@@@@@@@@@@@@@@@@@....##############################################....$$$$$$$$$$$$$$$$$$$$$$$$$$$$$$$$$$$$$$$$$$$$$$..+.++++++++++++++++++++++++++++++++++++++++++++++.+",
"..@@@@@@@@@@@@@@@@@@@@@@%@@@@@@%@@@@@@@@@@@@@@@@....##############################################....$$$$$$$$$$$$$$$$$$$$$$$$$$$$$$$$$$$$$$$$$$$$$$..+.++++++++++++++++++++++++++++++++++++++++++++++.+",
"..@@@@@@@@@@@@@@@@@@@@@%@@@@@@@@%@@@@@@@@@@@@@@@....##############################################....$.$.$$.$$.$.$...$$$$.$$...$$$.$$$$..$$..$.$.$$..+.++++++++++++++++++++++++++++++++++++++++++++++.+",
"..@@@@@@@@@@@@@@@@%%%%%%@@@@@@@@@%@@@@@@@@@@@@@@....##.#.##.###.####.##.#.##..#.#.#...#.#.##..#.##....$.$.$.$.$...$.$$$$$.$.$.$$$$$.$$$.$$$.$$$.$.$$..+.++++.++++..++..+.+.+++++.+++++++++++++++++++++.+",
"..@@@@@@@@@@@@@@@%@@@@@@@@@@@@@@%@@@@@@@@@@@@@@@....##...#.#.##.###.#.#.#.#.###.#.##.##...#.###.##....$...$.$.$.$.$..$$$$.$.$..$$$$.$$$$.$$$.$$.$.$$..+.++++.+++.+++.+++.+.++++++.++++++++++++++++++++.+",
"..@@@@@@@@@@@@@@@%@@@@@@@@@@@@@%@@@@@@@@@@@@@@@@....##...#.#.##.###...#.#.#...#...##.##...#...#.##....$.$.$.$.$.$.$.$$$$$.$.$.$$$$$.$$$$$.$$$.$.$.$$..+.++++.++++.+++.++.+.++......+++++++++++++++++++.+",
"..@@@@@@@@@@@@@@%%@@@@@@@@@@@@%@@@@@@@@@@@@@@@@@....##...#.#.##.###.#.#.#.#.#.#.#.##.##...#.#.####....$.$.$$.$$.$.$...$$$$.$$.$$$$$...$..$$..$$...$$..+.++++.+++++.+++.+.+.++++++.++++++++++++++++++++.+",
"..@@@@@@@@@@@@@%%@@%%%%%%%%%%%@@@@@@@@@@@@@@@@@@....##.#.##.###...#.#.#...##..#.#.#...#.#.##..#.##....$$$$$$$$$$$$$$$$$$$$$$$$$$$$$$$$$$$$$$$$$$$$$$..+.++++...+..++..++...+++++.+++++++++++++++++++++.+",
"..@@@@@@@@@@@@@%%%%%@@@@@@@@@@@@@@@@@@@@@@@@@@@@....##############################################....$$$$$$$$$$$$$$$$$$$$$$$$$$$$$$$$$$$$$$$$$$$$$$..+.++++++++++++++++++++++++++++++++++++++++++++++.+",
"..@@@@@@@@@@@@@@@@@@@@@@@@@@@@@@@@@@@@@@@@@@@@@@....##############################################....$$$$$$$$$$$$$$$$$$$$$$$$$$$$$$$$$$$$$$$$$$$$$$..+.++++++++++++++++++++++++++++++++++++++++++++++.+",
"......................................................................................................................................................+................................................+",
"......................................................................................................................................................++++++++++++++++++++++++++++++++++++++++++++++++++",
"*****====********************************====**********====********************************====**********====********************************====**********====********************************====*****",
"*****====********************************====**********====********************************====**********====********************************====**********====********************************====*****",
"*****====********************************====**********====********************************====**********====********************************====**********====********************************====*****",
"*****====********************************====**********====********************************====**********====********************************====**********====********************************====*****",
"*****====********************************====**********====********************************====**********====********************************====**********====********************************====*****",
"*****====********************************====**********====********************************====**********====********************************====**********====********************************====*****",
"*****====********************************====**********====********************************====**********====********************************====**********====********************************====*****",
"*****====********************************====**********====********************************====**********====********************************====**********====********************************====*****"};
