/* XPM */
static char * trucks_xpm[] = {
"120 30 11 1",
" 	c #FE00FE",
".	c #FF0000",
"+	c #0000FF",
"@	c #000000",
"#	c #7C4917",
"$	c #ABABAB",
"%	c #2B2B2B",
"&	c #00FF00",
"*	c #FFFFFF",
"=	c #F1CE40",
"-	c #4F4F4F",
"                     .....                                   +++++                                                      ",
"                     .....                                   +++++                                                      ",
"                     .....                                   +++++                                                      ",
"@@@@@@@@@@@@@@@@@@@@@@@@@@@@@           @@@@@@@@@@@@@@@@@@@@@@@@@@@@@                      #############################",
"@@@@@@@@@@@@@@@@@@@@@$$$@@%@$@          @@@@@@@@@@@@@@@@@@@@@$$$@@%@$@                    #$############################",
"@@@@@@@@@@@@@@@@@@@@$$$$$@%@$$@         @@@@@@@@@@@@@@@@@@@@$$$$$@%@$$@                  #$$############################",
"@@@@@@@@@@@@@@@&@@@@$$$$$@%@$$$@        @@@@@@@@@@@@@@@&@@@@$$$$$@%@$$$@                #$$$############################",
"@*****@****@@@&&&&@@$$$$$@%@$$$$@       @*****@****@@@&&&&@@$$$$$@%@$$$$@              #$$$$###===###===##====###====###",
"@@@*@@@*@@@*@&@&@@@@$$$$$@%@$$$$$@      @@@*@@@*@@@*@&@&@@@@$$$$$@%@$$$$$@            #$$$$$##=###=#=###=#=###=#=#######",
"@@@*@@@****@@@&&&@@@$$$$$@%@$$$$$$@     @@@*@@@****@@@&&&@@@$$$$$@%@$$$$$$@          #$$$$$$##=###=#=###=#====###===####",
"@@@*@@@*@@*@@@@&@&@@$$$$$@%@$$$$$$$@    @@@*@@@*@@*@@@@&@&@@$$$$$@%@$$$$$$$@        #$$$$$$$##=###=#=###=#=#########=###",
"@*****@*@@@*@&&&&@@@$$$$$@%@$$$$$$$$@   @*****@*@@@*@&&&&@@@$$$$$@%@$$$$$$$$@      #$$$$$$$$###===###===##=#####====####",
"@@@@@@@@@@@@@@@&@@@@$$$$$@%@$$$$$$$$$@  @@@@@@@@@@@@@@@&@@@@$$$$$@%@$$$$$$$$$@    #$$$$$$$$$############################",
"@@@@@@@@@@@@@@@@@@@@@$$$@@%@$$$$$$$$$@@ @@@@@@@@@@@@@@@@@@@@@$$$@@%@$$$$$$$$$@@  ##$$$$$$$$$############################",
"@@*@@*@*@**@@***@***@@@@@@%@@@@@@@@@@@@@@@*@@*@*@**@@***@***@@@@@@%@@@@@@@@@@@@@########################################",
"@*@*@*@*@*@*@@*@@@*@@@@@@@%@@@@@@@@@@%@@@*@*@*@*@*@*@@*@@@*@@@@@@@%@@@@@@@@@@%@@#######==##===#=###===#=#=#===#==##=#=##",
"@***@*@*@*@*@@*@@@*@@@@@@@%@@@@@@@@@@%@@@***@*@*@*@*@@*@@@*@@@@@@@%@@@@@@@@@@%@@#######=#=#=###=####=##=#=#=###=#=#=#=##",
"@*@*@*@*@*@*@@*@@@*@@@@@@@%@@@@@@@@@@%@@@*@*@*@*@*@*@@*@@@*@@@@@@@%@@@@@@@@@@%@@#######=#=#==##=####=##=#=#==##==###=###",
"@*@*@***@**@@***@@*@@@@@@@%@@@@@@@@@@%@@@*@*@***@**@@***@@*@@@@@@@%@@@@@@@@@@%@@#######=#=#=###=####=##=#=#=###=#=##=###",
"@@@@@@@@@@@@@@@@@@@@@@@@@@%@@@@@@@@@@%@@@@@@@@@@@@@@@@@@@@@@@@@@@@%@@@@@@@@@@%@@#######==##===#===#===##=##===#=#=##=###",
"@@@@@@@@@@@@@@@@@@@@@@@@@@%%%%%%%%%%@%@@@@@@@@@@@@@@@@@@@@@@@@@@@@%%%%%%%%%%@%@@########################################",
"@@@@@@@@@@@@@@@@@@@@@@@@@@%@@@@@@@@@%%@@@@@@@@@@@@@@@@@@@@@@@@@@@@%@@@@@@@@@%%@@########################################",
"@@@@@-------@@@@@@@@@@@@@@@@-------@@%@@@@@@@-------@@@@@@@@@@@@@@@@-------@@%@@#####-------################-------#####",
"@@@@--@@@@@--@@@@@@@@@@@@@@--@@@@@--@@@@@@@@--@@@@@--@@@@@@@@@@@@@@--@@@@@--@@@@####--@@@@@--##############--@@@@@--####",
"@@@@-@@@@@@@-@@@@@@@@@@@@@@-@@@@@@@-@@@@@@@@-@@@@@@@-@@@@@@@@@@@@@@-@@@@@@@-@@@@####-@@@@@@@-##############-@@@@@@@-####",
"@@@@-@@@@@@@-@@@@@@@@@@@@@@-@@@@@@@-@@@@@@@@-@@@@@@@-@@@@@@@@@@@@@@-@@@@@@@-@@@@####-@@@@@@@-##############-@@@@@@@-####",
" @@@-@@@@@@@-@@@@@@@@@@@@@@-@@@@@@@-@@@  @@@-@@@@@@@-@@@@@@@@@@@@@@-@@@@@@@-@@@  ###-@@@@@@@-##############-@@@@@@@-### ",
"     @@@@@@@                @@@@@@@          @@@@@@@                @@@@@@@          @@@@@@@                @@@@@@@     ",
"     @@@@@@@                @@@@@@@          @@@@@@@                @@@@@@@          @@@@@@@                @@@@@@@     ",
"      @@@@@                  @@@@@            @@@@@                  @@@@@            @@@@@                  @@@@@      "};
