/* XPM */
static char * boger30_xpm[] = {
"25 30 529 2",
". 	c #FE00FE",
"+ 	c #A07F6C",
"@ 	c #A5876E",
"# 	c #9F7C65",
"$ 	c #9D7A63",
"% 	c #846C53",
"& 	c #7F684B",
"* 	c #978172",
"= 	c #A68369",
"- 	c #BBA48B",
"; 	c #C0AB91",
"> 	c #C2A88F",
", 	c #B9A088",
"' 	c #9E8F75",
") 	c #796C58",
"! 	c #6B5942",
"~ 	c #89785D",
"{ 	c #98866C",
"] 	c #C1A58A",
"^ 	c #CAA88F",
"/ 	c #CAA086",
"( 	c #C69A81",
"_ 	c #C4A289",
": 	c #B6A78B",
"< 	c #9E9880",
"[ 	c #7C6E55",
"} 	c #70573B",
"| 	c #8E6F53",
"1 	c #7D6951",
"2 	c #BA9C85",
"3 	c #C59A86",
"4 	c #C88B77",
"5 	c #C58669",
"6 	c #CE9275",
"7 	c #C09278",
"8 	c #BDA389",
"9 	c #B3A689",
"0 	c #908167",
"a 	c #765F48",
"b 	c #78563E",
"c 	c #9B745C",
"d 	c #796755",
"e 	c #8E785E",
"f 	c #B89E82",
"g 	c #CBA790",
"h 	c #C18B72",
"i 	c #BC7D5B",
"j 	c #C18263",
"k 	c #B97F65",
"l 	c #AE836B",
"m 	c #A78768",
"n 	c #A08C74",
"o 	c #796C5D",
"p 	c #6D5A4A",
"q 	c #8D604A",
"r 	c #A08060",
"s 	c #87775D",
"t 	c #AD9779",
"u 	c #C19F7D",
"v 	c #B48464",
"w 	c #AB725B",
"x 	c #A56E50",
"y 	c #9B6655",
"z 	c #AC6C4C",
"A 	c #AF7854",
"B 	c #B98765",
"C 	c #A88A6E",
"D 	c #847662",
"E 	c #715D48",
"F 	c #816B57",
"G 	c #96754F",
"H 	c #9A7865",
"I 	c #856D59",
"J 	c #B7987F",
"K 	c #C19173",
"L 	c #BF7D64",
"M 	c #C4725C",
"N 	c #C3745E",
"O 	c #CB7559",
"P 	c #CE7E63",
"Q 	c #C38161",
"R 	c #B78C71",
"S 	c #8A6D58",
"T 	c #9D7861",
"U 	c #9E826A",
"V 	c #8A6C50",
"W 	c #8C7662",
"X 	c #8B6F58",
"Y 	c #90705B",
"Z 	c #B68572",
"` 	c #C77C67",
" .	c #D2745D",
"..	c #C86E57",
"+.	c #C35E4E",
"@.	c #C36943",
"#.	c #C76146",
"$.	c #D46859",
"%.	c #CA7D5E",
"&.	c #AE7A5F",
"*.	c #A67D66",
"=.	c #B78467",
"-.	c #B78D6A",
";.	c #977963",
">.	c #908063",
",.	c #5B523A",
"'.	c #96765A",
").	c #9F795E",
"!.	c #A67A62",
"~.	c #AF6D55",
"{.	c #B15A40",
"].	c #A25033",
"^.	c #BA7056",
"/.	c #C38C54",
"(.	c #B86E47",
"_.	c #A84F39",
":.	c #AB6643",
"<.	c #AF7E60",
"[.	c #B58A6F",
"}.	c #CC9372",
"|.	c #D2996D",
"1.	c #B28973",
"2.	c #B7A481",
"3.	c #78684F",
"4.	c #94795F",
"5.	c #9C7359",
"6.	c #AF8064",
"7.	c #B58A6C",
"8.	c #AF8062",
"9.	c #A86E50",
"0.	c #A76446",
"a.	c #A9684E",
"b.	c #A26347",
"c.	c #AB6C4B",
"d.	c #B97B5A",
"e.	c #B47F58",
"f.	c #BA8969",
"g.	c #BF886F",
"h.	c #D08C72",
"i.	c #E19B79",
"j.	c #C68E6E",
"k.	c #B79376",
"l.	c #9C876E",
"m.	c #473820",
"n.	c #967A60",
"o.	c #A5755B",
"p.	c #C3886B",
"q.	c #CB9170",
"r.	c #B47E5E",
"s.	c #946146",
"t.	c #83533C",
"u.	c #8A553E",
"v.	c #915C46",
"w.	c #8F5C45",
"x.	c #A77158",
"y.	c #C17458",
"z.	c #D18368",
"A.	c #D38A71",
"B.	c #CF886F",
"C.	c #CF9174",
"D.	c #CA9577",
"E.	c #B98E72",
"F.	c #A9886B",
"G.	c #9C7B5C",
"H.	c #8F7158",
"I.	c #AE755B",
"J.	c #C97F60",
"K.	c #E3896D",
"L.	c #E1856C",
"M.	c #BB6B55",
"N.	c #8F4B37",
"O.	c #AF6248",
"P.	c #B46953",
"Q.	c #8B4332",
"R.	c #B05F4A",
"S.	c #E2806A",
"T.	c #E9856D",
"U.	c #F0957B",
"V.	c #DD8E77",
"W.	c #CA8A6B",
"X.	c #C38B6D",
"Y.	c #B98B70",
"Z.	c #A47D65",
"`.	c #987459",
" +	c #6D5634",
".+	c #706048",
"++	c #8D6F57",
"@+	c #B07257",
"#+	c #CE7C5A",
"$+	c #F39373",
"%+	c #F49277",
"&+	c #DF866C",
"*+	c #C17358",
"=+	c #DF8C65",
"-+	c #E69A77",
";+	c #C87F64",
">+	c #D27C5D",
",+	c #E8836A",
"'+	c #F99478",
")+	c #FB9F80",
"!+	c #F09B83",
"~+	c #D9946E",
"{+	c #C88B69",
"]+	c #AC7D64",
"^+	c #9A7665",
"/+	c #7C614F",
"(+	c #5B4C2E",
"_+	c #6C604A",
":+	c #83684F",
"<+	c #B07454",
"[+	c #D9855D",
"}+	c #EB8F68",
"|+	c #F59374",
"1+	c #F19278",
"2+	c #CB7960",
"3+	c #DA8768",
"4+	c #EFA382",
"5+	c #D08667",
"6+	c #DA8061",
"7+	c #F68F6D",
"8+	c #F99A74",
"9+	c #FCA87F",
"0+	c #FCA982",
"a+	c #EFA879",
"b+	c #D5956E",
"c+	c #AC7B60",
"d+	c #80634F",
"e+	c #746548",
"f+	c #716449",
"g+	c #645C36",
"h+	c #695A42",
"i+	c #7E5E46",
"j+	c #B47458",
"k+	c #D78260",
"l+	c #E98866",
"m+	c #E98767",
"n+	c #E58D6D",
"o+	c #CA7E5D",
"p+	c #D1815F",
"q+	c #EEA080",
"r+	c #CA7C5E",
"s+	c #DA8262",
"t+	c #EB946D",
"u+	c #F0906C",
"v+	c #EF8F6B",
"w+	c #F29F71",
"x+	c #F3A67A",
"y+	c #E9A480",
"z+	c #B48267",
"A+	c #866B54",
"B+	c #78684C",
"C+	c #625743",
"D+	c #484129",
"E+	c #645C3B",
"F+	c #6B5A42",
"G+	c #62533B",
"H+	c #7F6048",
"I+	c #B0755B",
"J+	c #D08465",
"K+	c #D17B5E",
"L+	c #D38264",
"M+	c #CC8363",
"N+	c #CA8161",
"O+	c #C77A57",
"P+	c #F1A182",
"Q+	c #D07D60",
"R+	c #D27D5C",
"S+	c #CE8A72",
"T+	c #D89077",
"U+	c #D78962",
"V+	c #E1966D",
"W+	c #E59F7D",
"X+	c #BF886D",
"Y+	c #856049",
"Z+	c #7D6751",
"`+	c #564D3E",
" @	c #534D3C",
".@	c #65593F",
"+@	c #685743",
"@@	c #60533C",
"#@	c #81684D",
"$@	c #AA785B",
"%@	c #BF7D61",
"&@	c #AF6C52",
"*@	c #AB6F53",
"=@	c #AA6E51",
"-@	c #BA7257",
";@	c #D0815F",
">@	c #F4A17F",
",@	c #CC7456",
"'@	c #CE795A",
")@	c #B97359",
"!@	c #A5735D",
"~@	c #86553D",
"{@	c #AE6647",
"]@	c #C5825C",
"^@	c #D39270",
"/@	c #B88065",
"(@	c #79503A",
"_@	c #634C3B",
":@	c #4E4637",
"<@	c #55523F",
"[@	c #766E4C",
"}@	c #65533B",
"|@	c #5B4932",
"1@	c #694F34",
"2@	c #9E7353",
"3@	c #B0755A",
"4@	c #BE8269",
"5@	c #BC876A",
"6@	c #B77F60",
"7@	c #C17B5F",
"8@	c #D58163",
"9@	c #F09773",
"0@	c #E78E6A",
"a@	c #CF7D61",
"b@	c #C87D5C",
"c@	c #CC8560",
"d@	c #DB9771",
"e@	c #C7855E",
"f@	c #C38563",
"g@	c #CB8C6C",
"h@	c #A17056",
"i@	c #5A412F",
"j@	c #453522",
"k@	c #5A4E38",
"l@	c #676050",
"m@	c #71724A",
"n@	c #644B33",
"o@	c #513926",
"p@	c #7D5C3F",
"q@	c #A06D4B",
"r@	c #AE7253",
"s@	c #BB7C5E",
"t@	c #BF795A",
"u@	c #DA8B6D",
"v@	c #ED9B7E",
"w@	c #F6A185",
"x@	c #EF9A7E",
"y@	c #EA9E80",
"z@	c #D99070",
"A@	c #D48C6B",
"B@	c #DA9673",
"C@	c #DB9976",
"D@	c #DD9F7D",
"E@	c #CC8C71",
"F@	c #9A6854",
"G@	c #5E4533",
"H@	c #56452C",
"I@	c #605336",
"J@	c #776F58",
"K@	c #5D442E",
"L@	c #4B3623",
"M@	c #553C24",
"N@	c #73492A",
"O@	c #D09371",
"P@	c #E39979",
"Q@	c #F19B7C",
"R@	c #F79E7E",
"S@	c #FBA586",
"T@	c #FCA38A",
"U@	c #FBA289",
"V@	c #F7A984",
"W@	c #F8A983",
"X@	c #F1A27E",
"Y@	c #F1A57F",
"Z@	c #EFA57F",
"`@	c #DEA076",
" #	c #C8886A",
".#	c #93614C",
"+#	c #725B40",
"@#	c #74623F",
"##	c #6F603B",
"$#	c #6E6446",
"%#	c #664E35",
"&#	c #5D4A32",
"*#	c #4C3822",
"=#	c #53321B",
"-#	c #925B3E",
";#	c #DD9171",
">#	c #EF9474",
",#	c #FDA081",
"'#	c #FDA684",
")#	c #FBA284",
"!#	c #FCA284",
"~#	c #FDAA82",
"{#	c #FEAA7F",
"]#	c #FCA67D",
"^#	c #FAA57C",
"/#	c #F5A27A",
"(#	c #DF9F70",
"_#	c #CA8E6E",
":#	c #82553D",
"<#	c #685431",
"[#	c #7A6841",
"}#	c #786940",
"|#	c #797049",
"1#	c #69533F",
"2#	c #5B462F",
"3#	c #554128",
"4#	c #56351E",
"5#	c #945E42",
"6#	c #CF8462",
"7#	c #F8A280",
"8#	c #FAA784",
"9#	c #FAA884",
"0#	c #FBA884",
"a#	c #FDA784",
"b#	c #FCAB7E",
"c#	c #FEA77D",
"d#	c #FDA37D",
"e#	c #F19C77",
"f#	c #E3A27A",
"g#	c #C89579",
"h#	c #75543D",
"i#	c #645633",
"j#	c #7B6B46",
"k#	c #73683C",
"l#	c #6D563D",
"m#	c #604B2A",
"n#	c #675339",
"o#	c #63442B",
"p#	c #A36D4C",
"q#	c #E99F77",
"r#	c #F8A882",
"s#	c #FBAF88",
"t#	c #FEB187",
"u#	c #FDB085",
"v#	c #FBAC7D",
"w#	c #F8A478",
"x#	c #F4A077",
"y#	c #F0A47B",
"z#	c #E5A97D",
"A#	c #C29675",
"B#	c #766042",
"C#	c #695E38",
"D#	c #776D45",
"E#	c #73593F",
"F#	c #6F5638",
"G#	c #5E492E",
"H#	c #644D34",
"I#	c #775035",
"J#	c #C78966",
"K#	c #EDA57E",
"L#	c #FAB289",
"M#	c #FAB283",
"N#	c #FAB37E",
"O#	c #F9B480",
"P#	c #F8B080",
"Q#	c #ECA97A",
"R#	c #E6AD7E",
"S#	c #EBB384",
"T#	c #B18F68",
"U#	c #807350",
"V#	c #7D764B",
"W#	c #6B5237",
"X#	c #61482B",
"Y#	c #543D26",
"Z#	c #5F412B",
"`#	c #8C5939",
" $	c #D89672",
".$	c #F1AD84",
"+$	c #FBB886",
"@$	c #FEC085",
"#$	c #FCC989",
"$$	c #FECB8C",
"%$	c #FAC58C",
"&$	c #EFBC8C",
"*$	c #E1AD82",
"=$	c #937754",
"-$	c #7E7754",
";$	c #878254",
">$	c #674D2D",
",$	c #5A452C",
"'$	c #4C3721",
")$	c #643F20",
"!$	c #A8714D",
"~$	c #E5A57E",
"{$	c #F7B786",
"]$	c #FEC78C",
"^$	c #FCD391",
"/$	c #FBD390",
"($	c #EABB81",
"_$	c #CE986F",
":$	c #A2785A",
"<$	c #5C492E",
"[$	c #75724F",
"}$	c #715732",
"|$	c #695131",
"1$	c #564329",
"2$	c #533C22",
"3$	c #774F2B",
"4$	c #B8835B",
"5$	c #CE976D",
"6$	c #D4A475",
"7$	c #C6986E",
"8$	c #B48860",
"9$	c #936B45",
"0$	c #815D39",
"a$	c #624B2F",
"b$	c #5B522D",
"c$	c #73613F",
"d$	c #665536",
"e$	c #564529",
"f$	c #5A421F",
"g$	c #704E2D",
"h$	c #704B2E",
"i$	c #6D4D31",
"j$	c #5F4225",
"k$	c #55381F",
"l$	c #50381C",
"m$	c #5D4923",
"n$	c #625734",
"o$	c #6E5D3C",
"p$	c #655233",
"q$	c #624C2C",
"r$	c #614A2A",
"s$	c #574322",
"t$	c #5B4C29",
"u$	c #685A3C",
"v$	c #796A4C",
"w$	c #7E7148",
"x$	c #6F683F",
"y$	c #7F6A4C",
"z$	c #776343",
"A$	c #806D49",
"B$	c #8B7850",
"C$	c #8B7E50",
"D$	c #7B6F45",
"E$	c #665A33",
". . . . . . . . + @ # $ % & * . . . . . . . . . . ",
". . . . . . . = - ; > , ' ) ! ~ . . . . . . . . . ",
". . . . . . { ] ^ / ( _ : < [ } | . . . . . . . . ",
". . . . . 1 2 3 4 5 6 7 8 9 0 a b c . . . . . . . ",
". . . . d e f g h i j k l m n o p q r . . . . . . ",
". . . . s t u v w x y z A B C D E F G H . . . . . ",
". . . . I J K 5 L M N O P Q R S T U V W . . . . . ",
". . . X Y Z `  ...+.@.#.$.%.&.*.=.-.;.>.,.. . . . ",
". . . '.).!.~.{.].^./.(._.:.<.[.}.|.1.2.3.. . . . ",
". . 4.5.6.7.8.9.0.a.b.c.d.e.f.g.h.i.j.k.l.m.. . . ",
". . n.o.p.q.r.s.t.u.v.w.x.y.z.A.B.C.D.E.F.G.. . . ",
". . H.I.J.K.L.M.N.O.P.Q.R.S.T.U.V.W.X.Y.Z.`. +. . ",
". .+++@+#+$+%+&+*+=+-+;+>+,+'+)+!+~+{+]+^+/+(+. . ",
". _+:+<+[+}+|+1+2+3+4+5+6+7+8+9+0+a+b+c+d+e+f+g+. ",
". h+i+j+k+l+m+n+o+p+q+r+s+t+u+v+w+x+y+z+A+B+C+D+E+",
"F+G+H+I+J+K+L+M+N+O+P+Q+R+M+S+T+U+V+W+X+Y+Z+`+ @.@",
"+@@@#@$@%@&@*@=@-@;@>@,@'@)@!@~@{@]@^@/@(@_@:@<@[@",
"}@|@1@2@3@4@5@6@7@8@9@0@a@b@c@d@e@f@g@h@i@j@k@l@m@",
"n@i@o@p@q@r@s@t@u@v@w@x@y@z@A@B@C@D@E@F@G@H@I@J@. ",
". K@L@M@N@O@P@Q@R@S@T@U@V@W@X@Y@Z@`@ #.#+#@###$#. ",
". %#&#*#=#-#;#>#,#'#)#!#~#{#]#^#/#(#_#:#<#[#}#|#. ",
". . 1#2#3#4#5#6#7#8#9#0#a#b#c#d#e#f#g#h#i#j#k#. . ",
". . . l#m#n#o#p#q#r#s#t#u#v#w#x#y#z#A#B#C#D#. . . ",
". . . E#F#G#H#I#J#K#L#M#N#O#P#Q#R#S#T#U#V#. . . . ",
". . . . W#X#Y#Z#`# $.$+$@$#$$$%$&$*$=$-$;$. . . . ",
". . . . . >$,$'$)$!$~${$]$^$/$($_$:$<$[$. . . . . ",
". . . . . }$|$1$2$3$4$5$6$7$8$9$0$a$b$. . . . . . ",
". . . . . . c$d$e$f$g$h$i$j$k$l$m$n$. . . . . . . ",
". . . . . . . . o$p$q$r$s$t$u$v$w$x$. . . . . . . ",
". . . . . . . . . y$z$A$B$C$D$E$. . . . . . . . . "};
