/* XPM */
static char * book_xpm[] = {
"30 30 11 1",
" 	c None",
".	c #FE00FE",
"+	c #D6D6B5",
"@	c #EDEDC9",
"#	c #000000",
"$	c #FFFFFF",
"%	c #1E1E88",
"&	c #B07E10",
"*	c #956B0E",
"=	c #686868",
"-	c #FF0000",
"...................+++........",
"..............+++++@@+........",
".........+++++@@@@@@@@+++.....",
"......+++@@@@@@@@++++++++.....",
".....+++@@@@+++++#+###+#+.....",
".....+$+++++%%%##+##++##+.....",
".....+$$+%%%%%%#########+.....",
".....+$$+%%%%%%#######$#+.....",
".....+$$+%%%#######$#$##+.....",
".....+$$+#####$#$$#$####+.....",
".....+$$+##$###$########+.....",
".....+$$+##$#$########&&+.....",
".....+$$+#########&*&&*&+.....",
".....+$$+###$$$&&&#&*#&&+.....",
".....+$$+$$$$$$&*&#**&&#+.....",
".....+$$+$$$$$$&&*#&*&&&+.....",
".....+$$+$$$$$$&**#&&&#&+.....",
".....+$$+$$$$$$####&&##&+.....",
".....+$$+$$$$$$&&&#&&#&*+.....",
".....+$$+$$$$$$&*&&*&&*&+.....",
".....+$$+$$$$$$&&&&&&**&+.....",
".....+$$+$$$$$$&&***&*&&+.....",
".....+$$+$$$$$$**&*&&&==+.....",
".....+$$+$$$$$--&=======+.....",
".....+%%+$$$$$--========+.....",
".....+%%+$$$$$$=========+.....",
".....+%%+$$$$$$=======+++.....",
".....+%%+$$$$$$==+++++........",
".....+%%+$$$+++++.............",
"......++++++.................."};
