/* XPM */
static char * cable_xpm[] = {
"180 30 7 1",
" 	c #FE00FE",
".	c #A8A8A8",
"+	c #98AA98",
"@	c #000000",
"#	c #98FF98",
"$	c #FFFFFF",
"%	c #FF0000",
"   ..................            ..................            ..................            ..................            ..................            ..................         ",
"  ....................          ....................          ....................          ....................          ....................          ....................        ",
" ......................        ......................        ......................        ......................        ......................        ......................       ",
"...++...@@...@....@@....      ...##...@@...@....@@....      ...++...@@...@....@@....      ...++...@@...@....@@....      ...++...@@...@....@@....      ...++...@@...@....@@....      ",
"..++++..@.@..@..@...@...      ..####..@.@..@..@...@...      ..++++..@.@..@..@...@...      ..++++..@.@..@..@...@...      ..++++..@.@..@..@...@...      ..++++..@.@..@..@...@...      ",
"..++++..@@...@....@@....      ..####..@@...@....@@....      ..++++..@@...@....@@....      ..++++..@@...@....@@....      ..++++..@@...@....@@....      ..++++..@@...@....@@....      ",
"...++...@....@....@@@...      ...##...@....@....@@@...      ...++...@....@....@@@...      ...++...@....@....@@@...      ...++...@....@....@@@...      ...++...@....@....@@@...      ",
".......................$$     .......................$$     .......................$$     .......................$$     .......................$$     .......................$$     ",
"...++...@@..@@@...@....$$$$   ...++...@@..@@@...@....$$$$   ...##...@@..@@@...@....$$$$   ...++...@@..@@@...@....$$$$   ...++...@@..@@@...@....$$$$   ...++...@@..@@@...@....$$$$   ",
"..++++..@.@..@@.@.@@@..$$  $  ..++++..@.@..@@.@.@@@..$$  $  ..####..@.@..@@.@.@@@..$$  $  ..++++..@.@..@@.@.@@@..$$  $  ..++++..@.@..@@.@.@@@..$$  $  ..++++..@.@..@@.@.@@@..$$  $  ",
"..++++..@@...@@...@.@...    $ ..++++..@@...@@...@.@...    $ ..####..@@...@@...@.@...    $ ..++++..@@...@@...@.@...    $ ..++++..@@...@@...@.@...    $ ..++++..@@...@@...@.@...    $ ",
"...++...@...@@@...@@@...    $ ...++...@...@@@...@@@...    $ ...##...@...@@@...@@@...    $ ...++...@...@@@...@@@...    $ ...++...@...@@@...@@@...    $ ...++...@...@@@...@@@...    $ ",
"........................    $ ........................    $ ........................    $ ........................    $ ........................    $ ........................    $ ",
"...++...@@..@.@...@@@...     $...++...@@..@.@...@@@...     $...++...@@..@.@...@@@...     $...##...@@..@.@...@@@...     $...++...@@..@.@...@@@...     $...++...@@..@.@...@@@...     $",
"..++++..@.@.@.@.@.@.....     $..++++..@.@.@.@.@.@.....     $..++++..@.@.@.@.@.@.....     $..####..@.@.@.@.@.@.....     $..++++..@.@.@.@.@.@.....     $..++++..@.@.@.@.@.@.....     $",
"..++++..@@..@@@....@@...     $..++++..@@..@@@....@@...     $..++++..@@..@@@....@@...     $..####..@@..@@@....@@...     $..++++..@@..@@@....@@...     $..++++..@@..@@@....@@...     $",
"...++...@.....@...@@@...     $...++...@.....@...@@@...     $...++...@.....@...@@@...     $...##...@.....@...@@@...     $...++...@.....@...@@@...     $...++...@.....@...@@@...     $",
"........................    $ ........................    $ ........................    $ ........................    $ ........................    $ ........................    $ ",
"...++...@@..@@@...@@@...    $ ...++...@@..@@@...@@@...    $ ...++...@@..@@@...@@@...    $ ...++...@@..@@@...@@@...    $ ...##...@@..@@@...@@@...    $ ...++...@@..@@@...@@@...    $ ",
"..++++..@.@...@.@.@@@...    $ ..++++..@.@...@.@.@@@...    $ ..++++..@.@...@.@.@@@...    $ ..++++..@.@...@.@.@@@...    $ ..####..@.@...@.@.@@@...    $ ..++++..@.@...@.@.@@@...    $ ",
"..++++..@@....@...@.@..$$  $  ..++++..@@....@...@.@..$$  $  ..++++..@@....@...@.@..$$  $  ..++++..@@....@...@.@..$$  $  ..####..@@....@...@.@..$$  $  ..++++..@@....@...@.@..$$  $  ",
"...++...@.....@...@@@..$$$$   ...++...@.....@...@@@..$$$$   ...++...@.....@...@@@..$$$$   ...++...@.....@...@@@..$$$$   ...##...@.....@...@@@..$$$$   ...++...@.....@...@@@..$$$$   ",
".......................$$     .......................$$     .......................$$     .......................$$     .......................$$     .......................$$     ",
"...++...@@@.@@@.@.@.....      ...++...@@@.@@@.@.@.....      ...++...@@@.@@@.@.@.....      ...++...@@@.@@@.@.@.....      ...++...@@@.@@@.@.@.....      ...%%...@@@.@@@.@.@.....      ",
"..++++..@...@.@.@.@.....      ..++++..@...@.@.@.@.....      ..++++..@...@.@.@.@.....      ..++++..@...@.@.@.@.....      ..++++..@...@.@.@.@.....      ..%%%%..@...@.@.@.@.....      ",
"..++++..@@..@@@.@.@.....      ..++++..@@..@@@.@.@.....      ..++++..@@..@@@.@.@.....      ..++++..@@..@@@.@.@.....      ..++++..@@..@@@.@.@.....      ..%%%%..@@..@@@.@.@.....      ",
"...++...@...@.@.@.@@@...      ...++...@...@.@.@.@@@...      ...++...@...@.@.@.@@@...      ...++...@...@.@.@.@@@...      ...++...@...@.@.@.@@@...      ...%%...@...@.@.@.@@@...      ",
" ......................        ......................        ......................        ......................        ......................        ......................       ",
"  ....................          ....................          ....................          ....................          ....................          ....................        ",
"   ..................            ..................            ..................            ..................            ..................            ..................         "};
