/* XPM */
static char * cola_xpm[] = {
"180 30 9 1",
" 	c None",
".	c #FE00FE",
"+	c #7E9686",
"@	c #D6D6D6",
"#	c #A7A7A7",
"$	c #FFFFFF",
"%	c #EEF5EE",
"&	c #000000",
"*	c #FF0000",
".........++++++++++++..................++++++++++++..................++++++++++++..................++++++++++++..................++++++++++++..................++++++++++++.........",
"........+@@###@@@##@++................+@@###@@@##@++................+@@###@@@##@++................+@@###@@@##@++................+@@###@@@##@++................+@@###@@@##@++........",
".......+@@@####@####@++..............+@@@####@####@++..............+@@@####@####@++..............+@@@####@####@++..............+@@@####@####@++..............+@@@####@####@++.......",
"..$....++@@###@@@##@+@+.........$....++@@###@@@##@+@+....$....$....++@@###@@@##@+@+....$.........++@@###@@@##@+@+....$.........++@@###@@@##@+@+..............++@@###@@@##@+@+.......",
"...$...+@+++++++++++@@+..........$...+@+++++++++++@@+...$......$...+@+++++++++++@@+...$..........+@+++++++++++@@+...$..........+@+++++++++++@@+..............+@+++++++++++@@+.......",
"....$..+@%%%%@@@@@@@@@+...........$..+@%%%%@@@@@@@@@+..$........$..+@%%%%@@@@@@@@@+..$...........+@%%%%@@@@@@@@@+..$...........+@%%%%@@@@@@@@@+..............+@%%%%@@@@@@@@@+.......",
".......+@%%%%@@@@@@@@@+..............+@%%%%@@@@@@@@@+..............+@%%%%@@@@@@@@@+..............+@%%%%@@@@@@@@@+..............+@%%%%@@@@@@@@@+..............+@%%%%@@@@@@@@@+.......",
".......+@%%%%@@@@@@@@@+..............+@%%%%@@@@@@@@@+..............+@%%%%@@@@@@@@@+..............+@%%%%@@@@@@@@@+..............+@%%%%@@@@@@@@@+..............+@%%%%@@@@@@@@@+.......",
".......+@%%%%@@@@@@@@@+..............+@%%%%@@@@@@@@@+..............+@%%%%@@@@@@@@@+..............+@%%%%@@@@@@@@@+..............+@%%%%@@@@@@@@@+..............+@%%%%@@@@@@@@@+.......",
".......+@&%%@@@@****@@+..............+@&%%@@@@****@@+..............+@&%%@@@@****@@+..............+@&%%@@@@****@@+..............+@&%%@@@@****@@+..............+@&%%@@@@****@@+.......",
".......+@&&&&&@*@*@@@@+..............+@&&&&&@*@*@@@@+..............+@&&&&&@*@*@@@@+..............+@&&&&&@*@*@@@@+..............+@&&&&&@*@*@@@@+..............+@&&&&&@*@*@@@@+.......",
".......+@&%%%@@@****@@+..............+@&%%%@@@****@@+..............+@&%%%@@@****@@+..............+@&%%%@@@****@@+..............+@&%%%@@@****@@+..............+@&%%%@@@****@@+.......",
".......+@@@%%@@@@@@@@@+..............+@@@%%@@@@@@@@@+..............+@@@%%@@@@@@@@@+..............+@@@%%@@@@@@@@@+..............+@@@%%@@@@@@@@@+..............+@@@%%@@@@@@@@@+.......",
".......+@&@%%&@@@@@*@@+..............+@&@%%&@@@@@*@@+..............+@&@%%&@@@@@*@@+..............+@&@%%&@@@@@*@@+..............+@&@%%&@@@@@*@@+..............+@&@%%&@@@@@*@@+.......",
".......+@&@&%&%@@@@*@@+..............+@&@&%&%@@@@*@@+..............+@&@&%&%@@@@*@@+..............+@&@&%&%@@@@*@@+..............+@&@&%&%@@@@*@@+..............+@&@&%&%@@@@*@@+.......",
"..$$$..+@&&&&&%*****@@+.........$$$..+@&&&&&%*****@@+..............+@&&&&&%*****@@+..$$$.........+@&&&&&%*****@@+..$$$.........+@&&&&&%*****@@+..$$$....$$$..+@&&&&&%*****@@+.......",
".......+@@@@@@%%@@@@@@+..............+@@@@@@%%@@@@@@+..............+@@@@@@%%@@@@@@+..............+@@@@@@%%@@@@@@+..............+@@@@@@%%@@@@@@+..............+@@@@@@%%@@@@@@+.......",
".......+@&@@@&%%***@@@+..............+@&@@@&%%***@@@+..............+@&@@@&%%***@@@+..............+@&@@@&%%***@@@+..............+@&@@@&%%***@@@+..............+@&@@@&%%***@@@+.......",
".......+@&&&&&@*%@@*@@+..............+@&&&&&@*%@@*@@+..............+@&&&&&@*%@@*@@+..............+@&&&&&@*%@@*@@+..............+@&&&&&@*%@@*@@+..............+@&&&&&@*%@@*@@+.......",
".......+@&@@@&@%***@@@+..............+@&@@@&@%***@@@+..............+@&@@@&@%***@@@+..............+@&@@@&@%***@@@+..............+@&@@@&@%***@@@+..............+@&@@@&@%***@@@+.......",
".......+@@@@@@@@%%@@@@+..............+@@@@@@@@%%@@@@+..............+@@@@@@@@%%@@@@+..............+@@@@@@@@%%@@@@+..............+@@@@@@@@%%@@@@+..............+@@@@@@@@%%@@@@+.......",
".......+@@&&&@@@*%*@@@+..............+@@&&&@@@*%*@@@+..............+@@&&&@@@*%*@@@+..............+@@&&&@@@*%*@@@+..............+@@&&&@@@*%*@@@+..............+@@&&&@@@*%*@@@+.......",
".......+@&@@@&@*%%%*@@+..............+@&@@@&@*%%%*@@+..............+@&@@@&@*%%%*@@+..............+@&@@@&@*%%%*@@+..............+@&@@@&@*%%%*@@+..............+@&@@@&@*%%%*@@+.......",
".......+@&&&&&@@***%@@+..............+@&&&&&@@***%@@+..............+@&&&&&@@***%@@+..............+@&&&&&@@***%@@+..............+@&&&&&@@***%@@+..............+@&&&&&@@***%@@+.......",
"....$..+@@@@@@@@@%%%@@+..............+@@@@@@@@@%%%@@+..............+@@@@@@@@@%%%@@+..............+@@@@@@@@@%%%@@+..$........$..+@@@@@@@@@%%%@@+..$........$..+@@@@@@@@@%%%@@+..$....",
"...$...+@@@@@@@@%%%%@@+..............+@@@@@@@@%%%%@@+..............+@@@@@@@@%%%%@@+..............+@@@@@@@@%%%%@@+...$......$...+@@@@@@@@%%%%@@+...$......$...+@@@@@@@@%%%%@@+...$...",
"..$....+@@@@@@@@%%%%@@+..............+@@@@@@@@%%%%@@+..............+@@@@@@@@%%%%@@+..............+@@@@@@@@%%%%@@+....$....$....+@@@@@@@@%%%%@@+....$....$....+@@@@@@@@%%%%@@+....$..",
".......+@@@@@@@@%%%%@@+..............+@@@@@@@@%%%%@@+..............+@@@@@@@@%%%%@@+..............+@@@@@@@@%%%%@@+..............+@@@@@@@@%%%%@@+..............+@@@@@@@@%%%%@@+.......",
"........+@@@@@@@%%%%@+................+@@@@@@@%%%%@+................+@@@@@@@%%%%@+................+@@@@@@@%%%%@+................+@@@@@@@%%%%@+................+@@@@@@@%%%%@+........",
".........++++++++++++..................++++++++++++..................++++++++++++..................++++++++++++..................++++++++++++..................++++++++++++........."};
