/* XPM */
static char * fabbri_xpm[] = {
"60 30 274 2",
"  	c #FE00FE",
". 	c #9A8869",
"+ 	c #8D7A5C",
"@ 	c #8E775D",
"# 	c #927B63",
"$ 	c #967F6A",
"% 	c #927C66",
"& 	c #877C64",
"* 	c #B29879",
"= 	c #9A7C5F",
"- 	c #967358",
"; 	c #9D775D",
"> 	c #9C775E",
", 	c #8A674D",
"' 	c #86684C",
") 	c #7B6348",
"! 	c #6E5F44",
"~ 	c #6C684D",
"{ 	c #63634B",
"] 	c #967C62",
"^ 	c #8B634A",
"/ 	c #A77B63",
"( 	c #C09279",
"_ 	c #BF9279",
": 	c #91684E",
"< 	c #866147",
"[ 	c #816146",
"} 	c #785C41",
"| 	c #6E583F",
"1 	c #695B42",
"2 	c #5F5641",
"3 	c #615B49",
"4 	c #827157",
"5 	c #815A45",
"6 	c #A8725D",
"7 	c #BC856E",
"8 	c #CF9A80",
"9 	c #C5957A",
"0 	c #8E654C",
"a 	c #88654D",
"b 	c #83654E",
"c 	c #7C6349",
"d 	c #765E46",
"e 	c #6F5A44",
"f 	c #685542",
"g 	c #645545",
"h 	c #625645",
"i 	c #83644F",
"j 	c #955E4C",
"k 	c #BD7C62",
"l 	c #CC8C71",
"m 	c #CF9477",
"n 	c #BD896D",
"o 	c #9A7156",
"p 	c #8F6E56",
"q 	c #8C705A",
"r 	c #866C55",
"s 	c #80634E",
"t 	c #80614F",
"u 	c #795D4C",
"v 	c #6E5749",
"w 	c #615042",
"x 	c #9F7162",
"y 	c #AE6758",
"z 	c #C77A5E",
"A 	c #D58A6C",
"B 	c #D59071",
"C 	c #B97F62",
"D 	c #A3755B",
"E 	c #97735C",
"F 	c #977964",
"G 	c #94745F",
"H 	c #8F6856",
"I 	c #855848",
"J 	c #6E4133",
"K 	c #674236",
"L 	c #5B4337",
"M 	c #625044",
"N 	c #C4A79B",
"O 	c #B07B6E",
"P 	c #B46657",
"Q 	c #C26E51",
"R 	c #DA876A",
"S 	c #D68A6D",
"T 	c #C58368",
"U 	c #AF7861",
"V 	c #A17460",
"W 	c #9E7665",
"X 	c #996C5A",
"Y 	c #A16A59",
"Z 	c #B57465",
"` 	c #915245",
" .	c #633124",
"..	c #523126",
"+.	c #634F43",
"@.	c #D2B4AD",
"#.	c #B37E72",
"$.	c #BA6D5D",
"%.	c #CE795F",
"&.	c #D68167",
"*.	c #DC8B71",
"=.	c #D48972",
"-.	c #C68471",
";.	c #B07767",
">.	c #AC7668",
",.	c #A16654",
"'.	c #B06757",
").	c #C06C5D",
"!.	c #C9786A",
"~.	c #915346",
"{.	c #573123",
"].	c #594235",
"^.	c #514035",
"/.	c #CB998C",
"(.	c #BC7462",
"_.	c #CF7B65",
":.	c #CF7A64",
"<.	c #DA8771",
"[.	c #D88875",
"}.	c #D68C7D",
"|.	c #C17D71",
"1.	c #B37066",
"2.	c #B76E5D",
"3.	c #C77060",
"4.	c #CA6757",
"5.	c #C56858",
"6.	c #A15A4B",
"7.	c #653D2C",
"8.	c #4E3828",
"9.	c #4F3D33",
"0.	c #A37E72",
"a.	c #A9665A",
"b.	c #97483C",
"c.	c #B45D51",
"d.	c #C3695D",
"e.	c #CC7769",
"f.	c #D88778",
"g.	c #D9877A",
"h.	c #D37F74",
"i.	c #CF7B6B",
"j.	c #D77D6C",
"k.	c #C36352",
"l.	c #C76A5B",
"m.	c #A05548",
"n.	c #6B3D2F",
"o.	c #503427",
"p.	c #463028",
"q.	c #926E63",
"r.	c #A56B61",
"s.	c #9F554C",
"t.	c #B35E55",
"u.	c #B95F55",
"v.	c #C97466",
"w.	c #DA8A79",
"x.	c #E28D7F",
"y.	c #DD8378",
"z.	c #DA8274",
"A.	c #D47B6A",
"B.	c #C26553",
"C.	c #CE6F61",
"D.	c #B56358",
"E.	c #7B4338",
"F.	c #553126",
"G.	c #442A21",
"H.	c #D0A096",
"I.	c #BE7669",
"J.	c #954134",
"K.	c #B65C4D",
"L.	c #D7806E",
"M.	c #E2917F",
"N.	c #E38E81",
"O.	c #E1887E",
"P.	c #E0877A",
"Q.	c #D57969",
"R.	c #D87665",
"S.	c #D56F61",
"T.	c #C86D62",
"U.	c #A46155",
"V.	c #794E41",
"W.	c #654F42",
"X.	c #CDA49A",
"Y.	c #C0796D",
"Z.	c #C1685C",
"`.	c #CD6C5D",
" +	c #D87867",
".+	c #E6897A",
"++	c #E6877E",
"@+	c #E6857E",
"#+	c #E18579",
"$+	c #D97B6B",
"%+	c #D06C5B",
"&+	c #CE6657",
"*+	c #CA6D61",
"=+	c #B26D60",
"-+	c #956E5E",
";+	c #B6948E",
">+	c #C7837B",
",+	c #BB645A",
"'+	c #D06B5E",
")+	c #E1786A",
"!+	c #E98176",
"~+	c #EA807B",
"{+	c #E87D7B",
"]+	c #E48177",
"^+	c #DF7E6F",
"/+	c #D06C5D",
"(+	c #CF6C5F",
"_+	c #C87468",
":+	c #B47A6C",
"<+	c #927160",
"[+	c #AC9693",
"}+	c #BA8581",
"|+	c #AD615B",
"1+	c #BE5F54",
"2+	c #E27D6E",
"3+	c #E57D72",
"4+	c #E87B77",
"5+	c #EA7A79",
"6+	c #E37B71",
"7+	c #DE7A6C",
"8+	c #CF7061",
"9+	c #CA7566",
"0+	c #BC7E6F",
"a+	c #A68071",
"b+	c #0000E0",
"c+	c #A88582",
"d+	c #9F6761",
"e+	c #B16256",
"f+	c #C26857",
"g+	c #D37466",
"h+	c #D67069",
"i+	c #DE736F",
"j+	c #DF7369",
"k+	c #D57163",
"l+	c #C56C5C",
"m+	c #C07668",
"n+	c #BB8A7B",
"o+	c #866459",
"p+	c #9A5C4D",
"q+	c #B35A4B",
"r+	c #D06F5F",
"s+	c #CD6D5F",
"t+	c #D27267",
"u+	c #D67568",
"v+	c #CE7568",
"w+	c #BD7367",
"x+	c #B87A70",
"y+	c #966454",
"z+	c #AF5E50",
"A+	c #BB5C4E",
"B+	c #C5695B",
"C+	c #C66D5E",
"D+	c #C96F61",
"E+	c #BF7265",
"F+	c #A96F63",
"G+	c #966F5F",
"H+	c #A8675A",
"I+	c #B66659",
"J+	c #B56255",
"K+	c #B56456",
"L+	c #BB6C5D",
"M+	c #A86C5B",
"N+	c #966D5E",
"O+	c #A16759",
"P+	c #A96C5B",
"Q+	c #AF715F",
"R+	c #A76C58",
"S+	c #946A54",
"T+	c #906D5A",
"U+	c #99745D",
"V+	c #9C755C",
"W+	c #98755B",
"X+	c #FFE7BA",
"Y+	c #FFFFFF",
"                                                                                                                        ",
"                  . + @ # $ % &                                                         & % $ # @ + .                   ",
"                * = - ; > , ' ) ! ~ {                                             { ~ ! ) ' , > ; - = *                 ",
"              ] ^ / ( _ : < [ } | 1 2 3                                         3 2 1 | } [ < : _ ( / ^ ]               ",
"            4 5 6 7 8 9 0 a b c d e f g h                                     h g f e d c b a 0 9 8 7 6 5 4             ",
"            i j k l m n o p q r s t u v w                                     w v u t s r q p o n m l k j i             ",
"            x y z A B C D E F G H I J K L M                                 M L K J I H G F E D C B A z y x             ",
"          N O P Q R S T U V W X Y Z `  ...+.                                +... .` Z Y X W V U T S R Q P O N           ",
"          @.#.$.%.&.*.=.-.;.>.,.'.).!.~.{.].^.                            ^.].{.~.!.).'.,.>.;.-.=.*.&.%.$.#.@.          ",
"            /.(._.:.<.[.}.|.1.2.3.4.5.6.7.8.9.                            9.8.7.6.5.4.3.2.1.|.}.[.<.:._.(./.            ",
"            0.a.b.c.d.e.f.g.h.i.j.k.l.m.n.o.p.                            p.o.n.m.l.k.j.i.h.g.f.e.d.c.b.a.0.            ",
"            q.r.s.t.u.v.w.x.y.z.A.B.C.D.E.F.G.                            G.F.E.D.C.B.A.z.y.x.w.v.u.t.s.r.q.            ",
"              H.I.J.K.L.M.N.O.P.Q.R.S.T.U.V.W.                            W.V.U.T.S.R.Q.P.O.N.M.L.K.J.I.H.              ",
"              X.Y.Z.`. +.+++@+#+$+%+&+*+=+-+                                -+=+*+&+%+$+#+@+++.+ +`.Z.Y.X.              ",
"              ;+>+,+'+)+!+~+{+]+^+/+(+_+:+<+                                <+:+_+(+/+^+]+{+~+!+)+'+,+>+;+              ",
"              [+}+|+1+2+3+4+5+6+7+8+9+0+a+b+                                b+a+0+9+8+7+6+5+4+3+2+1+|+}+[+              ",
"                c+d+e+f+g+h+i+j+k+l+m+n+b+b+b+                            b+b+b+n+m+l+k+j+i+h+g+f+e+d+c+                ",
"                  o+p+q+r+s+t+u+v+w+x+b+b+b+b+b+                        b+b+b+b+b+x+w+v+u+t+s+r+q+p+o+                  ",
"                    y+z+A+B+C+D+E+F+b+b+b+b+b+b+b+                    b+b+b+b+b+b+b+F+E+D+C+B+A+z+y+                    ",
"                    G+H+I+J+K+L+M+b+b+b+b+b+b+b+b+b+                b+b+b+b+b+b+b+b+b+M+L+K+J+I+H+G+                    ",
"                      N+O+P+Q+R+S+b+b+b+b+b+b+b+b+b+b+            b+b+b+b+b+b+b+b+b+b+S+R+Q+P+O+N+                      ",
"                        T+U+V+W+b+b+b+b+b+b+b+b+b+b+b+b+        b+b+b+b+b+b+b+b+b+b+b+b+W+V+U+T+                        ",
"              b+b+b+b+b+b+b+b+b+b+b+b+b+b+b+b+b+b+b+b+b+b+    b+b+b+b+b+b+b+b+b+b+b+b+b+b+b+b+b+b+b+b+b+b+              ",
"      b+b+b+b+b+b+X+X+b+b+X+X+b+b+b+b+X+X+X+b+b+b+b+b+b+b+b+b+b+b+b+b+b+b+b+b+X+X+b+b+X+X+b+b+b+b+X+X+X+b+b+b+b+b+      ",
"  b+b+b+b+b+b+b+b+X+b+X+b+X+b+X+b+b+b+X+b+b+b+b+b+b+b+b+b+b+b+b+b+b+b+b+b+b+b+X+b+X+b+X+b+X+b+b+b+X+b+b+b+b+b+b+b+b+b+  ",
"b+b+b+b+b+b+b+b+b+X+b+X+b+X+X+b+b+b+b+X+X+b+b+b+b+b+b+b+b+b+b+b+b+b+b+b+b+b+b+X+b+X+b+X+X+b+b+b+b+X+X+b+b+b+b+b+b+b+b+b+",
"b+b+b+b+b+Y+Y+b+b+X+X+b+b+X+b+X+b+X+b+X+b+b+b+Y+Y+b+b+b+b+b+b+b+b+b+b+Y+Y+b+b+X+X+b+b+X+b+X+b+X+b+X+b+b+b+Y+Y+b+b+b+b+b+",
"b+b+b+b+Y+Y+Y+Y+b+b+b+b+b+b+b+b+b+b+b+b+b+b+Y+Y+Y+Y+b+b+b+b+b+b+b+b+Y+Y+Y+Y+b+b+b+b+b+b+b+b+b+b+b+b+b+b+Y+Y+Y+Y+b+b+b+b+",
"b+b+b+b+Y+Y+Y+Y+b+b+b+b+b+b+b+b+b+b+b+b+b+b+Y+Y+Y+Y+b+b+b+b+b+b+b+b+Y+Y+Y+Y+b+b+b+b+b+b+b+b+b+b+b+b+b+b+Y+Y+Y+Y+b+b+b+b+",
"          Y+Y+                                Y+Y+                    Y+Y+                                Y+Y+          "};
