/* XPM */
static char * grider_xpm[] = {
"30 30 2 1",
" 	c #22B1FF",
".	c #000000",
"                              ",
"                              ",
"                              ",
"                              ",
"                              ",
"    ......................    ",
"     ....................     ",
"  .   ..................   .  ",
"  ..   ................   ..  ",
"  ...   ..............   ...  ",
"  ....   ............   ....  ",
"  .....   ..........   .....  ",
"  ......   ........   ......  ",
"  .......   ......   .......  ",
"  ........          ........  ",
"  ........          ........  ",
"  .......   ......   .......  ",
"  ......   ........   ......  ",
"  .....   ..........   .....  ",
"  ....   ............   ....  ",
"  ...   ..............   ...  ",
"  ..   ................   ..  ",
"  .   ..................   .  ",
"     ....................     ",
"    ......................    ",
"                              ",
"                              ",
"                              ",
"                              ",
"                              "};
