/* XPM */
static char * level_xpm[] = {
"100 20 10 1",
" 	c #FE00FE",
".	c #AC6300",
"+	c #FFFFFF",
"@	c #DEDEDE",
"#	c #E8BF00",
"$	c #000000",
"%	c #C7A400",
"&	c #FF6E00",
"*	c #7100C6",
"=	c #7C7C7C",
"           .....        ++        ++      @@@@                                        ####$####     ",
"          .$$$+$.        %%      %%      @@@@@@                                      #####$#####    ",
"         .$+$+$+$.       %%      %%     @@@  @@@                                   #######$#######  ",
"        .$$$+$$$+$.       %%    %%      @@   &@&&                                  $######$######$  ",
"       .$+$+$+$+$+$.      %%    %%      @   &&&&&&                      *         ##$#####$#####$## ",
"      .$$$+$$$+$$$+.       %%  %%          &&&&&&&=                      *       ####$####$####$####",
"      .+$+$+$+$+$+$.       %%  %%         &&& &&&===                   ***       ####$####$####$####",
"      .$+$$$+$$$+$$.        %%%%               &&&=@           $$$$      *       #####$###$###$#####",
"      .+$+$+$+$+$+$.        %%%%                &&&@           $$$$      *       #####$###$###$#####",
"      .$$$+$$$+$$$.   $$     %%     $$           &&&              *********      $$$$$$$$$$$$$$$$$$$",
"      .$$+$+$+$+$.   $$$$    %%    $$$$           &&&             *       *      #####$###$###$#####",
"       .+$$$+$$$.    $$$$   %%%%   $$$$            &&&           * *      *      #####$###$###$#####",
"      ...$$+$+$.      $$    %%%%    $$              &&&          * *     ***     ####$####$####$####",
"     ... ......            %%  %%                    &&&      $$*   *   *  *$$   ####$####$####$####",
"    ...                    %%  %%                     &&&    $++*$  ****  $*++$   ##$#####$#####$## ",
"   ...                    %%    %%                     &&&  $++*++$ *@@@ $++*++$   $######$######$  ",
"  ...                     %%    %%                      &&& $++*******@@ $++*++$   #######$#######  ",
" ...                %$$$$%%      %%$$$$%                 && $+++++$  @@  $+++++$     #####$#####    ",
"...                 %$$$$%%      %%$$$$%                  &  $+++$        $+++$       ####$####     ",
"..                  %$$$$%%      %%$$$$%                      $$$          $$$                      "};
