/* XPM */
static char * man_xpm[] = {
"160 40 3 1",
" 	c None",
".	c #FE00FE",
"+	c #FFFFFF",
".........+++.................+++.................+++.................+++.................+++.................+++.................+++.................+++........",
"........+++++...............+++++...............+++++...............+++++...............+++++...............+++++...............+++++...............+++++.......",
"........+++++...............+++++...............+++++...............+++++...............+++++...............+++++...............+++++...............+++++.......",
"........+++++...............+++++...............+++++...............+++++...............+++++...............+++++...............+++++...............+++++.......",
".........+++.................+++.................+++.................+++.................+++.................+++.................+++.................+++........",
"..........+...................+...................+...................+...................+...................+...................+...................+.........",
".........+++.................+++.................+++.................+++.................+++.................+++.................+++.................+++........",
"........+.+.+...............+.++................+.++................+.++................+.++.................+++.................+++.................++.+.......",
"........+.+..+..............+.+.+...............+.+.+...............+.+.+...............+.+.+................++.+................++.+................++.+.......",
"........+.+...+.............+.+..+..............+.+..+.............+..+..+..............+.+.+................++.+................++.+................++..+......",
".........++....+...........+..+..+.............+..+..+............+...+..+..............+.+.+................++.+................++..+...............++..+......",
"..........+................+..+...+............+..+...+...........+...+...+.............+.+..+...............+++.+...............+++.+...............++...+.....",
"..........+...................+...................+...................+...................+...................++..................+...................+.........",
".........+.+.................+.+.................+.+..................++..................++..................+.+.................++..................++........",
".........+..+...............+..+................+...+.................++..................++..................+.+................++.+................++.+.......",
"........+...+..............+....+..............+....+.................+.+................++...................++.................+..+................+..+.......",
"........+....+.............+....+.............+......+...........++++++.+.............+++.+..................+++.................+.+................+....+......",
".......+.....+............+......+...........+......+............+.....+..............+...+..................++.................+..+................+....+......",
".......+......+..........+.......+..........+......+...................+..................+..................+..................+..++..............+.....++.....",
".......++.....++.........+........+..........+.....++..................++.................++.................++.................++.................++...........",
"........+++.................+++.................+++.................+++.................+++.................+++.................+++.................+++.........",
".......+++++...............+++++...............+++++...............+++++...............+++++...............+++++...............+++++...............+++++........",
".......+++++...............+++++...............+++++...............+++++...............+++++...............+++++...............+++++...............+++++........",
".......+++++...............+++++...............+++++...............+++++...............+++++...............+++++...............+++++...............+++++........",
"........+++.................+++.................+++.................+++.................+++.................+++.................+++.................+++.........",
".........+...................+...................+...................+...................+...................+...................+...................+..........",
"........+++.................+++.................+++.................+++.................+++.................+++.................+++.................+++.........",
".......+.+.+................++.+................++.+................++.+................++.+................+++.................+++................+.++.........",
"......+..+.+...............+.+.+...............+.+.+...............+.+.+...............+.+.+...............+.++................+.++................+.++.........",
".....+...+.+..............+..+.+..............+..+.+..............+..+..+..............+.+.+...............+.++................+.++...............+..++.........",
"....+....++...............+..+..+.............+..+..+.............+..+...+.............+.+.+...............+.++...............+..++...............+..++.........",
".........+...............+...+..+............+...+..+............+...+...+............+..+.+..............+.+++...............+.+++..............+...++.........",
".........+...................+...................+...................+...................+..................++...................+...................+..........",
"........+.+.................+.+.................+.+.................++..................++.................+.+..................++..................++..........",
".......+..+.................+..+...............+...+................++..................++.................+.+.................+.++................+.++.........",
".......+...+...............+....+..............+....+..............+.+...................++.................++.................+..+................+..+.........",
"......+....+...............+....+.............+......+.............+.++++++..............+.+++..............+++.................+.+...............+....+........",
"......+.....+.............+......+.............+......+.............+.....+..............+...+...............++.................+..+..............+....+........",
".....+......+.............+.......+.............+......+............+....................+....................+................++..+.............++.....+.......",
"....++.....++............+........+............++.....+............++...................++...................++...................++...................++......."};
