/* XPM */
static char * NewerTwig3_xpm[] = {
"60 30 308 2",
"  	c None",
". 	c #FE00FE",
"+ 	c #6B4A39",
"@ 	c #9F7768",
"# 	c #DCA490",
"$ 	c #E1A892",
"% 	c #E4AB94",
"& 	c #ECB297",
"* 	c #F6B297",
"= 	c #EEB193",
"- 	c #F3B192",
"; 	c #EFB296",
"> 	c #D7A288",
", 	c #A27367",
"' 	c #D89B8A",
") 	c #DA9C8B",
"! 	c #DE9F8D",
"~ 	c #EBAA93",
"{ 	c #F0AE95",
"] 	c #F7B296",
"^ 	c #F4B192",
"/ 	c #EFB192",
"( 	c #EEB08F",
"_ 	c #DEA584",
": 	c #AC8066",
"< 	c #8E675C",
"[ 	c #D48F80",
"} 	c #E19484",
"| 	c #E69987",
"1 	c #EE9F8C",
"2 	c #F8A792",
"3 	c #F7B195",
"4 	c #F4AB8D",
"5 	c #F2AE8E",
"6 	c #EFB08D",
"7 	c #E2A886",
"8 	c #CD9878",
"9 	c #8A654C",
"0 	c #886659",
"a 	c #B88577",
"b 	c #D48E7F",
"c 	c #E89684",
"d 	c #ED9986",
"e 	c #EE9A87",
"f 	c #F5A38F",
"g 	c #F29E8A",
"h 	c #F5A88C",
"i 	c #F1A185",
"j 	c #F4A88A",
"k 	c #E9A586",
"l 	c #D79F80",
"m 	c #AD8161",
"n 	c #6E4E3C",
"o 	c #6A4738",
"p 	c #815947",
"q 	c #9B6A5B",
"r 	c #CD8778",
"s 	c #E19282",
"t 	c #E28877",
"u 	c #ED9684",
"v 	c #E58C7A",
"w 	c #D07663",
"x 	c #CC745F",
"y 	c #C97A64",
"z 	c #DD957C",
"A 	c #E29D81",
"B 	c #E6AC91",
"C 	c #CF9A84",
"D 	c #B3846B",
"E 	c #936D54",
"F 	c #88674E",
"G 	c #9F7263",
"H 	c #9E6353",
"I 	c #B26654",
"J 	c #C37564",
"K 	c #DA8D7D",
"L 	c #DE8A7A",
"M 	c #C47462",
"N 	c #B6634F",
"O 	c #C97563",
"P 	c #D1806D",
"Q 	c #CA7F6B",
"R 	c #CB806C",
"S 	c #CC8470",
"T 	c #CF8E79",
"U 	c #C98A74",
"V 	c #AF7963",
"W 	c #946751",
"X 	c #815945",
"Y 	c #926353",
"Z 	c #995B4A",
"` 	c #AD7061",
" .	c #DE8E7E",
"..	c #CF8070",
"+.	c #C57664",
"@.	c #CA7A69",
"#.	c #C1725F",
"$.	c #BC6E5A",
"%.	c #C57967",
"&.	c #CB8774",
"*.	c #DD9382",
"=.	c #D28E7A",
"-.	c #BF846F",
";.	c #9A614C",
">.	c #9A715D",
",.	c #AA7964",
"'.	c #A66E5E",
").	c #B27061",
"!.	c #AF7061",
"~.	c #E09484",
"{.	c #DA8F7F",
"].	c #D18675",
"^.	c #D78575",
"/.	c #D18473",
"(.	c #D58775",
"_.	c #DE9280",
":.	c #E29281",
"<.	c #DE9282",
"[.	c #CB8875",
"}.	c #B07863",
"|.	c #937059",
"1.	c #A67A65",
"2.	c #AA7564",
"3.	c #B7705F",
"4.	c #BD7868",
"5.	c #DF9484",
"6.	c #DF8E7E",
"7.	c #EE9C89",
"8.	c #F2A18D",
"9.	c #EC9B88",
"0.	c #DE9383",
"a.	c #DB9382",
"b.	c #D69582",
"c.	c #C58772",
"d.	c #9C775B",
"e.	c #AA7E62",
"f.	c #C08872",
"g.	c #C47865",
"h.	c #C47967",
"i.	c #EA9B88",
"j.	c #E69584",
"k.	c #E79584",
"l.	c #F2A18E",
"m.	c #F4A490",
"n.	c #F5A591",
"o.	c #EE9D89",
"p.	c #EC9E8A",
"q.	c #E59884",
"r.	c #D98E79",
"s.	c #D98F7A",
"t.	c #C68671",
"u.	c #9F7A5F",
"v.	c #AB8167",
"w.	c #B7826B",
"x.	c #B6715D",
"y.	c #D88472",
"z.	c #F6A38F",
"A.	c #EE9885",
"B.	c #F7A590",
"C.	c #F6A68B",
"D.	c #F3A488",
"E.	c #E89C80",
"F.	c #DC9579",
"G.	c #DB9579",
"H.	c #C67F6A",
"I.	c #A17B60",
"J.	c #B4876E",
"K.	c #C48C75",
"L.	c #BD7764",
"M.	c #D58472",
"N.	c #F5A590",
"O.	c #E79582",
"P.	c #E48E7C",
"Q.	c #EC9583",
"R.	c #E99381",
"S.	c #F4A18D",
"T.	c #F6A691",
"U.	c #F7A88E",
"V.	c #EA9E87",
"W.	c #E69C80",
"X.	c #DB957A",
"Y.	c #CD8B73",
"Z.	c #C38570",
"`.	c #9F795F",
" +	c #AE816A",
".+	c #BD8674",
"++	c #A46553",
"@+	c #B97360",
"#+	c #CD8877",
"$+	c #BE7461",
"%+	c #CB7C69",
"&+	c #E08F7B",
"*+	c #DA8673",
"=+	c #E4937F",
"-+	c #F0A28B",
";+	c #F4A590",
">+	c #E09C85",
",+	c #D99981",
"'+	c #CD9178",
")+	c #C68772",
"!+	c #BB7F6A",
"~+	c #927056",
"{+	c #AE7E6B",
"]+	c #AC715F",
"^+	c #9D5D4B",
"/+	c #9A5A47",
"(+	c #A66756",
"_+	c #B16956",
":+	c #C37764",
"<+	c #CB7B68",
"[+	c #C37461",
"}+	c #CD7965",
"|+	c #DA8B76",
"1+	c #E0937E",
"2+	c #D3917C",
"3+	c #CF907A",
"4+	c #C68A74",
"5+	c #C08871",
"6+	c #B27A65",
"7+	c #8B6C50",
"8+	c #A2795F",
"9+	c #9D654D",
"0+	c #9F5E4B",
"a+	c #975643",
"b+	c #B26A57",
"c+	c #BB6E5B",
"d+	c #BC705D",
"e+	c #B96853",
"f+	c #B66450",
"g+	c #C97E66",
"h+	c #D28770",
"i+	c #CD8B76",
"j+	c #CB8570",
"k+	c #BC806B",
"l+	c #B17D67",
"m+	c #A6745D",
"n+	c #755B43",
"o+	c #8B694F",
"p+	c #9B6E57",
"q+	c #995D49",
"r+	c #945542",
"s+	c #AE6956",
"t+	c #C47764",
"u+	c #BF735F",
"v+	c #BD6E59",
"w+	c #C06F5B",
"x+	c #C97764",
"y+	c #CB7F6A",
"z+	c #CC8A74",
"A+	c #CA8B75",
"B+	c #BA7F69",
"C+	c #AC7761",
"D+	c #9E6E58",
"E+	c #876354",
"F+	c #6D523E",
"G+	c #9F745C",
"H+	c #A9705B",
"I+	c #9C5C49",
"J+	c #BB7561",
"K+	c #CB806D",
"L+	c #D68A75",
"M+	c #D78B77",
"N+	c #D58A75",
"O+	c #DA9078",
"P+	c #CF8B74",
"Q+	c #C48670",
"R+	c #B88068",
"S+	c #A7735D",
"T+	c #9C6C56",
"U+	c #785241",
"V+	c #735742",
"W+	c #A4765E",
"X+	c #A76653",
"Y+	c #C17B68",
"Z+	c #C9806D",
"`+	c #D88F7B",
" @	c #E29A86",
".@	c #D7917A",
"+@	c #D3907A",
"@@	c #C58873",
"#@	c #BA806B",
"$@	c #A4755B",
"%@	c #9B6A55",
"&@	c #775241",
"*@	c #875E50",
"=@	c #A76654",
"-@	c #C1816E",
";@	c #C58976",
">@	c #D39582",
",@	c #D89D8B",
"'@	c #CC8C76",
")@	c #C38874",
"!@	c #B88671",
"~@	c #A4725C",
"{@	c #976B54",
"]@	c #795543",
"^@	c #986854",
"/@	c #BE8D7C",
"(@	c #C99584",
"_@	c #C58A76",
":@	c #C08E7D",
"<@	c #B1816F",
"[@	c #9A6C57",
"}@	c #9C715F",
"|@	c #8F6B5B",
"1@	c #4A9E4A",
"2@	c #EED8AE",
"3@	c #FFFFFF",
". . . . . . . . . + @ # $ % & * = - ; > + + . . . . . . . . . . . . . . . . + + > ; - = * & % $ # @ + . . . . . . . . . ",
". . . . . . . . . , ' ) ! ~ { ] ^ / ( _ : + + . . . . . . . . . . . . . . + + : _ ( / ^ ] { ~ ! ) ' , . . . . . . . . . ",
". . . . . . . . < [ } | 1 2 2 3 4 5 6 7 8 9 + + . . . . . . . . . . . . + + 9 8 7 6 5 4 3 2 2 1 | } [ < . . . . . . . . ",
". . . . . . . 0 a b c d e f g h i j k l 8 m n + + . . . . . . . . . . + + n m 8 l k j i h g f e d c b a 0 . . . . . . . ",
". . . . . . o p q r s t u v w x y z A B C D E + + . . . . . . . . . . + + E D C B A z y x w v u t s r q p o . . . . . . ",
". . . . . . F G H I J K L M N O P Q R S T U V W + . . . . . . . . . . + W V U T S R Q P O N M L K J I H G F . . . . . . ",
". . . . . . X Y H Z ` L  ...+.@.#.$.%.&.*.=.-.;.+ . . . . . . . . . . + ;.-.=.*.&.%.$.#.@.+... .L ` Z H Y X . . . . . . ",
". . . . . . >.,.'.).!.~.~.{.].^./.(._.:.~.<.[.}.+ . . . . . . . . . . + }.[.<.~.:._.(./.^.].{.~.~.!.).'.,.>.. . . . . . ",
". . . . . . |.1.2.3.4.~.~.<.5.6.| 7.8.9.0.a.b.c.+ . . . . . . . . . . + c.b.a.0.9.8.7.| 6.5.<.~.~.4.3.2.1.|.. . . . . . ",
". . . . . . d.e.f.g.h.i.j.k.l.m.n.g o.p.q.r.s.t.+ . . . . . . . . . . + t.s.r.q.p.o.g n.m.l.k.j.i.h.g.f.e.d.. . . . . . ",
". . . . . . u.v.w.x.y.z.A.u u B.2 2 C.D.E.F.G.H.+ . . . . . . . . . . + H.G.F.E.D.C.2 2 B.u u A.z.y.x.w.v.u.. . . . . . ",
". . . . . . I.J.K.L.M.N.O.P.Q.R.S.T.U.V.W.X.Y.Z.+ . . . . . . . . . . + Z.Y.X.W.V.U.T.S.R.Q.P.O.N.M.L.K.J.I.. . . . . . ",
". . . . . . `. +.+++@+#+$+%+&+*+=+-+;+>+,+'+)+!++ . . . . . . . . . . + !+)+'+,+>+;+-+=+*+&+%+$+#+@+++.+ +`.. . . . . . ",
". . . . . . ~+{+]+^+/+(+_+:+<+[+}+|+1+2+3+4+5+6++ . . . . . . . . . . + 6+5+4+3+2+1+|+}+[+<+:+_+(+/+^+]+{+~+. . . . . . ",
". . . . . . 7+8+9+0+a+b+c+d+N e+f+g+h+i+j+k+l+m++ . . . . . . . . . . + m+l+k+j+i+h+g+f+e+N d+c+b+a+0+9+8+7+. . . . . . ",
". . . . . . n+o+p+q+r+s+t+u+v+w+x+y+z+A+B+C+D+E++ . . . . . . . . . . + E+D+C+B+A+z+y+x+w+v+u+t+s+r+q+p+o+n+. . . . . . ",
". . . . . . . F+G+H+I+J+K+L+M+N+O+P+Q+R+S+T+U+. . . . . . . . . . . . . . U+T+S+R+Q+P+O+N+M+L+K+J+I+H+G+F+. . . . . . . ",
". . . . . . . . V+W+X+Y+Z+`+ @.@+@@@#@$@%@&@. . . . . . . . . . . . . . . . &@%@$@#@@@+@.@ @`+Z+Y+X+W+V+. . . . . . . . ",
". . . . . . . . . *@=@-@;@>@,@'@)@!@~@{@]@. . . . . . . . . . . . . . . . . . ]@{@~@!@)@'@,@>@;@-@=@*@. . . . . . . . . ",
". . . . . . . . . . ^@/@(@(@_@:@<@[@}@|@. . . . . . . . . . . . . . . . . . . . |@}@[@<@:@_@(@(@/@^@. . . . . . . . . . ",
". . . . . . . . . . . . 1@1@1@1@1@1@. . . . . . . . . . . . . . . . . . . . . . . . 1@1@1@1@1@1@. . . . . . . . . . . . ",
". . . . . . . . 2 1@1@1@1@1@1@1@1@1@1@1@1@2 . . . . . . . . . . . . . . . . 2 1@1@1@1@1@1@1@1@1@1@1@1@2 . . . . . . . . ",
". . . . . . . . 2 1@1@1@1@1@1@1@1@1@1@1@1@2 . . . . . . . . . . . . . . . . 2 1@1@1@1@1@1@1@1@1@1@1@1@2 . . . . . . . . ",
". . . . . . . . . . . 1@1@1@1@1@1@1@1@. . . . . . . . . . . . . . . . . . . . . . 1@1@1@1@1@1@1@1@. . . . . . . . . . . ",
". . . . . . . . . . . 1@1@1@1@1@1@1@1@. . . . . . . . . . . . . . . . . . . . . . 1@1@1@1@1@1@1@1@. . . . . . . . . . . ",
". . . . . . . . . . . 1@1@1@1@1@1@1@1@. . . . . . . . . . . . . . . . . . . . . . 1@1@1@1@1@1@1@1@. . . . . . . . . . . ",
". . . . . . . . . . . 2@2@. . . . 2@2@. . . . . . . . . . . . . . . . . . . . . . 2@2@. . . . 2@2@. . . . . . . . . . . ",
". . . . . . . . . . . 2@2@. . . . 2@2@. . . . . . . . . . . . . . . . . . . . . . 2@2@. . . . 2@2@. . . . . . . . . . . ",
". . . . . . . . . . . 2@2@. . . . 2@2@. . . . . . . . . . . . . . . . . . . . . . 2@2@. . . . 2@2@. . . . . . . . . . . ",
". . . . . . . . . . 3@3@3@. . . 3@3@3@. . . . . . . . . . . . . . . . . . . . . . 3@3@3@. . . 3@3@3@. . . . . . . . . . "};
