/* XPM */
static char * roof_xpm[] = {
"100 32 4 1",
" 	c None",
".	c #FE00FE",
"+	c #000000",
"@	c #7A7A7A",
"...............++++++++++++++++++++++++++++++++++++++++++++++++++++++++++++++++++++++...............",
"...............+@@@@+@@@@@@@+@@@@@@@+@@@@@@@+@@@@@@@+@@@@@@@+@@@@@@@+@@@@@@@+@@@@@@@+...............",
"..............+@@@@@+@@@@@@@+@@@@@@@+@@@@@@@+@@@@@@@+@@@@@@@+@@@@@@@+@@@@@@@+@@@@@@@@+..............",
"..............++++++++++++++++++++++++++++++++++++++++++++++++++++++++++++++++++++++++..............",
".............+@@+@@@@@@@+@@@@@@@+@@@@@@@+@@@@@@@+@@@@@@@+@@@@@@@+@@@@@@@+@@@@@@@+@@@@@+.............",
".............+@@+@@@@@@@+@@@@@@@+@@@@@@@+@@@@@@@+@@@@@@@+@@@@@@@+@@@@@@@+@@@@@@@+@@@@@+.............",
"............+@@@+@@@@@@@+@@@@@@@+@@@@@@@+@@@@@@@+@@@@@@@+@@@@@@@+@@@@@@@+@@@@@@@+@@@@@@+............",
"............++++++++++++++++++++++++++++++++++++++++++++++++++++++++++++++++++++++++++++............",
"...........++@@@@@@@+@@@@@@@+@@@@@@@+@@@@@@@+@@@@@@@+@@@@@@@+@@@@@@@+@@@@@@@+@@@@@@@+@@@+...........",
"...........++@@@@@@@+@@@@@@@+@@@@@@@+@@@@@@@+@@@@@@@+@@@@@@@+@@@@@@@+@@@@@@@+@@@@@@@+@@@+...........",
"..........+@+@@@@@@@+@@@@@@@+@@@@@@@+@@@@@@@+@@@@@@@+@@@@@@@+@@@@@@@+@@@@@@@+@@@@@@@+@@@@+..........",
"..........++++++++++++++++++++++++++++++++++++++++++++++++++++++++++++++++++++++++++++++++..........",
".........+@@@@@@+@@@@@@@+@@@@@@@+@@@@@@@+@@@@@@@+@@@@@@@+@@@@@@@+@@@@@@@+@@@@@@@+@@@@@@@+@+.........",
".........+@@@@@@+@@@@@@@+@@@@@@@+@@@@@@@+@@@@@@@+@@@@@@@+@@@@@@@+@@@@@@@+@@@@@@@+@@@@@@@+@+.........",
"........+@@@@@@@+@@@@@@@+@@@@@@@+@@@@@@@+@@@@@@@+@@@@@@@+@@@@@@@+@@@@@@@+@@@@@@@+@@@@@@@+@@+........",
"........++++++++++++++++++++++++++++++++++++++++++++++++++++++++++++++++++++++++++++++++++++........",
".......+@@@@+@@@@@@@+@@@@@@@+@@@@@@@+@@@@@@@+@@@@@@@+@@@@@@@+@@@@@@@+@@@@@@@+@@@@@@@+@@@@@@@+.......",
".......+@@@@+@@@@@@@+@@@@@@@+@@@@@@@+@@@@@@@+@@@@@@@+@@@@@@@+@@@@@@@+@@@@@@@+@@@@@@@+@@@@@@@+.......",
"......+@@@@@+@@@@@@@+@@@@@@@+@@@@@@@+@@@@@@@+@@@@@@@+@@@@@@@+@@@@@@@+@@@@@@@+@@@@@@@+@@@@@@@@+......",
"......++++++++++++++++++++++++++++++++++++++++++++++++++++++++++++++++++++++++++++++++++++++++......",
".....+@@+@@@@@@@+@@@@@@@+@@@@@@@+@@@@@@@+@@@@@@@+@@@@@@@+@@@@@@@+@@@@@@@+@@@@@@@+@@@@@@@+@@@@@+.....",
".....+@@+@@@@@@@+@@@@@@@+@@@@@@@+@@@@@@@+@@@@@@@+@@@@@@@+@@@@@@@+@@@@@@@+@@@@@@@+@@@@@@@+@@@@@+.....",
"....+@@@+@@@@@@@+@@@@@@@+@@@@@@@+@@@@@@@+@@@@@@@+@@@@@@@+@@@@@@@+@@@@@@@+@@@@@@@+@@@@@@@+@@@@@@+....",
"....++++++++++++++++++++++++++++++++++++++++++++++++++++++++++++++++++++++++++++++++++++++++++++....",
"...+@@@@@@@@+@@@@@@@+@@@@@@@+@@@@@@@+@@@@@@@+@@@@@@@+@@@@@@@+@@@@@@@+@@@@@@@+@@@@@@@+@@@@@@@+@@@+...",
"...+@@@@@@@@+@@@@@@@+@@@@@@@+@@@@@@@+@@@@@@@+@@@@@@@+@@@@@@@+@@@@@@@+@@@@@@@+@@@@@@@+@@@@@@@+@@@+...",
"..+@@@@@@@@@+@@@@@@@+@@@@@@@+@@@@@@@+@@@@@@@+@@@@@@@+@@@@@@@+@@@@@@@+@@@@@@@+@@@@@@@+@@@@@@@+@@@@+..",
"..++++++++++++++++++++++++++++++++++++++++++++++++++++++++++++++++++++++++++++++++++++++++++++++++..",
".+@@@@@@+@@@@@@@+@@@@@@@+@@@@@@@+@@@@@@@+@@@@@@@+@@@@@@@+@@@@@@@+@@@@@@@+@@@@@@@+@@@@@@@+@@@@@@@+@+.",
".+@@@@@@+@@@@@@@+@@@@@@@+@@@@@@@+@@@@@@@+@@@@@@@+@@@@@@@+@@@@@@@+@@@@@@@+@@@@@@@+@@@@@@@+@@@@@@@+@+.",
"+@@@@@@@+@@@@@@@+@@@@@@@+@@@@@@@+@@@@@@@+@@@@@@@+@@@@@@@+@@@@@@@+@@@@@@@+@@@@@@@+@@@@@@@+@@@@@@@+@@+",
"++++++++++++++++++++++++++++++++++++++++++++++++++++++++++++++++++++++++++++++++++++++++++++++++++++"};
